G04 #@! TF.FileFunction,Soldermask,Top*
%FSLAX46Y46*%
G04 Gerber Fmt 4.6, Leading zero omitted, Abs format (unit mm)*
G04 Created by KiCad (PCBNEW 4.0.2-stable) date 8-9-2016 13:54:52*
%MOMM*%
G01*
G04 APERTURE LIST*
%ADD10C,0.100000*%
%ADD11C,1.000000*%
%ADD12R,2.000000X1.200000*%
%ADD13R,2.200000X1.400000*%
%ADD14O,1.299160X1.901140*%
%ADD15C,4.464000*%
%ADD16R,1.900000X1.650000*%
%ADD17R,2.940000X2.940000*%
%ADD18C,2.940000*%
%ADD19R,2.599640X1.924000*%
%ADD20O,2.599640X1.924000*%
%ADD21R,1.700000X1.900000*%
%ADD22R,1.900000X1.700000*%
%ADD23R,1.543000X0.908000*%
%ADD24C,1.900000*%
%ADD25R,1.650000X1.900000*%
%ADD26C,2.200000*%
%ADD27R,1.700000X1.700000*%
%ADD28C,1.700000*%
%ADD29R,1.924000X1.924000*%
%ADD30C,1.924000*%
%ADD31O,2.600000X1.900000*%
G04 APERTURE END LIST*
D10*
D11*
X155480000Y-125125000D02*
X164370000Y-125125000D01*
D12*
X171755000Y-116180000D03*
X171755000Y-114680000D03*
D13*
X171755000Y-125180000D03*
D14*
X163735000Y-101630000D03*
X165005000Y-101630000D03*
X162465000Y-101630000D03*
D15*
X172000000Y-102500000D03*
X148000000Y-124500000D03*
X148000000Y-80500000D03*
D16*
X166295000Y-89565000D03*
X168795000Y-89565000D03*
D17*
X128175000Y-119410000D03*
D18*
X133255000Y-119410000D03*
X138335000Y-119410000D03*
D19*
X159925000Y-120045000D03*
D20*
X159925000Y-122585000D03*
X159925000Y-125125000D03*
D19*
X155480000Y-117505000D03*
D20*
X155480000Y-120045000D03*
X155480000Y-122585000D03*
X155480000Y-125125000D03*
D19*
X164370000Y-122585000D03*
D20*
X164370000Y-125125000D03*
D21*
X161830000Y-86310000D03*
X161830000Y-89010000D03*
X161830000Y-81230000D03*
X161830000Y-83930000D03*
D22*
X168895000Y-80675000D03*
X166195000Y-80675000D03*
D23*
X170720000Y-83215000D03*
X170720000Y-84485000D03*
X170720000Y-85755000D03*
X170720000Y-87025000D03*
X164370000Y-87025000D03*
X164370000Y-85755000D03*
X164370000Y-84485000D03*
X164370000Y-83215000D03*
D24*
X146717000Y-113060000D03*
X146717000Y-105440000D03*
X146717000Y-95280000D03*
X146717000Y-92740000D03*
D25*
X173387000Y-83830000D03*
X173387000Y-81330000D03*
D26*
X129300000Y-112000000D03*
X139900000Y-112000000D03*
X138600000Y-80800000D03*
X130600000Y-80800000D03*
X132100000Y-111100000D03*
X137100000Y-111100000D03*
X126900000Y-81700000D03*
X142300000Y-81700000D03*
D27*
X165005000Y-95280000D03*
D28*
X162505000Y-95280000D03*
D29*
X160560000Y-111790000D03*
D30*
X160560000Y-109250000D03*
X163100000Y-111790000D03*
X163100000Y-109250000D03*
X165640000Y-111790000D03*
X165640000Y-109250000D03*
X168180000Y-111790000D03*
X168180000Y-109250000D03*
D31*
X156750000Y-94010000D03*
X156750000Y-91470000D03*
X156750000Y-88930000D03*
X156750000Y-86390000D03*
X156750000Y-83850000D03*
X156750000Y-81310000D03*
X156750000Y-96550000D03*
X156750000Y-99090000D03*
X156750000Y-101630000D03*
X156750000Y-104170000D03*
X156750000Y-106710000D03*
X156750000Y-109250000D03*
X152650000Y-91470000D03*
X152650000Y-94010000D03*
X152650000Y-96550000D03*
M02*
