G04 #@! TF.FileFunction,Profile,NP*
%FSLAX46Y46*%
G04 Gerber Fmt 4.6, Leading zero omitted, Abs format (unit mm)*
G04 Created by KiCad (PCBNEW 4.0.1-stable) date 8-3-2016 22:19:15*
%MOMM*%
G01*
G04 APERTURE LIST*
%ADD10C,0.100000*%
%ADD11C,0.127000*%
%ADD12C,0.150000*%
G04 APERTURE END LIST*
D10*
D11*
X147352000Y-116235000D02*
G75*
G03X148368000Y-116235000I508000J0D01*
G01*
X146404980Y-104678000D02*
X147352000Y-105650420D01*
X148219210Y-105080790D02*
X146949210Y-103810790D01*
X148219210Y-105080790D02*
G75*
G02X148368000Y-105440000I-359210J-359210D01*
G01*
X143415000Y-103662000D02*
G75*
G03X143415000Y-104678000I0J-508000D01*
G01*
X146949210Y-103810790D02*
G75*
G03X146590000Y-103662000I-359210J-359210D01*
G01*
X146590000Y-103662000D02*
X143415000Y-103662000D01*
X146404980Y-104678000D02*
X143415000Y-104678000D01*
X148368000Y-116235000D02*
X148368000Y-105440000D01*
X147352000Y-116235000D02*
X147352000Y-105650420D01*
X131223000Y-114540420D02*
X135519210Y-110244210D01*
X135519210Y-110244210D02*
G75*
G03X134800790Y-109525790I-359210J359210D01*
G01*
X130355790Y-113970790D02*
X134800790Y-109525790D01*
X130355790Y-113970790D02*
G75*
G03X130207000Y-114330000I359210J-359210D01*
G01*
X130207000Y-122585000D02*
G75*
G03X131223000Y-122585000I508000J0D01*
G01*
X130207000Y-122585000D02*
X130207000Y-114330000D01*
X131223000Y-122585000D02*
X131223000Y-114540420D01*
D12*
X125000000Y-125500000D02*
X125000000Y-79500000D01*
X125000000Y-125500000D02*
G75*
G03X127000000Y-127500000I2000000J0D01*
G01*
X173000000Y-127500000D02*
X127000000Y-127500000D01*
X175000000Y-79500000D02*
X175000000Y-125500000D01*
X173000000Y-127500000D02*
G75*
G03X175000000Y-125500000I0J2000000D01*
G01*
X127000000Y-77500000D02*
G75*
G03X125000000Y-79500000I0J-2000000D01*
G01*
X173000000Y-77500000D02*
X127000000Y-77500000D01*
X175000000Y-79500000D02*
G75*
G03X173000000Y-77500000I-2000000J0D01*
G01*
M02*
