G04 #@! TF.FileFunction,Soldermask,Bot*
%FSLAX46Y46*%
G04 Gerber Fmt 4.6, Leading zero omitted, Abs format (unit mm)*
G04 Created by KiCad (PCBNEW 4.0.2-stable) date 8-9-2016 13:54:52*
%MOMM*%
G01*
G04 APERTURE LIST*
%ADD10C,0.100000*%
%ADD11C,0.150000*%
%ADD12C,0.002540*%
%ADD13R,2.000000X1.200000*%
%ADD14R,2.200000X1.400000*%
%ADD15O,1.299160X1.901140*%
%ADD16C,4.464000*%
%ADD17R,2.940000X2.940000*%
%ADD18C,2.940000*%
%ADD19R,2.599640X1.924000*%
%ADD20O,2.599640X1.924000*%
%ADD21C,1.900000*%
%ADD22C,2.200000*%
%ADD23R,1.700000X1.700000*%
%ADD24C,1.700000*%
%ADD25R,1.900000X1.650000*%
%ADD26R,1.924000X1.924000*%
%ADD27C,1.924000*%
%ADD28O,2.600000X1.900000*%
G04 APERTURE END LIST*
D10*
D11*
X129950000Y-101120000D02*
X129850000Y-101050000D01*
X130130000Y-101120000D02*
X129950000Y-101120000D01*
X130230000Y-101050000D02*
X130130000Y-101120000D01*
X130280000Y-100910000D02*
X130230000Y-101050000D01*
X130280000Y-100330000D02*
X130280000Y-100910000D01*
X130220000Y-100180000D02*
X130280000Y-100330000D01*
X130120000Y-100110000D02*
X130220000Y-100180000D01*
X129950000Y-100110000D02*
X130120000Y-100110000D01*
X129850000Y-100200000D02*
X129950000Y-100110000D01*
X129800000Y-100330000D02*
X129850000Y-100200000D01*
X129800000Y-100600000D02*
X129800000Y-100330000D01*
X130280000Y-100600000D02*
X129800000Y-100600000D01*
X130850000Y-100120000D02*
X130850000Y-101120000D01*
X130800000Y-100260000D02*
X130850000Y-100430000D01*
X130760000Y-100200000D02*
X130800000Y-100260000D01*
X130660000Y-100120000D02*
X130760000Y-100200000D01*
X130550000Y-100120000D02*
X130660000Y-100120000D01*
X132900000Y-100110000D02*
X132710000Y-101120000D01*
X132710000Y-101120000D02*
X132520000Y-100400000D01*
X132520000Y-100400000D02*
X132330000Y-101120000D01*
X132330000Y-101120000D02*
X132130000Y-100110000D01*
X133280000Y-101040000D02*
X133370000Y-101120000D01*
X133370000Y-101120000D02*
X133560000Y-101120000D01*
X133560000Y-101120000D02*
X133630000Y-101070000D01*
X133630000Y-101070000D02*
X133700000Y-100990000D01*
X133700000Y-100990000D02*
X133760000Y-100830000D01*
X133760000Y-100830000D02*
X133760000Y-100410000D01*
X133760000Y-100410000D02*
X133710000Y-100260000D01*
X133710000Y-100260000D02*
X133640000Y-100170000D01*
X133640000Y-100170000D02*
X133560000Y-100120000D01*
X133560000Y-100120000D02*
X133380000Y-100120000D01*
X133380000Y-100120000D02*
X133280000Y-100200000D01*
X133280000Y-99620000D02*
X133280000Y-101120000D01*
X134030000Y-100120000D02*
X134140000Y-100120000D01*
X134140000Y-100120000D02*
X134240000Y-100200000D01*
X134240000Y-100200000D02*
X134280000Y-100260000D01*
X134280000Y-100260000D02*
X134330000Y-100430000D01*
X134330000Y-100120000D02*
X134330000Y-101120000D01*
X131320000Y-100330000D02*
X131320000Y-101120000D01*
X131380000Y-100180000D02*
X131320000Y-100330000D01*
X131470000Y-100110000D02*
X131380000Y-100180000D01*
X131650000Y-100110000D02*
X131470000Y-100110000D01*
X131760000Y-100190000D02*
X131650000Y-100110000D01*
X131800000Y-100890000D02*
X131760000Y-101030000D01*
X131800000Y-100760000D02*
X131800000Y-100890000D01*
X131750000Y-100620000D02*
X131800000Y-100760000D01*
X131650000Y-100540000D02*
X131750000Y-100620000D01*
X131410000Y-100540000D02*
X131650000Y-100540000D01*
X131320000Y-100470000D02*
X131410000Y-100540000D01*
X131420000Y-101120000D02*
X131320000Y-101040000D01*
X131650000Y-101120000D02*
X131420000Y-101120000D01*
X131760000Y-101030000D02*
X131650000Y-101120000D01*
X135240000Y-101030000D02*
X135130000Y-101120000D01*
X135130000Y-101120000D02*
X134900000Y-101120000D01*
X134900000Y-101120000D02*
X134800000Y-101040000D01*
X134800000Y-100470000D02*
X134890000Y-100540000D01*
X134890000Y-100540000D02*
X135130000Y-100540000D01*
X135130000Y-100540000D02*
X135230000Y-100620000D01*
X135230000Y-100620000D02*
X135280000Y-100760000D01*
X135280000Y-100760000D02*
X135280000Y-100890000D01*
X135280000Y-100890000D02*
X135240000Y-101030000D01*
X135240000Y-100190000D02*
X135130000Y-100110000D01*
X135130000Y-100110000D02*
X134950000Y-100110000D01*
X134950000Y-100110000D02*
X134860000Y-100180000D01*
X134860000Y-100180000D02*
X134800000Y-100330000D01*
X134800000Y-100330000D02*
X134800000Y-101120000D01*
X136140000Y-101120000D02*
X136140000Y-99620000D01*
X136080000Y-100180000D02*
X136140000Y-100250000D01*
X136000000Y-100120000D02*
X136080000Y-100180000D01*
X135860000Y-100120000D02*
X136000000Y-100120000D01*
X135760000Y-100190000D02*
X135860000Y-100120000D01*
X135710000Y-100340000D02*
X135760000Y-100190000D01*
X135710000Y-101120000D02*
X135710000Y-100340000D01*
X137370000Y-101120000D02*
X137370000Y-100340000D01*
X137370000Y-100340000D02*
X137420000Y-100190000D01*
X137420000Y-100190000D02*
X137520000Y-100120000D01*
X137520000Y-100120000D02*
X137660000Y-100120000D01*
X137660000Y-100120000D02*
X137740000Y-100180000D01*
X137740000Y-100180000D02*
X137800000Y-100250000D01*
X137800000Y-100120000D02*
X137800000Y-101120000D01*
X138710000Y-100600000D02*
X138230000Y-100600000D01*
X138230000Y-100600000D02*
X138230000Y-100330000D01*
X138230000Y-100330000D02*
X138280000Y-100200000D01*
X138280000Y-100200000D02*
X138380000Y-100110000D01*
X138380000Y-100110000D02*
X138550000Y-100110000D01*
X138550000Y-100110000D02*
X138650000Y-100180000D01*
X138650000Y-100180000D02*
X138710000Y-100330000D01*
X138710000Y-100330000D02*
X138710000Y-100910000D01*
X138710000Y-100910000D02*
X138660000Y-101050000D01*
X138660000Y-101050000D02*
X138560000Y-101120000D01*
X138560000Y-101120000D02*
X138380000Y-101120000D01*
X138380000Y-101120000D02*
X138280000Y-101050000D01*
X139570000Y-100110000D02*
X139570000Y-101620000D01*
X139460000Y-100110000D02*
X139280000Y-100110000D01*
X139460000Y-101110000D02*
X139270000Y-101110000D01*
X139460000Y-100110000D02*
X139540000Y-100170000D01*
X139190000Y-100180000D02*
X139280000Y-100110000D01*
X139140000Y-100250000D02*
X139190000Y-100180000D01*
X139090000Y-100410000D02*
X139140000Y-100250000D01*
X139090000Y-100820000D02*
X139090000Y-100410000D01*
X139140000Y-100960000D02*
X139090000Y-100820000D01*
X139180000Y-101030000D02*
X139140000Y-100960000D01*
X139280000Y-101110000D02*
X139180000Y-101030000D01*
X139560000Y-101040000D02*
X139460000Y-101110000D01*
X140520000Y-100410000D02*
X140520000Y-100820000D01*
X140520000Y-100820000D02*
X140470000Y-100960000D01*
X140470000Y-100960000D02*
X140420000Y-101050000D01*
X140420000Y-101050000D02*
X140320000Y-101120000D01*
X140320000Y-101120000D02*
X140180000Y-101120000D01*
X140180000Y-101120000D02*
X140080000Y-101040000D01*
X140080000Y-101040000D02*
X140040000Y-100970000D01*
X140040000Y-100970000D02*
X139990000Y-100830000D01*
X139990000Y-100830000D02*
X139990000Y-100420000D01*
X139990000Y-100420000D02*
X140040000Y-100260000D01*
X140040000Y-100260000D02*
X140090000Y-100190000D01*
X140090000Y-100190000D02*
X140180000Y-100120000D01*
X140180000Y-100120000D02*
X140330000Y-100120000D01*
X140330000Y-100120000D02*
X140410000Y-100180000D01*
X140410000Y-100180000D02*
X140470000Y-100260000D01*
X140470000Y-100260000D02*
X140520000Y-100410000D01*
D12*
G36*
X138797280Y-99399880D02*
X138733780Y-99366860D01*
X138594080Y-99277960D01*
X138393420Y-99148420D01*
X138157200Y-98988400D01*
X137918440Y-98828380D01*
X137722860Y-98696300D01*
X137585700Y-98609940D01*
X137529820Y-98576920D01*
X137499340Y-98587080D01*
X137385040Y-98642960D01*
X137222480Y-98729320D01*
X137125960Y-98777580D01*
X136976100Y-98843620D01*
X136902440Y-98856320D01*
X136889740Y-98836000D01*
X136833860Y-98719160D01*
X136747500Y-98523580D01*
X136633200Y-98261960D01*
X136503660Y-97959700D01*
X136366500Y-97629500D01*
X136226800Y-97294220D01*
X136094720Y-96976720D01*
X135975340Y-96689700D01*
X135881360Y-96456020D01*
X135820400Y-96293460D01*
X135797540Y-96222340D01*
X135805160Y-96207100D01*
X135878820Y-96135980D01*
X136010900Y-96036920D01*
X136295380Y-95805780D01*
X136574780Y-95455260D01*
X136744960Y-95059020D01*
X136803380Y-94617060D01*
X136755120Y-94208120D01*
X136592560Y-93814420D01*
X136318240Y-93461360D01*
X135985500Y-93197200D01*
X135596880Y-93032100D01*
X135160000Y-92976220D01*
X134740900Y-93024480D01*
X134339580Y-93181960D01*
X133986520Y-93451200D01*
X133836660Y-93623920D01*
X133630920Y-93982060D01*
X133514080Y-94368140D01*
X133501380Y-94464660D01*
X133519160Y-94886300D01*
X133643620Y-95290160D01*
X133864600Y-95650840D01*
X134174480Y-95948020D01*
X134212580Y-95975960D01*
X134357360Y-96082640D01*
X134451340Y-96156300D01*
X134527540Y-96217260D01*
X133991600Y-97510120D01*
X133905240Y-97715860D01*
X133757920Y-98066380D01*
X133628380Y-98371180D01*
X133524240Y-98615020D01*
X133453120Y-98775040D01*
X133422640Y-98841080D01*
X133417560Y-98843620D01*
X133371840Y-98851240D01*
X133272780Y-98815680D01*
X133092440Y-98729320D01*
X132973060Y-98668360D01*
X132835900Y-98602320D01*
X132774940Y-98576920D01*
X132721600Y-98604860D01*
X132589520Y-98691220D01*
X132399020Y-98820760D01*
X132167880Y-98975700D01*
X131946900Y-99125560D01*
X131743700Y-99260180D01*
X131596380Y-99354160D01*
X131525260Y-99392260D01*
X131515100Y-99392260D01*
X131451600Y-99356700D01*
X131334760Y-99260180D01*
X131159500Y-99092540D01*
X130910580Y-98848700D01*
X130872480Y-98810600D01*
X130666740Y-98602320D01*
X130501640Y-98427060D01*
X130389880Y-98302600D01*
X130349240Y-98246720D01*
X130349240Y-98246720D01*
X130387340Y-98175600D01*
X130478780Y-98028280D01*
X130613400Y-97825080D01*
X130775960Y-97583780D01*
X131205220Y-96964020D01*
X130969000Y-96377280D01*
X130897880Y-96196940D01*
X130806440Y-95978500D01*
X130737860Y-95823560D01*
X130702300Y-95754980D01*
X130638800Y-95732120D01*
X130478780Y-95694020D01*
X130245100Y-95645760D01*
X129968240Y-95594960D01*
X129704080Y-95546700D01*
X129465320Y-95500980D01*
X129292600Y-95467960D01*
X129213860Y-95452720D01*
X129196080Y-95440020D01*
X129180840Y-95401920D01*
X129170680Y-95320640D01*
X129165600Y-95175860D01*
X129160520Y-94947260D01*
X129160520Y-94617060D01*
X129160520Y-94581500D01*
X129165600Y-94266540D01*
X129170680Y-94015080D01*
X129178300Y-93849980D01*
X129191000Y-93783940D01*
X129191000Y-93783940D01*
X129264660Y-93766160D01*
X129434840Y-93730600D01*
X129673600Y-93682340D01*
X129958080Y-93629000D01*
X129975860Y-93626460D01*
X130260340Y-93570580D01*
X130496560Y-93522320D01*
X130664200Y-93484220D01*
X130732780Y-93461360D01*
X130748020Y-93441040D01*
X130806440Y-93329280D01*
X130887720Y-93154020D01*
X130981700Y-92940660D01*
X131073140Y-92717140D01*
X131154420Y-92516480D01*
X131207760Y-92366620D01*
X131223000Y-92298040D01*
X131223000Y-92298040D01*
X131179820Y-92229460D01*
X131083300Y-92082140D01*
X130943600Y-91878940D01*
X130778500Y-91637640D01*
X130765800Y-91617320D01*
X130603240Y-91378560D01*
X130471160Y-91175360D01*
X130382260Y-91030580D01*
X130349240Y-90967080D01*
X130349240Y-90962000D01*
X130405120Y-90890880D01*
X130527040Y-90753720D01*
X130702300Y-90570840D01*
X130910580Y-90360020D01*
X130979160Y-90293980D01*
X131210300Y-90065380D01*
X131372860Y-89918060D01*
X131474460Y-89836780D01*
X131522720Y-89819000D01*
X131525260Y-89821540D01*
X131596380Y-89864720D01*
X131748780Y-89963780D01*
X131954520Y-90103480D01*
X132198360Y-90268580D01*
X132213600Y-90278740D01*
X132454900Y-90441300D01*
X132653020Y-90578460D01*
X132795260Y-90672440D01*
X132858760Y-90708000D01*
X132868920Y-90708000D01*
X132965440Y-90680060D01*
X133135620Y-90621640D01*
X133346440Y-90540360D01*
X133567420Y-90451460D01*
X133770620Y-90365100D01*
X133920480Y-90296520D01*
X133991600Y-90255880D01*
X133994140Y-90253340D01*
X134019540Y-90166980D01*
X134060180Y-89986640D01*
X134113520Y-89740260D01*
X134166860Y-89445620D01*
X134177020Y-89399900D01*
X134230360Y-89112880D01*
X134276080Y-88876660D01*
X134311640Y-88714100D01*
X134326880Y-88645520D01*
X134367520Y-88637900D01*
X134507220Y-88627740D01*
X134720580Y-88620120D01*
X134979660Y-88617580D01*
X135251440Y-88620120D01*
X135515600Y-88625200D01*
X135741660Y-88632820D01*
X135904220Y-88645520D01*
X135972800Y-88658220D01*
X135975340Y-88663300D01*
X135998200Y-88752200D01*
X136038840Y-88930000D01*
X136089640Y-89178920D01*
X136145520Y-89473560D01*
X136155680Y-89526900D01*
X136209020Y-89811380D01*
X136257280Y-90045060D01*
X136292840Y-90205080D01*
X136310620Y-90268580D01*
X136336020Y-90281280D01*
X136452860Y-90334620D01*
X136643360Y-90413360D01*
X136882120Y-90509880D01*
X137430760Y-90730860D01*
X138103860Y-90268580D01*
X138164820Y-90227940D01*
X138408660Y-90062840D01*
X138606780Y-89930760D01*
X138746480Y-89841860D01*
X138802360Y-89808840D01*
X138807440Y-89811380D01*
X138876020Y-89869800D01*
X139008100Y-89994260D01*
X139190980Y-90172060D01*
X139401800Y-90382880D01*
X139559280Y-90540360D01*
X139744700Y-90728320D01*
X139861540Y-90855320D01*
X139927580Y-90936600D01*
X139950440Y-90987400D01*
X139942820Y-91020420D01*
X139899640Y-91089000D01*
X139800580Y-91236320D01*
X139663420Y-91442060D01*
X139498320Y-91678280D01*
X139363700Y-91878940D01*
X139216380Y-92105000D01*
X139122400Y-92265020D01*
X139089380Y-92343760D01*
X139097000Y-92376780D01*
X139145260Y-92508860D01*
X139224000Y-92709520D01*
X139325600Y-92945740D01*
X139559280Y-93479140D01*
X139909800Y-93545180D01*
X140120620Y-93585820D01*
X140417800Y-93644240D01*
X140702280Y-93697580D01*
X141144240Y-93783940D01*
X141159480Y-95409540D01*
X141090900Y-95440020D01*
X141024860Y-95457800D01*
X140862300Y-95493360D01*
X140628620Y-95539080D01*
X140351760Y-95592420D01*
X140115540Y-95635600D01*
X139879320Y-95681320D01*
X139709140Y-95714340D01*
X139632940Y-95729580D01*
X139615160Y-95754980D01*
X139554200Y-95871820D01*
X139470380Y-96052160D01*
X139376400Y-96273140D01*
X139282420Y-96499200D01*
X139198600Y-96710020D01*
X139140180Y-96870040D01*
X139117320Y-96953860D01*
X139150340Y-97014820D01*
X139239240Y-97154520D01*
X139371320Y-97352640D01*
X139531340Y-97588860D01*
X139693900Y-97825080D01*
X139828520Y-98025740D01*
X139925040Y-98170520D01*
X139963140Y-98236560D01*
X139942820Y-98282280D01*
X139848840Y-98396580D01*
X139671040Y-98579460D01*
X139406880Y-98841080D01*
X139363700Y-98884260D01*
X139152880Y-99084920D01*
X138975080Y-99250020D01*
X138853160Y-99359240D01*
X138797280Y-99399880D01*
X138797280Y-99399880D01*
G37*
X138797280Y-99399880D02*
X138733780Y-99366860D01*
X138594080Y-99277960D01*
X138393420Y-99148420D01*
X138157200Y-98988400D01*
X137918440Y-98828380D01*
X137722860Y-98696300D01*
X137585700Y-98609940D01*
X137529820Y-98576920D01*
X137499340Y-98587080D01*
X137385040Y-98642960D01*
X137222480Y-98729320D01*
X137125960Y-98777580D01*
X136976100Y-98843620D01*
X136902440Y-98856320D01*
X136889740Y-98836000D01*
X136833860Y-98719160D01*
X136747500Y-98523580D01*
X136633200Y-98261960D01*
X136503660Y-97959700D01*
X136366500Y-97629500D01*
X136226800Y-97294220D01*
X136094720Y-96976720D01*
X135975340Y-96689700D01*
X135881360Y-96456020D01*
X135820400Y-96293460D01*
X135797540Y-96222340D01*
X135805160Y-96207100D01*
X135878820Y-96135980D01*
X136010900Y-96036920D01*
X136295380Y-95805780D01*
X136574780Y-95455260D01*
X136744960Y-95059020D01*
X136803380Y-94617060D01*
X136755120Y-94208120D01*
X136592560Y-93814420D01*
X136318240Y-93461360D01*
X135985500Y-93197200D01*
X135596880Y-93032100D01*
X135160000Y-92976220D01*
X134740900Y-93024480D01*
X134339580Y-93181960D01*
X133986520Y-93451200D01*
X133836660Y-93623920D01*
X133630920Y-93982060D01*
X133514080Y-94368140D01*
X133501380Y-94464660D01*
X133519160Y-94886300D01*
X133643620Y-95290160D01*
X133864600Y-95650840D01*
X134174480Y-95948020D01*
X134212580Y-95975960D01*
X134357360Y-96082640D01*
X134451340Y-96156300D01*
X134527540Y-96217260D01*
X133991600Y-97510120D01*
X133905240Y-97715860D01*
X133757920Y-98066380D01*
X133628380Y-98371180D01*
X133524240Y-98615020D01*
X133453120Y-98775040D01*
X133422640Y-98841080D01*
X133417560Y-98843620D01*
X133371840Y-98851240D01*
X133272780Y-98815680D01*
X133092440Y-98729320D01*
X132973060Y-98668360D01*
X132835900Y-98602320D01*
X132774940Y-98576920D01*
X132721600Y-98604860D01*
X132589520Y-98691220D01*
X132399020Y-98820760D01*
X132167880Y-98975700D01*
X131946900Y-99125560D01*
X131743700Y-99260180D01*
X131596380Y-99354160D01*
X131525260Y-99392260D01*
X131515100Y-99392260D01*
X131451600Y-99356700D01*
X131334760Y-99260180D01*
X131159500Y-99092540D01*
X130910580Y-98848700D01*
X130872480Y-98810600D01*
X130666740Y-98602320D01*
X130501640Y-98427060D01*
X130389880Y-98302600D01*
X130349240Y-98246720D01*
X130349240Y-98246720D01*
X130387340Y-98175600D01*
X130478780Y-98028280D01*
X130613400Y-97825080D01*
X130775960Y-97583780D01*
X131205220Y-96964020D01*
X130969000Y-96377280D01*
X130897880Y-96196940D01*
X130806440Y-95978500D01*
X130737860Y-95823560D01*
X130702300Y-95754980D01*
X130638800Y-95732120D01*
X130478780Y-95694020D01*
X130245100Y-95645760D01*
X129968240Y-95594960D01*
X129704080Y-95546700D01*
X129465320Y-95500980D01*
X129292600Y-95467960D01*
X129213860Y-95452720D01*
X129196080Y-95440020D01*
X129180840Y-95401920D01*
X129170680Y-95320640D01*
X129165600Y-95175860D01*
X129160520Y-94947260D01*
X129160520Y-94617060D01*
X129160520Y-94581500D01*
X129165600Y-94266540D01*
X129170680Y-94015080D01*
X129178300Y-93849980D01*
X129191000Y-93783940D01*
X129191000Y-93783940D01*
X129264660Y-93766160D01*
X129434840Y-93730600D01*
X129673600Y-93682340D01*
X129958080Y-93629000D01*
X129975860Y-93626460D01*
X130260340Y-93570580D01*
X130496560Y-93522320D01*
X130664200Y-93484220D01*
X130732780Y-93461360D01*
X130748020Y-93441040D01*
X130806440Y-93329280D01*
X130887720Y-93154020D01*
X130981700Y-92940660D01*
X131073140Y-92717140D01*
X131154420Y-92516480D01*
X131207760Y-92366620D01*
X131223000Y-92298040D01*
X131223000Y-92298040D01*
X131179820Y-92229460D01*
X131083300Y-92082140D01*
X130943600Y-91878940D01*
X130778500Y-91637640D01*
X130765800Y-91617320D01*
X130603240Y-91378560D01*
X130471160Y-91175360D01*
X130382260Y-91030580D01*
X130349240Y-90967080D01*
X130349240Y-90962000D01*
X130405120Y-90890880D01*
X130527040Y-90753720D01*
X130702300Y-90570840D01*
X130910580Y-90360020D01*
X130979160Y-90293980D01*
X131210300Y-90065380D01*
X131372860Y-89918060D01*
X131474460Y-89836780D01*
X131522720Y-89819000D01*
X131525260Y-89821540D01*
X131596380Y-89864720D01*
X131748780Y-89963780D01*
X131954520Y-90103480D01*
X132198360Y-90268580D01*
X132213600Y-90278740D01*
X132454900Y-90441300D01*
X132653020Y-90578460D01*
X132795260Y-90672440D01*
X132858760Y-90708000D01*
X132868920Y-90708000D01*
X132965440Y-90680060D01*
X133135620Y-90621640D01*
X133346440Y-90540360D01*
X133567420Y-90451460D01*
X133770620Y-90365100D01*
X133920480Y-90296520D01*
X133991600Y-90255880D01*
X133994140Y-90253340D01*
X134019540Y-90166980D01*
X134060180Y-89986640D01*
X134113520Y-89740260D01*
X134166860Y-89445620D01*
X134177020Y-89399900D01*
X134230360Y-89112880D01*
X134276080Y-88876660D01*
X134311640Y-88714100D01*
X134326880Y-88645520D01*
X134367520Y-88637900D01*
X134507220Y-88627740D01*
X134720580Y-88620120D01*
X134979660Y-88617580D01*
X135251440Y-88620120D01*
X135515600Y-88625200D01*
X135741660Y-88632820D01*
X135904220Y-88645520D01*
X135972800Y-88658220D01*
X135975340Y-88663300D01*
X135998200Y-88752200D01*
X136038840Y-88930000D01*
X136089640Y-89178920D01*
X136145520Y-89473560D01*
X136155680Y-89526900D01*
X136209020Y-89811380D01*
X136257280Y-90045060D01*
X136292840Y-90205080D01*
X136310620Y-90268580D01*
X136336020Y-90281280D01*
X136452860Y-90334620D01*
X136643360Y-90413360D01*
X136882120Y-90509880D01*
X137430760Y-90730860D01*
X138103860Y-90268580D01*
X138164820Y-90227940D01*
X138408660Y-90062840D01*
X138606780Y-89930760D01*
X138746480Y-89841860D01*
X138802360Y-89808840D01*
X138807440Y-89811380D01*
X138876020Y-89869800D01*
X139008100Y-89994260D01*
X139190980Y-90172060D01*
X139401800Y-90382880D01*
X139559280Y-90540360D01*
X139744700Y-90728320D01*
X139861540Y-90855320D01*
X139927580Y-90936600D01*
X139950440Y-90987400D01*
X139942820Y-91020420D01*
X139899640Y-91089000D01*
X139800580Y-91236320D01*
X139663420Y-91442060D01*
X139498320Y-91678280D01*
X139363700Y-91878940D01*
X139216380Y-92105000D01*
X139122400Y-92265020D01*
X139089380Y-92343760D01*
X139097000Y-92376780D01*
X139145260Y-92508860D01*
X139224000Y-92709520D01*
X139325600Y-92945740D01*
X139559280Y-93479140D01*
X139909800Y-93545180D01*
X140120620Y-93585820D01*
X140417800Y-93644240D01*
X140702280Y-93697580D01*
X141144240Y-93783940D01*
X141159480Y-95409540D01*
X141090900Y-95440020D01*
X141024860Y-95457800D01*
X140862300Y-95493360D01*
X140628620Y-95539080D01*
X140351760Y-95592420D01*
X140115540Y-95635600D01*
X139879320Y-95681320D01*
X139709140Y-95714340D01*
X139632940Y-95729580D01*
X139615160Y-95754980D01*
X139554200Y-95871820D01*
X139470380Y-96052160D01*
X139376400Y-96273140D01*
X139282420Y-96499200D01*
X139198600Y-96710020D01*
X139140180Y-96870040D01*
X139117320Y-96953860D01*
X139150340Y-97014820D01*
X139239240Y-97154520D01*
X139371320Y-97352640D01*
X139531340Y-97588860D01*
X139693900Y-97825080D01*
X139828520Y-98025740D01*
X139925040Y-98170520D01*
X139963140Y-98236560D01*
X139942820Y-98282280D01*
X139848840Y-98396580D01*
X139671040Y-98579460D01*
X139406880Y-98841080D01*
X139363700Y-98884260D01*
X139152880Y-99084920D01*
X138975080Y-99250020D01*
X138853160Y-99359240D01*
X138797280Y-99399880D01*
D13*
X171755000Y-116180000D03*
X171755000Y-114680000D03*
D14*
X171755000Y-125180000D03*
D15*
X163735000Y-101630000D03*
X165005000Y-101630000D03*
X162465000Y-101630000D03*
D16*
X172000000Y-102500000D03*
X148000000Y-124500000D03*
X148000000Y-80500000D03*
D17*
X128175000Y-119410000D03*
D18*
X133255000Y-119410000D03*
X138335000Y-119410000D03*
D19*
X159925000Y-120045000D03*
D20*
X159925000Y-122585000D03*
X159925000Y-125125000D03*
D19*
X155480000Y-117505000D03*
D20*
X155480000Y-120045000D03*
X155480000Y-122585000D03*
X155480000Y-125125000D03*
D19*
X164370000Y-122585000D03*
D20*
X164370000Y-125125000D03*
D21*
X146717000Y-113060000D03*
X146717000Y-105440000D03*
X146717000Y-95280000D03*
X146717000Y-92740000D03*
D22*
X129300000Y-112000000D03*
X139900000Y-112000000D03*
X138600000Y-80800000D03*
X130600000Y-80800000D03*
X132100000Y-111100000D03*
X137100000Y-111100000D03*
X126900000Y-81700000D03*
X142300000Y-81700000D03*
D23*
X165005000Y-95280000D03*
D24*
X162505000Y-95280000D03*
D25*
X162485000Y-105440000D03*
X164985000Y-105440000D03*
D26*
X160560000Y-111790000D03*
D27*
X160560000Y-109250000D03*
X163100000Y-111790000D03*
X163100000Y-109250000D03*
X165640000Y-111790000D03*
X165640000Y-109250000D03*
X168180000Y-111790000D03*
X168180000Y-109250000D03*
D28*
X156750000Y-94010000D03*
X156750000Y-91470000D03*
X156750000Y-88930000D03*
X156750000Y-86390000D03*
X156750000Y-83850000D03*
X156750000Y-81310000D03*
X156750000Y-96550000D03*
X156750000Y-99090000D03*
X156750000Y-101630000D03*
X156750000Y-104170000D03*
X156750000Y-106710000D03*
X156750000Y-109250000D03*
X152650000Y-91470000D03*
X152650000Y-94010000D03*
X152650000Y-96550000D03*
M02*
