M48
;DRILL file {KiCad 4.0.2-stable} date 8-9-2016 14:03:17
;FORMAT={-:-/ absolute / metric / decimal}
FMAT,2
METRIC,TZ
T1C0.400
T2C0.600
T3C0.800
T4C0.900
T5C1.000
T6C1.001
T7C1.016
T8C1.524
T9C3.048
%
G90
G05
M71
T1
X170.72Y-81.945
T2
X162.465Y-101.63
X163.735Y-101.63
X165.005Y-101.63
T3
X162.505Y-95.28
X165.005Y-95.28
X171.755Y-114.68
X171.755Y-116.18
X171.755Y-125.18
T4
X152.65Y-91.47
X152.65Y-94.01
X152.65Y-96.55
X156.75Y-81.31
X156.75Y-83.85
X156.75Y-86.39
X156.75Y-88.93
X156.75Y-91.47
X156.75Y-94.01
X156.75Y-96.55
X156.75Y-99.09
X156.75Y-101.63
X156.75Y-104.17
X156.75Y-106.71
X156.75Y-109.25
T5
X126.9Y-81.7
X129.3Y-112.
X130.6Y-80.8
X132.1Y-111.1
X137.1Y-111.1
X138.6Y-80.8
X139.9Y-112.
X142.3Y-81.7
X146.717Y-92.74
X146.717Y-95.28
X146.717Y-105.44
X146.717Y-113.06
T6
X155.48Y-117.505
X155.48Y-120.045
X155.48Y-122.585
X155.48Y-125.125
X159.925Y-120.045
X159.925Y-122.585
X159.925Y-125.125
X164.37Y-122.585
X164.37Y-125.125
T7
X160.56Y-109.25
X160.56Y-111.79
X163.1Y-109.25
X163.1Y-111.79
X165.64Y-109.25
X165.64Y-111.79
X168.18Y-109.25
X168.18Y-111.79
T8
X128.175Y-119.41
X133.255Y-119.41
X138.335Y-119.41
T9
X148.Y-80.5
X148.Y-124.5
X172.Y-102.5
T0
M30
