G04 #@! TF.FileFunction,Legend,Bot*
%FSLAX46Y46*%
G04 Gerber Fmt 4.6, Leading zero omitted, Abs format (unit mm)*
G04 Created by KiCad (PCBNEW 4.0.2-stable) date 8-9-2016 14:05:21*
%MOMM*%
G01*
G04 APERTURE LIST*
%ADD10C,0.100000*%
%ADD11C,0.300000*%
%ADD12C,0.150000*%
G04 APERTURE END LIST*
D10*
D11*
X146010714Y-85303571D02*
X146510714Y-84589286D01*
X146867857Y-85303571D02*
X146867857Y-83803571D01*
X146296429Y-83803571D01*
X146153571Y-83875000D01*
X146082143Y-83946429D01*
X146010714Y-84089286D01*
X146010714Y-84303571D01*
X146082143Y-84446429D01*
X146153571Y-84517857D01*
X146296429Y-84589286D01*
X146867857Y-84589286D01*
X144796429Y-85232143D02*
X144939286Y-85303571D01*
X145225000Y-85303571D01*
X145367857Y-85232143D01*
X145439286Y-85089286D01*
X145439286Y-84517857D01*
X145367857Y-84375000D01*
X145225000Y-84303571D01*
X144939286Y-84303571D01*
X144796429Y-84375000D01*
X144725000Y-84517857D01*
X144725000Y-84660714D01*
X145439286Y-84803571D01*
X144296429Y-84303571D02*
X143725000Y-84303571D01*
X144082143Y-83803571D02*
X144082143Y-85089286D01*
X144010715Y-85232143D01*
X143867857Y-85303571D01*
X143725000Y-85303571D01*
X143225000Y-85303571D02*
X143225000Y-84303571D01*
X143225000Y-84589286D02*
X143153572Y-84446429D01*
X143082143Y-84375000D01*
X142939286Y-84303571D01*
X142796429Y-84303571D01*
X142082143Y-85303571D02*
X142225001Y-85232143D01*
X142296429Y-85160714D01*
X142367858Y-85017857D01*
X142367858Y-84589286D01*
X142296429Y-84446429D01*
X142225001Y-84375000D01*
X142082143Y-84303571D01*
X141867858Y-84303571D01*
X141725001Y-84375000D01*
X141653572Y-84446429D01*
X141582143Y-84589286D01*
X141582143Y-85017857D01*
X141653572Y-85160714D01*
X141725001Y-85232143D01*
X141867858Y-85303571D01*
X142082143Y-85303571D01*
X141153572Y-83803571D02*
X140296429Y-83803571D01*
X140725000Y-85303571D02*
X140725000Y-83803571D01*
X139082143Y-85303571D02*
X139796429Y-85303571D01*
X139796429Y-83803571D01*
X137439286Y-85303571D02*
X137439286Y-83803571D01*
X137082143Y-83803571D01*
X136867858Y-83875000D01*
X136725000Y-84017857D01*
X136653572Y-84160714D01*
X136582143Y-84446429D01*
X136582143Y-84660714D01*
X136653572Y-84946429D01*
X136725000Y-85089286D01*
X136867858Y-85232143D01*
X137082143Y-85303571D01*
X137439286Y-85303571D01*
X135939286Y-85303571D02*
X135939286Y-84303571D01*
X135939286Y-83803571D02*
X136010715Y-83875000D01*
X135939286Y-83946429D01*
X135867858Y-83875000D01*
X135939286Y-83803571D01*
X135939286Y-83946429D01*
X135225000Y-85303571D02*
X135225000Y-84303571D01*
X135225000Y-84446429D02*
X135153572Y-84375000D01*
X135010714Y-84303571D01*
X134796429Y-84303571D01*
X134653572Y-84375000D01*
X134582143Y-84517857D01*
X134582143Y-85303571D01*
X134582143Y-84517857D02*
X134510714Y-84375000D01*
X134367857Y-84303571D01*
X134153572Y-84303571D01*
X134010714Y-84375000D01*
X133939286Y-84517857D01*
X133939286Y-85303571D01*
X133225000Y-85303571D02*
X133225000Y-84303571D01*
X133225000Y-84446429D02*
X133153572Y-84375000D01*
X133010714Y-84303571D01*
X132796429Y-84303571D01*
X132653572Y-84375000D01*
X132582143Y-84517857D01*
X132582143Y-85303571D01*
X132582143Y-84517857D02*
X132510714Y-84375000D01*
X132367857Y-84303571D01*
X132153572Y-84303571D01*
X132010714Y-84375000D01*
X131939286Y-84517857D01*
X131939286Y-85303571D01*
X130653572Y-85232143D02*
X130796429Y-85303571D01*
X131082143Y-85303571D01*
X131225000Y-85232143D01*
X131296429Y-85089286D01*
X131296429Y-84517857D01*
X131225000Y-84375000D01*
X131082143Y-84303571D01*
X130796429Y-84303571D01*
X130653572Y-84375000D01*
X130582143Y-84517857D01*
X130582143Y-84660714D01*
X131296429Y-84803571D01*
X129939286Y-85303571D02*
X129939286Y-84303571D01*
X129939286Y-84589286D02*
X129867858Y-84446429D01*
X129796429Y-84375000D01*
X129653572Y-84303571D01*
X129510715Y-84303571D01*
X128010715Y-84303571D02*
X127653572Y-85303571D01*
X127296430Y-84303571D01*
X126796430Y-83946429D02*
X126725001Y-83875000D01*
X126582144Y-83803571D01*
X126225001Y-83803571D01*
X126082144Y-83875000D01*
X126010715Y-83946429D01*
X125939287Y-84089286D01*
X125939287Y-84232143D01*
X126010715Y-84446429D01*
X126867858Y-85303571D01*
X125939287Y-85303571D01*
X147082143Y-86203571D02*
X146225000Y-86203571D01*
X146653571Y-87703571D02*
X146653571Y-86203571D01*
X145725000Y-87703571D02*
X145725000Y-86703571D01*
X145725000Y-86203571D02*
X145796429Y-86275000D01*
X145725000Y-86346429D01*
X145653572Y-86275000D01*
X145725000Y-86203571D01*
X145725000Y-86346429D01*
X145010714Y-87703571D02*
X145010714Y-86703571D01*
X145010714Y-86846429D02*
X144939286Y-86775000D01*
X144796428Y-86703571D01*
X144582143Y-86703571D01*
X144439286Y-86775000D01*
X144367857Y-86917857D01*
X144367857Y-87703571D01*
X144367857Y-86917857D02*
X144296428Y-86775000D01*
X144153571Y-86703571D01*
X143939286Y-86703571D01*
X143796428Y-86775000D01*
X143725000Y-86917857D01*
X143725000Y-87703571D01*
X142796428Y-87703571D02*
X142939286Y-87632143D01*
X143010714Y-87560714D01*
X143082143Y-87417857D01*
X143082143Y-86989286D01*
X143010714Y-86846429D01*
X142939286Y-86775000D01*
X142796428Y-86703571D01*
X142582143Y-86703571D01*
X142439286Y-86775000D01*
X142367857Y-86846429D01*
X142296428Y-86989286D01*
X142296428Y-87417857D01*
X142367857Y-87560714D01*
X142439286Y-87632143D01*
X142582143Y-87703571D01*
X142796428Y-87703571D01*
X140510714Y-86917857D02*
X140010714Y-86917857D01*
X139796428Y-87703571D02*
X140510714Y-87703571D01*
X140510714Y-86203571D01*
X139796428Y-86203571D01*
X139153571Y-86703571D02*
X139153571Y-87703571D01*
X139153571Y-86846429D02*
X139082143Y-86775000D01*
X138939285Y-86703571D01*
X138725000Y-86703571D01*
X138582143Y-86775000D01*
X138510714Y-86917857D01*
X138510714Y-87703571D01*
X137153571Y-86703571D02*
X137153571Y-87917857D01*
X137225000Y-88060714D01*
X137296428Y-88132143D01*
X137439285Y-88203571D01*
X137653571Y-88203571D01*
X137796428Y-88132143D01*
X137153571Y-87632143D02*
X137296428Y-87703571D01*
X137582142Y-87703571D01*
X137725000Y-87632143D01*
X137796428Y-87560714D01*
X137867857Y-87417857D01*
X137867857Y-86989286D01*
X137796428Y-86846429D01*
X137725000Y-86775000D01*
X137582142Y-86703571D01*
X137296428Y-86703571D01*
X137153571Y-86775000D01*
X135867857Y-87632143D02*
X136010714Y-87703571D01*
X136296428Y-87703571D01*
X136439285Y-87632143D01*
X136510714Y-87489286D01*
X136510714Y-86917857D01*
X136439285Y-86775000D01*
X136296428Y-86703571D01*
X136010714Y-86703571D01*
X135867857Y-86775000D01*
X135796428Y-86917857D01*
X135796428Y-87060714D01*
X136510714Y-87203571D01*
X134939285Y-87703571D02*
X135082143Y-87632143D01*
X135153571Y-87489286D01*
X135153571Y-86203571D01*
X133725000Y-86703571D02*
X133725000Y-87917857D01*
X133796429Y-88060714D01*
X133867857Y-88132143D01*
X134010714Y-88203571D01*
X134225000Y-88203571D01*
X134367857Y-88132143D01*
X133725000Y-87632143D02*
X133867857Y-87703571D01*
X134153571Y-87703571D01*
X134296429Y-87632143D01*
X134367857Y-87560714D01*
X134439286Y-87417857D01*
X134439286Y-86989286D01*
X134367857Y-86846429D01*
X134296429Y-86775000D01*
X134153571Y-86703571D01*
X133867857Y-86703571D01*
X133725000Y-86775000D01*
X132439286Y-87632143D02*
X132582143Y-87703571D01*
X132867857Y-87703571D01*
X133010714Y-87632143D01*
X133082143Y-87489286D01*
X133082143Y-86917857D01*
X133010714Y-86775000D01*
X132867857Y-86703571D01*
X132582143Y-86703571D01*
X132439286Y-86775000D01*
X132367857Y-86917857D01*
X132367857Y-87060714D01*
X133082143Y-87203571D01*
X131153572Y-87632143D02*
X131296429Y-87703571D01*
X131582143Y-87703571D01*
X131725000Y-87632143D01*
X131796429Y-87489286D01*
X131796429Y-86917857D01*
X131725000Y-86775000D01*
X131582143Y-86703571D01*
X131296429Y-86703571D01*
X131153572Y-86775000D01*
X131082143Y-86917857D01*
X131082143Y-87060714D01*
X131796429Y-87203571D01*
X130439286Y-87703571D02*
X130439286Y-86703571D01*
X130439286Y-86989286D02*
X130367858Y-86846429D01*
X130296429Y-86775000D01*
X130153572Y-86703571D01*
X130010715Y-86703571D01*
X146939286Y-88746429D02*
X146867857Y-88675000D01*
X146725000Y-88603571D01*
X146367857Y-88603571D01*
X146225000Y-88675000D01*
X146153571Y-88746429D01*
X146082143Y-88889286D01*
X146082143Y-89032143D01*
X146153571Y-89246429D01*
X147010714Y-90103571D01*
X146082143Y-90103571D01*
X145153572Y-88603571D02*
X145010715Y-88603571D01*
X144867858Y-88675000D01*
X144796429Y-88746429D01*
X144725000Y-88889286D01*
X144653572Y-89175000D01*
X144653572Y-89532143D01*
X144725000Y-89817857D01*
X144796429Y-89960714D01*
X144867858Y-90032143D01*
X145010715Y-90103571D01*
X145153572Y-90103571D01*
X145296429Y-90032143D01*
X145367858Y-89960714D01*
X145439286Y-89817857D01*
X145510715Y-89532143D01*
X145510715Y-89175000D01*
X145439286Y-88889286D01*
X145367858Y-88746429D01*
X145296429Y-88675000D01*
X145153572Y-88603571D01*
X143225001Y-90103571D02*
X144082144Y-90103571D01*
X143653572Y-90103571D02*
X143653572Y-88603571D01*
X143796429Y-88817857D01*
X143939287Y-88960714D01*
X144082144Y-89032143D01*
X141939287Y-88603571D02*
X142225001Y-88603571D01*
X142367858Y-88675000D01*
X142439287Y-88746429D01*
X142582144Y-88960714D01*
X142653573Y-89246429D01*
X142653573Y-89817857D01*
X142582144Y-89960714D01*
X142510716Y-90032143D01*
X142367858Y-90103571D01*
X142082144Y-90103571D01*
X141939287Y-90032143D01*
X141867858Y-89960714D01*
X141796430Y-89817857D01*
X141796430Y-89460714D01*
X141867858Y-89317857D01*
X141939287Y-89246429D01*
X142082144Y-89175000D01*
X142367858Y-89175000D01*
X142510716Y-89246429D01*
X142582144Y-89317857D01*
X142653573Y-89460714D01*
D12*
X164235000Y-106290000D02*
X163235000Y-106290000D01*
X163235000Y-104590000D02*
X164235000Y-104590000D01*
X167076666Y-105797143D02*
X167124285Y-105844762D01*
X167267142Y-105892381D01*
X167362380Y-105892381D01*
X167505238Y-105844762D01*
X167600476Y-105749524D01*
X167648095Y-105654286D01*
X167695714Y-105463810D01*
X167695714Y-105320952D01*
X167648095Y-105130476D01*
X167600476Y-105035238D01*
X167505238Y-104940000D01*
X167362380Y-104892381D01*
X167267142Y-104892381D01*
X167124285Y-104940000D01*
X167076666Y-104987619D01*
X166219523Y-105225714D02*
X166219523Y-105892381D01*
X166457619Y-104844762D02*
X166695714Y-105559048D01*
X166076666Y-105559048D01*
M02*
