G04 #@! TF.FileFunction,Copper,L1,Top,Signal*
%FSLAX46Y46*%
G04 Gerber Fmt 4.6, Leading zero omitted, Abs format (unit mm)*
G04 Created by KiCad (PCBNEW 4.0.1-stable) date 8-3-2016 22:19:15*
%MOMM*%
G01*
G04 APERTURE LIST*
%ADD10C,0.100000*%
%ADD11C,1.800000*%
%ADD12C,4.064000*%
%ADD13R,1.500000X1.250000*%
%ADD14R,2.540000X2.540000*%
%ADD15C,2.540000*%
%ADD16R,2.199640X1.524000*%
%ADD17O,2.199640X1.524000*%
%ADD18R,1.300000X1.500000*%
%ADD19R,1.500000X1.300000*%
%ADD20R,1.143000X0.508000*%
%ADD21O,2.197100X1.524000*%
%ADD22C,1.500000*%
%ADD23R,1.400000X1.000000*%
%ADD24C,0.600000*%
%ADD25C,0.250000*%
%ADD26C,0.500000*%
%ADD27C,1.000000*%
%ADD28C,0.254000*%
G04 APERTURE END LIST*
D10*
D11*
X129300000Y-112000000D03*
X139900000Y-112000000D03*
X138600000Y-80800000D03*
X130600000Y-80800000D03*
D12*
X172000000Y-102500000D03*
X147500000Y-80500000D03*
X147500000Y-124500000D03*
D13*
X167565000Y-89565000D03*
X170065000Y-89565000D03*
D14*
X128175000Y-119410000D03*
D15*
X133255000Y-119410000D03*
X138335000Y-119410000D03*
D16*
X159925000Y-120045000D03*
D17*
X159925000Y-122585000D03*
X159925000Y-125125000D03*
D16*
X155480000Y-117505000D03*
D17*
X155480000Y-120045000D03*
X155480000Y-122585000D03*
X155480000Y-125125000D03*
D16*
X164370000Y-122585000D03*
D17*
X164370000Y-125125000D03*
D18*
X162465000Y-86310000D03*
X162465000Y-89010000D03*
X162465000Y-81230000D03*
X162465000Y-83930000D03*
D19*
X170165000Y-80675000D03*
X167465000Y-80675000D03*
D20*
X171990000Y-83215000D03*
X171990000Y-84485000D03*
X171990000Y-85755000D03*
X171990000Y-87025000D03*
X165640000Y-87025000D03*
X165640000Y-85755000D03*
X165640000Y-84485000D03*
X165640000Y-83215000D03*
D16*
X168815000Y-114330000D03*
D17*
X168815000Y-116870000D03*
X168815000Y-119410000D03*
X168815000Y-121950000D03*
X157385000Y-109250000D03*
D21*
X157385000Y-106710000D03*
X157385000Y-104170000D03*
X157385000Y-101630000D03*
X157385000Y-99090000D03*
X157385000Y-96550000D03*
X157385000Y-94010000D03*
X157385000Y-91470000D03*
X157385000Y-88930000D03*
X157385000Y-86390000D03*
X157385000Y-83850000D03*
X157385000Y-81310000D03*
D22*
X145955000Y-114965000D03*
X145955000Y-107345000D03*
X145955000Y-97185000D03*
X145955000Y-94645000D03*
D23*
X162065000Y-115020000D03*
X162065000Y-116520000D03*
X162065000Y-106020000D03*
D24*
X171990000Y-81945000D03*
D25*
X162465000Y-86310000D02*
X163020000Y-85755000D01*
X163020000Y-85755000D02*
X164370000Y-85755000D01*
X164370000Y-85755000D02*
X165640000Y-85755000D01*
X167565000Y-89565000D02*
X167565000Y-86410000D01*
X166910000Y-85755000D02*
X165640000Y-85755000D01*
X167565000Y-86410000D02*
X166910000Y-85755000D01*
X162465000Y-86310000D02*
X162465000Y-86263000D01*
D26*
X159290000Y-105440000D02*
X159290000Y-92185000D01*
X157385000Y-106710000D02*
X158020000Y-106710000D01*
X158020000Y-106710000D02*
X159290000Y-105440000D01*
X159290000Y-92185000D02*
X162465000Y-89010000D01*
D27*
X162065000Y-116520000D02*
X160210000Y-116520000D01*
X155480000Y-81310000D02*
X157385000Y-81310000D01*
X154210000Y-82580000D02*
X155480000Y-81310000D01*
X154210000Y-110520000D02*
X154210000Y-82580000D01*
X160210000Y-116520000D02*
X154210000Y-110520000D01*
D25*
X171990000Y-81945000D02*
X171990000Y-83215000D01*
D26*
X171355000Y-92105000D02*
X173260000Y-90200000D01*
X172625000Y-85755000D02*
X171990000Y-85755000D01*
X173260000Y-86390000D02*
X172625000Y-85755000D01*
X173260000Y-90200000D02*
X173260000Y-86390000D01*
X164370000Y-96550000D02*
X168815000Y-92105000D01*
X164370000Y-120680000D02*
X164370000Y-96550000D01*
X164370000Y-120680000D02*
X164370000Y-120680000D01*
X168815000Y-92105000D02*
X171355000Y-92105000D01*
X164370000Y-122585000D02*
X164370000Y-120680000D01*
X171990000Y-85755000D02*
X171990000Y-84485000D01*
D25*
X165640000Y-84485000D02*
X165005000Y-84485000D01*
X164370000Y-82580000D02*
X163100000Y-81310000D01*
X164370000Y-83850000D02*
X164370000Y-82580000D01*
X165005000Y-84485000D02*
X164370000Y-83850000D01*
X163100000Y-81310000D02*
X162545000Y-81310000D01*
X162545000Y-81310000D02*
X162465000Y-81230000D01*
X167465000Y-80675000D02*
X163020000Y-80675000D01*
X163020000Y-80675000D02*
X162465000Y-81230000D01*
X170165000Y-80675000D02*
X170165000Y-81865000D01*
X168815000Y-83215000D02*
X166910000Y-83215000D01*
X170165000Y-81865000D02*
X168815000Y-83215000D01*
X171990000Y-87025000D02*
X170720000Y-87025000D01*
X166910000Y-83215000D02*
X165640000Y-83215000D01*
X170720000Y-87025000D02*
X166910000Y-83215000D01*
D28*
G36*
X145991239Y-78237709D02*
X145240345Y-78987293D01*
X144833464Y-79967173D01*
X144832538Y-81028172D01*
X145237709Y-82008761D01*
X145987293Y-82759655D01*
X146967173Y-83166536D01*
X148028172Y-83167462D01*
X149008761Y-82762291D01*
X149191370Y-82580000D01*
X153075000Y-82580000D01*
X153075000Y-110520000D01*
X153161397Y-110954346D01*
X153278336Y-111129357D01*
X153407434Y-111322566D01*
X159407434Y-117322566D01*
X159775654Y-117568603D01*
X160210000Y-117655000D01*
X161577957Y-117655000D01*
X161818266Y-117754785D01*
X162309579Y-117755214D01*
X162763657Y-117567592D01*
X163111371Y-117220485D01*
X163299785Y-116766734D01*
X163300214Y-116275421D01*
X163112592Y-115821343D01*
X163061554Y-115770215D01*
X163111371Y-115720485D01*
X163299785Y-115266734D01*
X163300214Y-114775421D01*
X163112592Y-114321343D01*
X162765485Y-113973629D01*
X162311734Y-113785215D01*
X161820421Y-113784786D01*
X161366343Y-113972408D01*
X161018629Y-114319515D01*
X160830215Y-114773266D01*
X160829786Y-115264579D01*
X160879543Y-115385000D01*
X160680132Y-115385000D01*
X155345000Y-110049868D01*
X155345000Y-109250000D01*
X155616193Y-109250000D01*
X155722533Y-109784609D01*
X156025365Y-110237828D01*
X156478584Y-110540660D01*
X157013193Y-110647000D01*
X157756807Y-110647000D01*
X158291416Y-110540660D01*
X158744635Y-110237828D01*
X159047467Y-109784609D01*
X159153807Y-109250000D01*
X159047467Y-108715391D01*
X158744635Y-108262172D01*
X158321688Y-107979567D01*
X158743340Y-107697828D01*
X159046172Y-107244609D01*
X159118152Y-106882735D01*
X161381870Y-106882735D01*
X161431383Y-107108164D01*
X161896036Y-107267807D01*
X162386413Y-107237482D01*
X162698617Y-107108164D01*
X162748130Y-106882735D01*
X162065000Y-106199605D01*
X161381870Y-106882735D01*
X159118152Y-106882735D01*
X159122947Y-106858632D01*
X159915787Y-106065792D01*
X159915790Y-106065790D01*
X160059283Y-105851036D01*
X160817193Y-105851036D01*
X160847518Y-106341413D01*
X160976836Y-106653617D01*
X161202265Y-106703130D01*
X161885395Y-106020000D01*
X162244605Y-106020000D01*
X162927735Y-106703130D01*
X163153164Y-106653617D01*
X163312807Y-106188964D01*
X163282482Y-105698587D01*
X163153164Y-105386383D01*
X162927735Y-105336870D01*
X162244605Y-106020000D01*
X161885395Y-106020000D01*
X161202265Y-105336870D01*
X160976836Y-105386383D01*
X160817193Y-105851036D01*
X160059283Y-105851036D01*
X160107633Y-105778675D01*
X160136478Y-105633664D01*
X160175001Y-105440000D01*
X160175000Y-105439995D01*
X160175000Y-105157265D01*
X161381870Y-105157265D01*
X162065000Y-105840395D01*
X162748130Y-105157265D01*
X162698617Y-104931836D01*
X162233964Y-104772193D01*
X161743587Y-104802518D01*
X161431383Y-104931836D01*
X161381870Y-105157265D01*
X160175000Y-105157265D01*
X160175000Y-92551580D01*
X162319139Y-90407440D01*
X163115000Y-90407440D01*
X163350317Y-90363162D01*
X163566441Y-90224090D01*
X163711431Y-90011890D01*
X163762440Y-89760000D01*
X163762440Y-88260000D01*
X163718162Y-88024683D01*
X163579090Y-87808559D01*
X163366890Y-87663569D01*
X163353803Y-87660919D01*
X163566441Y-87524090D01*
X163711431Y-87311890D01*
X163711661Y-87310750D01*
X164433500Y-87310750D01*
X164433500Y-87405309D01*
X164530173Y-87638698D01*
X164708801Y-87817327D01*
X164942190Y-87914000D01*
X165354250Y-87914000D01*
X165513000Y-87755250D01*
X165513000Y-87152000D01*
X164592250Y-87152000D01*
X164433500Y-87310750D01*
X163711661Y-87310750D01*
X163762440Y-87060000D01*
X163762440Y-86515000D01*
X164487220Y-86515000D01*
X164433500Y-86644691D01*
X164433500Y-86739250D01*
X164592250Y-86898000D01*
X165513000Y-86898000D01*
X165513000Y-86878000D01*
X165767000Y-86878000D01*
X165767000Y-86898000D01*
X165787000Y-86898000D01*
X165787000Y-87152000D01*
X165767000Y-87152000D01*
X165767000Y-87755250D01*
X165925750Y-87914000D01*
X166337810Y-87914000D01*
X166571199Y-87817327D01*
X166749827Y-87638698D01*
X166805000Y-87505499D01*
X166805000Y-88294442D01*
X166579683Y-88336838D01*
X166363559Y-88475910D01*
X166218569Y-88688110D01*
X166167560Y-88940000D01*
X166167560Y-90190000D01*
X166211838Y-90425317D01*
X166350910Y-90641441D01*
X166563110Y-90786431D01*
X166815000Y-90837440D01*
X168315000Y-90837440D01*
X168550317Y-90793162D01*
X168766441Y-90654090D01*
X168812969Y-90585994D01*
X168955302Y-90728327D01*
X169188691Y-90825000D01*
X169779250Y-90825000D01*
X169938000Y-90666250D01*
X169938000Y-89692000D01*
X170192000Y-89692000D01*
X170192000Y-90666250D01*
X170350750Y-90825000D01*
X170941309Y-90825000D01*
X171174698Y-90728327D01*
X171353327Y-90549699D01*
X171450000Y-90316310D01*
X171450000Y-89850750D01*
X171291250Y-89692000D01*
X170192000Y-89692000D01*
X169938000Y-89692000D01*
X169918000Y-89692000D01*
X169918000Y-89438000D01*
X169938000Y-89438000D01*
X169938000Y-88463750D01*
X170192000Y-88463750D01*
X170192000Y-89438000D01*
X171291250Y-89438000D01*
X171450000Y-89279250D01*
X171450000Y-88813690D01*
X171353327Y-88580301D01*
X171174698Y-88401673D01*
X170941309Y-88305000D01*
X170350750Y-88305000D01*
X170192000Y-88463750D01*
X169938000Y-88463750D01*
X169779250Y-88305000D01*
X169188691Y-88305000D01*
X168955302Y-88401673D01*
X168814064Y-88542910D01*
X168779090Y-88488559D01*
X168566890Y-88343569D01*
X168325000Y-88294585D01*
X168325000Y-86410000D01*
X168267148Y-86119161D01*
X168102401Y-85872599D01*
X167447401Y-85217599D01*
X167200839Y-85052852D01*
X166910000Y-84995000D01*
X166805123Y-84995000D01*
X166807931Y-84990890D01*
X166858940Y-84739000D01*
X166858940Y-84238742D01*
X170182599Y-87562401D01*
X170429161Y-87727148D01*
X170720000Y-87785000D01*
X171034260Y-87785000D01*
X171166610Y-87875431D01*
X171418500Y-87926440D01*
X172375000Y-87926440D01*
X172375000Y-89833421D01*
X170988420Y-91220000D01*
X168815005Y-91220000D01*
X168815000Y-91219999D01*
X168476325Y-91287367D01*
X168189210Y-91479210D01*
X168189208Y-91479213D01*
X163744210Y-95924210D01*
X163552367Y-96211325D01*
X163552367Y-96211326D01*
X163484999Y-96550000D01*
X163485000Y-96550005D01*
X163485000Y-121175560D01*
X163270180Y-121175560D01*
X163034863Y-121219838D01*
X162818739Y-121358910D01*
X162673749Y-121571110D01*
X162622740Y-121823000D01*
X162622740Y-123347000D01*
X162667018Y-123582317D01*
X162806090Y-123798441D01*
X163018290Y-123943431D01*
X163247867Y-123989921D01*
X162954550Y-124226974D01*
X162692920Y-124707723D01*
X162677960Y-124781930D01*
X162800460Y-124998000D01*
X164243000Y-124998000D01*
X164243000Y-124978000D01*
X164497000Y-124978000D01*
X164497000Y-124998000D01*
X165939540Y-124998000D01*
X166062040Y-124781930D01*
X166047080Y-124707723D01*
X165785450Y-124226974D01*
X165492454Y-123990181D01*
X165705137Y-123950162D01*
X165921261Y-123811090D01*
X166066251Y-123598890D01*
X166117260Y-123347000D01*
X166117260Y-122293070D01*
X167122960Y-122293070D01*
X167137920Y-122367277D01*
X167399550Y-122848026D01*
X167825239Y-123192059D01*
X168350180Y-123347000D01*
X168688000Y-123347000D01*
X168688000Y-122077000D01*
X168942000Y-122077000D01*
X168942000Y-123347000D01*
X169279820Y-123347000D01*
X169804761Y-123192059D01*
X170230450Y-122848026D01*
X170492080Y-122367277D01*
X170507040Y-122293070D01*
X170384540Y-122077000D01*
X168942000Y-122077000D01*
X168688000Y-122077000D01*
X167245460Y-122077000D01*
X167122960Y-122293070D01*
X166117260Y-122293070D01*
X166117260Y-121823000D01*
X166072982Y-121587683D01*
X165933910Y-121371559D01*
X165721710Y-121226569D01*
X165469820Y-121175560D01*
X165255000Y-121175560D01*
X165255000Y-116870000D01*
X167046193Y-116870000D01*
X167152533Y-117404609D01*
X167455365Y-117857828D01*
X167877664Y-118140000D01*
X167455365Y-118422172D01*
X167152533Y-118875391D01*
X167046193Y-119410000D01*
X167152533Y-119944609D01*
X167455365Y-120397828D01*
X167890606Y-120688647D01*
X167825239Y-120707941D01*
X167399550Y-121051974D01*
X167137920Y-121532723D01*
X167122960Y-121606930D01*
X167245460Y-121823000D01*
X168688000Y-121823000D01*
X168688000Y-121803000D01*
X168942000Y-121803000D01*
X168942000Y-121823000D01*
X170384540Y-121823000D01*
X170507040Y-121606930D01*
X170492080Y-121532723D01*
X170230450Y-121051974D01*
X169804761Y-120707941D01*
X169739394Y-120688647D01*
X170174635Y-120397828D01*
X170477467Y-119944609D01*
X170583807Y-119410000D01*
X170477467Y-118875391D01*
X170174635Y-118422172D01*
X169752336Y-118140000D01*
X170174635Y-117857828D01*
X170477467Y-117404609D01*
X170583807Y-116870000D01*
X170477467Y-116335391D01*
X170174635Y-115882172D01*
X169950870Y-115732657D01*
X170150137Y-115695162D01*
X170366261Y-115556090D01*
X170511251Y-115343890D01*
X170562260Y-115092000D01*
X170562260Y-113568000D01*
X170517982Y-113332683D01*
X170378910Y-113116559D01*
X170166710Y-112971569D01*
X169914820Y-112920560D01*
X167715180Y-112920560D01*
X167479863Y-112964838D01*
X167263739Y-113103910D01*
X167118749Y-113316110D01*
X167067740Y-113568000D01*
X167067740Y-115092000D01*
X167112018Y-115327317D01*
X167251090Y-115543441D01*
X167463290Y-115688431D01*
X167679724Y-115732260D01*
X167455365Y-115882172D01*
X167152533Y-116335391D01*
X167046193Y-116870000D01*
X165255000Y-116870000D01*
X165255000Y-104398121D01*
X170281484Y-104398121D01*
X170506154Y-104772168D01*
X171489388Y-105170880D01*
X172550357Y-105162975D01*
X173493846Y-104772168D01*
X173718516Y-104398121D01*
X172000000Y-102679605D01*
X170281484Y-104398121D01*
X165255000Y-104398121D01*
X165255000Y-101989388D01*
X169329120Y-101989388D01*
X169337025Y-103050357D01*
X169727832Y-103993846D01*
X170101879Y-104218516D01*
X171820395Y-102500000D01*
X170101879Y-100781484D01*
X169727832Y-101006154D01*
X169329120Y-101989388D01*
X165255000Y-101989388D01*
X165255000Y-100601879D01*
X170281484Y-100601879D01*
X172000000Y-102320395D01*
X173718516Y-100601879D01*
X173493846Y-100227832D01*
X172510612Y-99829120D01*
X171449643Y-99837025D01*
X170506154Y-100227832D01*
X170281484Y-100601879D01*
X165255000Y-100601879D01*
X165255000Y-96916580D01*
X169181579Y-92990000D01*
X171354995Y-92990000D01*
X171355000Y-92990001D01*
X171637484Y-92933810D01*
X171693675Y-92922633D01*
X171980790Y-92730790D01*
X173885787Y-90825792D01*
X173885790Y-90825790D01*
X174077633Y-90538675D01*
X174096885Y-90441890D01*
X174145001Y-90200000D01*
X174145000Y-90199995D01*
X174145000Y-86390005D01*
X174145001Y-86390000D01*
X174077634Y-86051326D01*
X173958213Y-85872599D01*
X173885790Y-85764210D01*
X173885787Y-85764208D01*
X173250790Y-85129210D01*
X173195189Y-85092059D01*
X173122151Y-85043256D01*
X173157931Y-84990890D01*
X173208940Y-84739000D01*
X173208940Y-84231000D01*
X173164662Y-83995683D01*
X173070334Y-83849093D01*
X173157931Y-83720890D01*
X173208940Y-83469000D01*
X173208940Y-82961000D01*
X173164662Y-82725683D01*
X173025590Y-82509559D01*
X172824914Y-82372443D01*
X172924838Y-82131799D01*
X172925162Y-81759833D01*
X172783117Y-81416057D01*
X172520327Y-81152808D01*
X172176799Y-81010162D01*
X171804833Y-81009838D01*
X171562440Y-81109993D01*
X171562440Y-80025000D01*
X171518162Y-79789683D01*
X171379090Y-79573559D01*
X171166890Y-79428569D01*
X170915000Y-79377560D01*
X169415000Y-79377560D01*
X169179683Y-79421838D01*
X168963559Y-79560910D01*
X168818569Y-79773110D01*
X168815919Y-79786197D01*
X168679090Y-79573559D01*
X168466890Y-79428569D01*
X168215000Y-79377560D01*
X166715000Y-79377560D01*
X166479683Y-79421838D01*
X166263559Y-79560910D01*
X166118569Y-79773110D01*
X166089836Y-79915000D01*
X163412891Y-79915000D01*
X163366890Y-79883569D01*
X163115000Y-79832560D01*
X161815000Y-79832560D01*
X161579683Y-79876838D01*
X161363559Y-80015910D01*
X161218569Y-80228110D01*
X161167560Y-80480000D01*
X161167560Y-81980000D01*
X161211838Y-82215317D01*
X161350910Y-82431441D01*
X161563110Y-82576431D01*
X161596490Y-82583191D01*
X161455301Y-82641673D01*
X161276673Y-82820302D01*
X161180000Y-83053691D01*
X161180000Y-83644250D01*
X161338750Y-83803000D01*
X162338000Y-83803000D01*
X162338000Y-83783000D01*
X162592000Y-83783000D01*
X162592000Y-83803000D01*
X162612000Y-83803000D01*
X162612000Y-84057000D01*
X162592000Y-84057000D01*
X162592000Y-84077000D01*
X162338000Y-84077000D01*
X162338000Y-84057000D01*
X161338750Y-84057000D01*
X161180000Y-84215750D01*
X161180000Y-84806309D01*
X161276673Y-85039698D01*
X161351108Y-85114133D01*
X161218569Y-85308110D01*
X161167560Y-85560000D01*
X161167560Y-87060000D01*
X161211838Y-87295317D01*
X161350910Y-87511441D01*
X161563110Y-87656431D01*
X161576197Y-87659081D01*
X161363559Y-87795910D01*
X161218569Y-88008110D01*
X161167560Y-88260000D01*
X161167560Y-89055861D01*
X159086299Y-91137122D01*
X159046172Y-90935391D01*
X158743340Y-90482172D01*
X158321041Y-90200000D01*
X158743340Y-89917828D01*
X159046172Y-89464609D01*
X159152512Y-88930000D01*
X159046172Y-88395391D01*
X158743340Y-87942172D01*
X158321041Y-87660000D01*
X158743340Y-87377828D01*
X159046172Y-86924609D01*
X159152512Y-86390000D01*
X159046172Y-85855391D01*
X158743340Y-85402172D01*
X158308107Y-85111358D01*
X158373491Y-85092059D01*
X158799180Y-84748026D01*
X159060810Y-84267277D01*
X159075770Y-84193070D01*
X158953270Y-83977000D01*
X157512000Y-83977000D01*
X157512000Y-83997000D01*
X157258000Y-83997000D01*
X157258000Y-83977000D01*
X155816730Y-83977000D01*
X155694230Y-84193070D01*
X155709190Y-84267277D01*
X155970820Y-84748026D01*
X156396509Y-85092059D01*
X156461893Y-85111358D01*
X156026660Y-85402172D01*
X155723828Y-85855391D01*
X155617488Y-86390000D01*
X155723828Y-86924609D01*
X156026660Y-87377828D01*
X156448959Y-87660000D01*
X156026660Y-87942172D01*
X155723828Y-88395391D01*
X155617488Y-88930000D01*
X155723828Y-89464609D01*
X156026660Y-89917828D01*
X156448959Y-90200000D01*
X156026660Y-90482172D01*
X155723828Y-90935391D01*
X155617488Y-91470000D01*
X155723828Y-92004609D01*
X156026660Y-92457828D01*
X156448959Y-92740000D01*
X156026660Y-93022172D01*
X155723828Y-93475391D01*
X155617488Y-94010000D01*
X155723828Y-94544609D01*
X156026660Y-94997828D01*
X156448959Y-95280000D01*
X156026660Y-95562172D01*
X155723828Y-96015391D01*
X155617488Y-96550000D01*
X155723828Y-97084609D01*
X156026660Y-97537828D01*
X156448959Y-97820000D01*
X156026660Y-98102172D01*
X155723828Y-98555391D01*
X155617488Y-99090000D01*
X155723828Y-99624609D01*
X156026660Y-100077828D01*
X156448959Y-100360000D01*
X156026660Y-100642172D01*
X155723828Y-101095391D01*
X155617488Y-101630000D01*
X155723828Y-102164609D01*
X156026660Y-102617828D01*
X156448959Y-102900000D01*
X156026660Y-103182172D01*
X155723828Y-103635391D01*
X155617488Y-104170000D01*
X155723828Y-104704609D01*
X156026660Y-105157828D01*
X156448959Y-105440000D01*
X156026660Y-105722172D01*
X155723828Y-106175391D01*
X155617488Y-106710000D01*
X155723828Y-107244609D01*
X156026660Y-107697828D01*
X156448312Y-107979567D01*
X156025365Y-108262172D01*
X155722533Y-108715391D01*
X155616193Y-109250000D01*
X155345000Y-109250000D01*
X155345000Y-83050132D01*
X155950132Y-82445000D01*
X156246918Y-82445000D01*
X156461893Y-82588642D01*
X156396509Y-82607941D01*
X155970820Y-82951974D01*
X155709190Y-83432723D01*
X155694230Y-83506930D01*
X155816730Y-83723000D01*
X157258000Y-83723000D01*
X157258000Y-83703000D01*
X157512000Y-83703000D01*
X157512000Y-83723000D01*
X158953270Y-83723000D01*
X159075770Y-83506930D01*
X159060810Y-83432723D01*
X158799180Y-82951974D01*
X158373491Y-82607941D01*
X158308107Y-82588642D01*
X158743340Y-82297828D01*
X159046172Y-81844609D01*
X159152512Y-81310000D01*
X159046172Y-80775391D01*
X158743340Y-80322172D01*
X158290121Y-80019340D01*
X157755512Y-79913000D01*
X157014488Y-79913000D01*
X156479879Y-80019340D01*
X156246918Y-80175000D01*
X155480000Y-80175000D01*
X155045654Y-80261397D01*
X154861925Y-80384161D01*
X154677434Y-80507434D01*
X153407434Y-81777434D01*
X153161397Y-82145654D01*
X153075000Y-82580000D01*
X149191370Y-82580000D01*
X149759655Y-82012707D01*
X150166536Y-81032827D01*
X150167462Y-79971828D01*
X149762291Y-78991239D01*
X149012707Y-78240345D01*
X148939628Y-78210000D01*
X172930069Y-78210000D01*
X173488338Y-78321046D01*
X173902333Y-78597669D01*
X174178953Y-79011660D01*
X174290000Y-79569931D01*
X174290000Y-101049204D01*
X174272168Y-101006154D01*
X173898121Y-100781484D01*
X172179605Y-102500000D01*
X173898121Y-104218516D01*
X174272168Y-103993846D01*
X174290000Y-103949872D01*
X174290000Y-125430069D01*
X174178953Y-125988340D01*
X173902333Y-126402331D01*
X173488338Y-126678954D01*
X172930069Y-126790000D01*
X149992000Y-126790000D01*
X149992000Y-125468070D01*
X153787960Y-125468070D01*
X153802920Y-125542277D01*
X154064550Y-126023026D01*
X154490239Y-126367059D01*
X155015180Y-126522000D01*
X155353000Y-126522000D01*
X155353000Y-125252000D01*
X155607000Y-125252000D01*
X155607000Y-126522000D01*
X155944820Y-126522000D01*
X156469761Y-126367059D01*
X156895450Y-126023026D01*
X157157080Y-125542277D01*
X157172040Y-125468070D01*
X158232960Y-125468070D01*
X158247920Y-125542277D01*
X158509550Y-126023026D01*
X158935239Y-126367059D01*
X159460180Y-126522000D01*
X159798000Y-126522000D01*
X159798000Y-125252000D01*
X160052000Y-125252000D01*
X160052000Y-126522000D01*
X160389820Y-126522000D01*
X160914761Y-126367059D01*
X161340450Y-126023026D01*
X161602080Y-125542277D01*
X161617040Y-125468070D01*
X162677960Y-125468070D01*
X162692920Y-125542277D01*
X162954550Y-126023026D01*
X163380239Y-126367059D01*
X163905180Y-126522000D01*
X164243000Y-126522000D01*
X164243000Y-125252000D01*
X164497000Y-125252000D01*
X164497000Y-126522000D01*
X164834820Y-126522000D01*
X165359761Y-126367059D01*
X165785450Y-126023026D01*
X166047080Y-125542277D01*
X166062040Y-125468070D01*
X165939540Y-125252000D01*
X164497000Y-125252000D01*
X164243000Y-125252000D01*
X162800460Y-125252000D01*
X162677960Y-125468070D01*
X161617040Y-125468070D01*
X161494540Y-125252000D01*
X160052000Y-125252000D01*
X159798000Y-125252000D01*
X158355460Y-125252000D01*
X158232960Y-125468070D01*
X157172040Y-125468070D01*
X157049540Y-125252000D01*
X155607000Y-125252000D01*
X155353000Y-125252000D01*
X153910460Y-125252000D01*
X153787960Y-125468070D01*
X149992000Y-125468070D01*
X149992000Y-125453157D01*
X150166536Y-125032827D01*
X150167462Y-123971828D01*
X149992000Y-123547177D01*
X149992000Y-120045000D01*
X153711193Y-120045000D01*
X153817533Y-120579609D01*
X154120365Y-121032828D01*
X154542664Y-121315000D01*
X154120365Y-121597172D01*
X153817533Y-122050391D01*
X153711193Y-122585000D01*
X153817533Y-123119609D01*
X154120365Y-123572828D01*
X154555606Y-123863647D01*
X154490239Y-123882941D01*
X154064550Y-124226974D01*
X153802920Y-124707723D01*
X153787960Y-124781930D01*
X153910460Y-124998000D01*
X155353000Y-124998000D01*
X155353000Y-124978000D01*
X155607000Y-124978000D01*
X155607000Y-124998000D01*
X157049540Y-124998000D01*
X157172040Y-124781930D01*
X157157080Y-124707723D01*
X156895450Y-124226974D01*
X156469761Y-123882941D01*
X156404394Y-123863647D01*
X156839635Y-123572828D01*
X157142467Y-123119609D01*
X157248807Y-122585000D01*
X158156193Y-122585000D01*
X158262533Y-123119609D01*
X158565365Y-123572828D01*
X159000606Y-123863647D01*
X158935239Y-123882941D01*
X158509550Y-124226974D01*
X158247920Y-124707723D01*
X158232960Y-124781930D01*
X158355460Y-124998000D01*
X159798000Y-124998000D01*
X159798000Y-124978000D01*
X160052000Y-124978000D01*
X160052000Y-124998000D01*
X161494540Y-124998000D01*
X161617040Y-124781930D01*
X161602080Y-124707723D01*
X161340450Y-124226974D01*
X160914761Y-123882941D01*
X160849394Y-123863647D01*
X161284635Y-123572828D01*
X161587467Y-123119609D01*
X161693807Y-122585000D01*
X161587467Y-122050391D01*
X161284635Y-121597172D01*
X161060870Y-121447657D01*
X161260137Y-121410162D01*
X161476261Y-121271090D01*
X161621251Y-121058890D01*
X161672260Y-120807000D01*
X161672260Y-119283000D01*
X161627982Y-119047683D01*
X161488910Y-118831559D01*
X161276710Y-118686569D01*
X161024820Y-118635560D01*
X158825180Y-118635560D01*
X158589863Y-118679838D01*
X158373739Y-118818910D01*
X158228749Y-119031110D01*
X158177740Y-119283000D01*
X158177740Y-120807000D01*
X158222018Y-121042317D01*
X158361090Y-121258441D01*
X158573290Y-121403431D01*
X158789724Y-121447260D01*
X158565365Y-121597172D01*
X158262533Y-122050391D01*
X158156193Y-122585000D01*
X157248807Y-122585000D01*
X157142467Y-122050391D01*
X156839635Y-121597172D01*
X156417336Y-121315000D01*
X156839635Y-121032828D01*
X157142467Y-120579609D01*
X157248807Y-120045000D01*
X157142467Y-119510391D01*
X156839635Y-119057172D01*
X156615870Y-118907657D01*
X156815137Y-118870162D01*
X157031261Y-118731090D01*
X157176251Y-118518890D01*
X157227260Y-118267000D01*
X157227260Y-116743000D01*
X157182982Y-116507683D01*
X157043910Y-116291559D01*
X156831710Y-116146569D01*
X156579820Y-116095560D01*
X154380180Y-116095560D01*
X154144863Y-116139838D01*
X153928739Y-116278910D01*
X153783749Y-116491110D01*
X153732740Y-116743000D01*
X153732740Y-118267000D01*
X153777018Y-118502317D01*
X153916090Y-118718441D01*
X154128290Y-118863431D01*
X154344724Y-118907260D01*
X154120365Y-119057172D01*
X153817533Y-119510391D01*
X153711193Y-120045000D01*
X149992000Y-120045000D01*
X149992000Y-100000000D01*
X149981994Y-99950590D01*
X149953553Y-99908965D01*
X149911159Y-99881685D01*
X149865000Y-99873000D01*
X125710000Y-99873000D01*
X125710000Y-97459285D01*
X144569760Y-97459285D01*
X144780169Y-97968515D01*
X145169436Y-98358461D01*
X145678298Y-98569759D01*
X146229285Y-98570240D01*
X146738515Y-98359831D01*
X147128461Y-97970564D01*
X147339759Y-97461702D01*
X147340240Y-96910715D01*
X147129831Y-96401485D01*
X146740564Y-96011539D01*
X146524021Y-95921623D01*
X146678923Y-95857460D01*
X146746912Y-95616517D01*
X145955000Y-94824605D01*
X145163088Y-95616517D01*
X145231077Y-95857460D01*
X145397621Y-95916732D01*
X145171485Y-96010169D01*
X144781539Y-96399436D01*
X144570241Y-96908298D01*
X144569760Y-97459285D01*
X125710000Y-97459285D01*
X125710000Y-94440171D01*
X144557799Y-94440171D01*
X144585770Y-94990448D01*
X144742540Y-95368923D01*
X144983483Y-95436912D01*
X145775395Y-94645000D01*
X146134605Y-94645000D01*
X146926517Y-95436912D01*
X147167460Y-95368923D01*
X147352201Y-94849829D01*
X147324230Y-94299552D01*
X147167460Y-93921077D01*
X146926517Y-93853088D01*
X146134605Y-94645000D01*
X145775395Y-94645000D01*
X144983483Y-93853088D01*
X144742540Y-93921077D01*
X144557799Y-94440171D01*
X125710000Y-94440171D01*
X125710000Y-93673483D01*
X145163088Y-93673483D01*
X145955000Y-94465395D01*
X146746912Y-93673483D01*
X146678923Y-93432540D01*
X146159829Y-93247799D01*
X145609552Y-93275770D01*
X145231077Y-93432540D01*
X145163088Y-93673483D01*
X125710000Y-93673483D01*
X125710000Y-81880159D01*
X129699446Y-81880159D01*
X129785852Y-82136643D01*
X130359336Y-82346458D01*
X130969460Y-82320839D01*
X131414148Y-82136643D01*
X131500554Y-81880159D01*
X130600000Y-80979605D01*
X129699446Y-81880159D01*
X125710000Y-81880159D01*
X125710000Y-80559336D01*
X129053542Y-80559336D01*
X129079161Y-81169460D01*
X129263357Y-81614148D01*
X129519841Y-81700554D01*
X130420395Y-80800000D01*
X130779605Y-80800000D01*
X131680159Y-81700554D01*
X131936643Y-81614148D01*
X132123289Y-81103991D01*
X137064735Y-81103991D01*
X137297932Y-81668371D01*
X137729357Y-82100551D01*
X138293330Y-82334733D01*
X138903991Y-82335265D01*
X139468371Y-82102068D01*
X139900551Y-81670643D01*
X140134733Y-81106670D01*
X140135265Y-80496009D01*
X139902068Y-79931629D01*
X139470643Y-79499449D01*
X138906670Y-79265267D01*
X138296009Y-79264735D01*
X137731629Y-79497932D01*
X137299449Y-79929357D01*
X137065267Y-80493330D01*
X137064735Y-81103991D01*
X132123289Y-81103991D01*
X132146458Y-81040664D01*
X132120839Y-80430540D01*
X131936643Y-79985852D01*
X131680159Y-79899446D01*
X130779605Y-80800000D01*
X130420395Y-80800000D01*
X129519841Y-79899446D01*
X129263357Y-79985852D01*
X129053542Y-80559336D01*
X125710000Y-80559336D01*
X125710000Y-79719841D01*
X129699446Y-79719841D01*
X130600000Y-80620395D01*
X131500554Y-79719841D01*
X131414148Y-79463357D01*
X130840664Y-79253542D01*
X130230540Y-79279161D01*
X129785852Y-79463357D01*
X129699446Y-79719841D01*
X125710000Y-79719841D01*
X125710000Y-79569931D01*
X125821046Y-79011662D01*
X126097669Y-78597667D01*
X126511660Y-78321047D01*
X127069931Y-78210000D01*
X146058300Y-78210000D01*
X145991239Y-78237709D01*
X145991239Y-78237709D01*
G37*
X145991239Y-78237709D02*
X145240345Y-78987293D01*
X144833464Y-79967173D01*
X144832538Y-81028172D01*
X145237709Y-82008761D01*
X145987293Y-82759655D01*
X146967173Y-83166536D01*
X148028172Y-83167462D01*
X149008761Y-82762291D01*
X149191370Y-82580000D01*
X153075000Y-82580000D01*
X153075000Y-110520000D01*
X153161397Y-110954346D01*
X153278336Y-111129357D01*
X153407434Y-111322566D01*
X159407434Y-117322566D01*
X159775654Y-117568603D01*
X160210000Y-117655000D01*
X161577957Y-117655000D01*
X161818266Y-117754785D01*
X162309579Y-117755214D01*
X162763657Y-117567592D01*
X163111371Y-117220485D01*
X163299785Y-116766734D01*
X163300214Y-116275421D01*
X163112592Y-115821343D01*
X163061554Y-115770215D01*
X163111371Y-115720485D01*
X163299785Y-115266734D01*
X163300214Y-114775421D01*
X163112592Y-114321343D01*
X162765485Y-113973629D01*
X162311734Y-113785215D01*
X161820421Y-113784786D01*
X161366343Y-113972408D01*
X161018629Y-114319515D01*
X160830215Y-114773266D01*
X160829786Y-115264579D01*
X160879543Y-115385000D01*
X160680132Y-115385000D01*
X155345000Y-110049868D01*
X155345000Y-109250000D01*
X155616193Y-109250000D01*
X155722533Y-109784609D01*
X156025365Y-110237828D01*
X156478584Y-110540660D01*
X157013193Y-110647000D01*
X157756807Y-110647000D01*
X158291416Y-110540660D01*
X158744635Y-110237828D01*
X159047467Y-109784609D01*
X159153807Y-109250000D01*
X159047467Y-108715391D01*
X158744635Y-108262172D01*
X158321688Y-107979567D01*
X158743340Y-107697828D01*
X159046172Y-107244609D01*
X159118152Y-106882735D01*
X161381870Y-106882735D01*
X161431383Y-107108164D01*
X161896036Y-107267807D01*
X162386413Y-107237482D01*
X162698617Y-107108164D01*
X162748130Y-106882735D01*
X162065000Y-106199605D01*
X161381870Y-106882735D01*
X159118152Y-106882735D01*
X159122947Y-106858632D01*
X159915787Y-106065792D01*
X159915790Y-106065790D01*
X160059283Y-105851036D01*
X160817193Y-105851036D01*
X160847518Y-106341413D01*
X160976836Y-106653617D01*
X161202265Y-106703130D01*
X161885395Y-106020000D01*
X162244605Y-106020000D01*
X162927735Y-106703130D01*
X163153164Y-106653617D01*
X163312807Y-106188964D01*
X163282482Y-105698587D01*
X163153164Y-105386383D01*
X162927735Y-105336870D01*
X162244605Y-106020000D01*
X161885395Y-106020000D01*
X161202265Y-105336870D01*
X160976836Y-105386383D01*
X160817193Y-105851036D01*
X160059283Y-105851036D01*
X160107633Y-105778675D01*
X160136478Y-105633664D01*
X160175001Y-105440000D01*
X160175000Y-105439995D01*
X160175000Y-105157265D01*
X161381870Y-105157265D01*
X162065000Y-105840395D01*
X162748130Y-105157265D01*
X162698617Y-104931836D01*
X162233964Y-104772193D01*
X161743587Y-104802518D01*
X161431383Y-104931836D01*
X161381870Y-105157265D01*
X160175000Y-105157265D01*
X160175000Y-92551580D01*
X162319139Y-90407440D01*
X163115000Y-90407440D01*
X163350317Y-90363162D01*
X163566441Y-90224090D01*
X163711431Y-90011890D01*
X163762440Y-89760000D01*
X163762440Y-88260000D01*
X163718162Y-88024683D01*
X163579090Y-87808559D01*
X163366890Y-87663569D01*
X163353803Y-87660919D01*
X163566441Y-87524090D01*
X163711431Y-87311890D01*
X163711661Y-87310750D01*
X164433500Y-87310750D01*
X164433500Y-87405309D01*
X164530173Y-87638698D01*
X164708801Y-87817327D01*
X164942190Y-87914000D01*
X165354250Y-87914000D01*
X165513000Y-87755250D01*
X165513000Y-87152000D01*
X164592250Y-87152000D01*
X164433500Y-87310750D01*
X163711661Y-87310750D01*
X163762440Y-87060000D01*
X163762440Y-86515000D01*
X164487220Y-86515000D01*
X164433500Y-86644691D01*
X164433500Y-86739250D01*
X164592250Y-86898000D01*
X165513000Y-86898000D01*
X165513000Y-86878000D01*
X165767000Y-86878000D01*
X165767000Y-86898000D01*
X165787000Y-86898000D01*
X165787000Y-87152000D01*
X165767000Y-87152000D01*
X165767000Y-87755250D01*
X165925750Y-87914000D01*
X166337810Y-87914000D01*
X166571199Y-87817327D01*
X166749827Y-87638698D01*
X166805000Y-87505499D01*
X166805000Y-88294442D01*
X166579683Y-88336838D01*
X166363559Y-88475910D01*
X166218569Y-88688110D01*
X166167560Y-88940000D01*
X166167560Y-90190000D01*
X166211838Y-90425317D01*
X166350910Y-90641441D01*
X166563110Y-90786431D01*
X166815000Y-90837440D01*
X168315000Y-90837440D01*
X168550317Y-90793162D01*
X168766441Y-90654090D01*
X168812969Y-90585994D01*
X168955302Y-90728327D01*
X169188691Y-90825000D01*
X169779250Y-90825000D01*
X169938000Y-90666250D01*
X169938000Y-89692000D01*
X170192000Y-89692000D01*
X170192000Y-90666250D01*
X170350750Y-90825000D01*
X170941309Y-90825000D01*
X171174698Y-90728327D01*
X171353327Y-90549699D01*
X171450000Y-90316310D01*
X171450000Y-89850750D01*
X171291250Y-89692000D01*
X170192000Y-89692000D01*
X169938000Y-89692000D01*
X169918000Y-89692000D01*
X169918000Y-89438000D01*
X169938000Y-89438000D01*
X169938000Y-88463750D01*
X170192000Y-88463750D01*
X170192000Y-89438000D01*
X171291250Y-89438000D01*
X171450000Y-89279250D01*
X171450000Y-88813690D01*
X171353327Y-88580301D01*
X171174698Y-88401673D01*
X170941309Y-88305000D01*
X170350750Y-88305000D01*
X170192000Y-88463750D01*
X169938000Y-88463750D01*
X169779250Y-88305000D01*
X169188691Y-88305000D01*
X168955302Y-88401673D01*
X168814064Y-88542910D01*
X168779090Y-88488559D01*
X168566890Y-88343569D01*
X168325000Y-88294585D01*
X168325000Y-86410000D01*
X168267148Y-86119161D01*
X168102401Y-85872599D01*
X167447401Y-85217599D01*
X167200839Y-85052852D01*
X166910000Y-84995000D01*
X166805123Y-84995000D01*
X166807931Y-84990890D01*
X166858940Y-84739000D01*
X166858940Y-84238742D01*
X170182599Y-87562401D01*
X170429161Y-87727148D01*
X170720000Y-87785000D01*
X171034260Y-87785000D01*
X171166610Y-87875431D01*
X171418500Y-87926440D01*
X172375000Y-87926440D01*
X172375000Y-89833421D01*
X170988420Y-91220000D01*
X168815005Y-91220000D01*
X168815000Y-91219999D01*
X168476325Y-91287367D01*
X168189210Y-91479210D01*
X168189208Y-91479213D01*
X163744210Y-95924210D01*
X163552367Y-96211325D01*
X163552367Y-96211326D01*
X163484999Y-96550000D01*
X163485000Y-96550005D01*
X163485000Y-121175560D01*
X163270180Y-121175560D01*
X163034863Y-121219838D01*
X162818739Y-121358910D01*
X162673749Y-121571110D01*
X162622740Y-121823000D01*
X162622740Y-123347000D01*
X162667018Y-123582317D01*
X162806090Y-123798441D01*
X163018290Y-123943431D01*
X163247867Y-123989921D01*
X162954550Y-124226974D01*
X162692920Y-124707723D01*
X162677960Y-124781930D01*
X162800460Y-124998000D01*
X164243000Y-124998000D01*
X164243000Y-124978000D01*
X164497000Y-124978000D01*
X164497000Y-124998000D01*
X165939540Y-124998000D01*
X166062040Y-124781930D01*
X166047080Y-124707723D01*
X165785450Y-124226974D01*
X165492454Y-123990181D01*
X165705137Y-123950162D01*
X165921261Y-123811090D01*
X166066251Y-123598890D01*
X166117260Y-123347000D01*
X166117260Y-122293070D01*
X167122960Y-122293070D01*
X167137920Y-122367277D01*
X167399550Y-122848026D01*
X167825239Y-123192059D01*
X168350180Y-123347000D01*
X168688000Y-123347000D01*
X168688000Y-122077000D01*
X168942000Y-122077000D01*
X168942000Y-123347000D01*
X169279820Y-123347000D01*
X169804761Y-123192059D01*
X170230450Y-122848026D01*
X170492080Y-122367277D01*
X170507040Y-122293070D01*
X170384540Y-122077000D01*
X168942000Y-122077000D01*
X168688000Y-122077000D01*
X167245460Y-122077000D01*
X167122960Y-122293070D01*
X166117260Y-122293070D01*
X166117260Y-121823000D01*
X166072982Y-121587683D01*
X165933910Y-121371559D01*
X165721710Y-121226569D01*
X165469820Y-121175560D01*
X165255000Y-121175560D01*
X165255000Y-116870000D01*
X167046193Y-116870000D01*
X167152533Y-117404609D01*
X167455365Y-117857828D01*
X167877664Y-118140000D01*
X167455365Y-118422172D01*
X167152533Y-118875391D01*
X167046193Y-119410000D01*
X167152533Y-119944609D01*
X167455365Y-120397828D01*
X167890606Y-120688647D01*
X167825239Y-120707941D01*
X167399550Y-121051974D01*
X167137920Y-121532723D01*
X167122960Y-121606930D01*
X167245460Y-121823000D01*
X168688000Y-121823000D01*
X168688000Y-121803000D01*
X168942000Y-121803000D01*
X168942000Y-121823000D01*
X170384540Y-121823000D01*
X170507040Y-121606930D01*
X170492080Y-121532723D01*
X170230450Y-121051974D01*
X169804761Y-120707941D01*
X169739394Y-120688647D01*
X170174635Y-120397828D01*
X170477467Y-119944609D01*
X170583807Y-119410000D01*
X170477467Y-118875391D01*
X170174635Y-118422172D01*
X169752336Y-118140000D01*
X170174635Y-117857828D01*
X170477467Y-117404609D01*
X170583807Y-116870000D01*
X170477467Y-116335391D01*
X170174635Y-115882172D01*
X169950870Y-115732657D01*
X170150137Y-115695162D01*
X170366261Y-115556090D01*
X170511251Y-115343890D01*
X170562260Y-115092000D01*
X170562260Y-113568000D01*
X170517982Y-113332683D01*
X170378910Y-113116559D01*
X170166710Y-112971569D01*
X169914820Y-112920560D01*
X167715180Y-112920560D01*
X167479863Y-112964838D01*
X167263739Y-113103910D01*
X167118749Y-113316110D01*
X167067740Y-113568000D01*
X167067740Y-115092000D01*
X167112018Y-115327317D01*
X167251090Y-115543441D01*
X167463290Y-115688431D01*
X167679724Y-115732260D01*
X167455365Y-115882172D01*
X167152533Y-116335391D01*
X167046193Y-116870000D01*
X165255000Y-116870000D01*
X165255000Y-104398121D01*
X170281484Y-104398121D01*
X170506154Y-104772168D01*
X171489388Y-105170880D01*
X172550357Y-105162975D01*
X173493846Y-104772168D01*
X173718516Y-104398121D01*
X172000000Y-102679605D01*
X170281484Y-104398121D01*
X165255000Y-104398121D01*
X165255000Y-101989388D01*
X169329120Y-101989388D01*
X169337025Y-103050357D01*
X169727832Y-103993846D01*
X170101879Y-104218516D01*
X171820395Y-102500000D01*
X170101879Y-100781484D01*
X169727832Y-101006154D01*
X169329120Y-101989388D01*
X165255000Y-101989388D01*
X165255000Y-100601879D01*
X170281484Y-100601879D01*
X172000000Y-102320395D01*
X173718516Y-100601879D01*
X173493846Y-100227832D01*
X172510612Y-99829120D01*
X171449643Y-99837025D01*
X170506154Y-100227832D01*
X170281484Y-100601879D01*
X165255000Y-100601879D01*
X165255000Y-96916580D01*
X169181579Y-92990000D01*
X171354995Y-92990000D01*
X171355000Y-92990001D01*
X171637484Y-92933810D01*
X171693675Y-92922633D01*
X171980790Y-92730790D01*
X173885787Y-90825792D01*
X173885790Y-90825790D01*
X174077633Y-90538675D01*
X174096885Y-90441890D01*
X174145001Y-90200000D01*
X174145000Y-90199995D01*
X174145000Y-86390005D01*
X174145001Y-86390000D01*
X174077634Y-86051326D01*
X173958213Y-85872599D01*
X173885790Y-85764210D01*
X173885787Y-85764208D01*
X173250790Y-85129210D01*
X173195189Y-85092059D01*
X173122151Y-85043256D01*
X173157931Y-84990890D01*
X173208940Y-84739000D01*
X173208940Y-84231000D01*
X173164662Y-83995683D01*
X173070334Y-83849093D01*
X173157931Y-83720890D01*
X173208940Y-83469000D01*
X173208940Y-82961000D01*
X173164662Y-82725683D01*
X173025590Y-82509559D01*
X172824914Y-82372443D01*
X172924838Y-82131799D01*
X172925162Y-81759833D01*
X172783117Y-81416057D01*
X172520327Y-81152808D01*
X172176799Y-81010162D01*
X171804833Y-81009838D01*
X171562440Y-81109993D01*
X171562440Y-80025000D01*
X171518162Y-79789683D01*
X171379090Y-79573559D01*
X171166890Y-79428569D01*
X170915000Y-79377560D01*
X169415000Y-79377560D01*
X169179683Y-79421838D01*
X168963559Y-79560910D01*
X168818569Y-79773110D01*
X168815919Y-79786197D01*
X168679090Y-79573559D01*
X168466890Y-79428569D01*
X168215000Y-79377560D01*
X166715000Y-79377560D01*
X166479683Y-79421838D01*
X166263559Y-79560910D01*
X166118569Y-79773110D01*
X166089836Y-79915000D01*
X163412891Y-79915000D01*
X163366890Y-79883569D01*
X163115000Y-79832560D01*
X161815000Y-79832560D01*
X161579683Y-79876838D01*
X161363559Y-80015910D01*
X161218569Y-80228110D01*
X161167560Y-80480000D01*
X161167560Y-81980000D01*
X161211838Y-82215317D01*
X161350910Y-82431441D01*
X161563110Y-82576431D01*
X161596490Y-82583191D01*
X161455301Y-82641673D01*
X161276673Y-82820302D01*
X161180000Y-83053691D01*
X161180000Y-83644250D01*
X161338750Y-83803000D01*
X162338000Y-83803000D01*
X162338000Y-83783000D01*
X162592000Y-83783000D01*
X162592000Y-83803000D01*
X162612000Y-83803000D01*
X162612000Y-84057000D01*
X162592000Y-84057000D01*
X162592000Y-84077000D01*
X162338000Y-84077000D01*
X162338000Y-84057000D01*
X161338750Y-84057000D01*
X161180000Y-84215750D01*
X161180000Y-84806309D01*
X161276673Y-85039698D01*
X161351108Y-85114133D01*
X161218569Y-85308110D01*
X161167560Y-85560000D01*
X161167560Y-87060000D01*
X161211838Y-87295317D01*
X161350910Y-87511441D01*
X161563110Y-87656431D01*
X161576197Y-87659081D01*
X161363559Y-87795910D01*
X161218569Y-88008110D01*
X161167560Y-88260000D01*
X161167560Y-89055861D01*
X159086299Y-91137122D01*
X159046172Y-90935391D01*
X158743340Y-90482172D01*
X158321041Y-90200000D01*
X158743340Y-89917828D01*
X159046172Y-89464609D01*
X159152512Y-88930000D01*
X159046172Y-88395391D01*
X158743340Y-87942172D01*
X158321041Y-87660000D01*
X158743340Y-87377828D01*
X159046172Y-86924609D01*
X159152512Y-86390000D01*
X159046172Y-85855391D01*
X158743340Y-85402172D01*
X158308107Y-85111358D01*
X158373491Y-85092059D01*
X158799180Y-84748026D01*
X159060810Y-84267277D01*
X159075770Y-84193070D01*
X158953270Y-83977000D01*
X157512000Y-83977000D01*
X157512000Y-83997000D01*
X157258000Y-83997000D01*
X157258000Y-83977000D01*
X155816730Y-83977000D01*
X155694230Y-84193070D01*
X155709190Y-84267277D01*
X155970820Y-84748026D01*
X156396509Y-85092059D01*
X156461893Y-85111358D01*
X156026660Y-85402172D01*
X155723828Y-85855391D01*
X155617488Y-86390000D01*
X155723828Y-86924609D01*
X156026660Y-87377828D01*
X156448959Y-87660000D01*
X156026660Y-87942172D01*
X155723828Y-88395391D01*
X155617488Y-88930000D01*
X155723828Y-89464609D01*
X156026660Y-89917828D01*
X156448959Y-90200000D01*
X156026660Y-90482172D01*
X155723828Y-90935391D01*
X155617488Y-91470000D01*
X155723828Y-92004609D01*
X156026660Y-92457828D01*
X156448959Y-92740000D01*
X156026660Y-93022172D01*
X155723828Y-93475391D01*
X155617488Y-94010000D01*
X155723828Y-94544609D01*
X156026660Y-94997828D01*
X156448959Y-95280000D01*
X156026660Y-95562172D01*
X155723828Y-96015391D01*
X155617488Y-96550000D01*
X155723828Y-97084609D01*
X156026660Y-97537828D01*
X156448959Y-97820000D01*
X156026660Y-98102172D01*
X155723828Y-98555391D01*
X155617488Y-99090000D01*
X155723828Y-99624609D01*
X156026660Y-100077828D01*
X156448959Y-100360000D01*
X156026660Y-100642172D01*
X155723828Y-101095391D01*
X155617488Y-101630000D01*
X155723828Y-102164609D01*
X156026660Y-102617828D01*
X156448959Y-102900000D01*
X156026660Y-103182172D01*
X155723828Y-103635391D01*
X155617488Y-104170000D01*
X155723828Y-104704609D01*
X156026660Y-105157828D01*
X156448959Y-105440000D01*
X156026660Y-105722172D01*
X155723828Y-106175391D01*
X155617488Y-106710000D01*
X155723828Y-107244609D01*
X156026660Y-107697828D01*
X156448312Y-107979567D01*
X156025365Y-108262172D01*
X155722533Y-108715391D01*
X155616193Y-109250000D01*
X155345000Y-109250000D01*
X155345000Y-83050132D01*
X155950132Y-82445000D01*
X156246918Y-82445000D01*
X156461893Y-82588642D01*
X156396509Y-82607941D01*
X155970820Y-82951974D01*
X155709190Y-83432723D01*
X155694230Y-83506930D01*
X155816730Y-83723000D01*
X157258000Y-83723000D01*
X157258000Y-83703000D01*
X157512000Y-83703000D01*
X157512000Y-83723000D01*
X158953270Y-83723000D01*
X159075770Y-83506930D01*
X159060810Y-83432723D01*
X158799180Y-82951974D01*
X158373491Y-82607941D01*
X158308107Y-82588642D01*
X158743340Y-82297828D01*
X159046172Y-81844609D01*
X159152512Y-81310000D01*
X159046172Y-80775391D01*
X158743340Y-80322172D01*
X158290121Y-80019340D01*
X157755512Y-79913000D01*
X157014488Y-79913000D01*
X156479879Y-80019340D01*
X156246918Y-80175000D01*
X155480000Y-80175000D01*
X155045654Y-80261397D01*
X154861925Y-80384161D01*
X154677434Y-80507434D01*
X153407434Y-81777434D01*
X153161397Y-82145654D01*
X153075000Y-82580000D01*
X149191370Y-82580000D01*
X149759655Y-82012707D01*
X150166536Y-81032827D01*
X150167462Y-79971828D01*
X149762291Y-78991239D01*
X149012707Y-78240345D01*
X148939628Y-78210000D01*
X172930069Y-78210000D01*
X173488338Y-78321046D01*
X173902333Y-78597669D01*
X174178953Y-79011660D01*
X174290000Y-79569931D01*
X174290000Y-101049204D01*
X174272168Y-101006154D01*
X173898121Y-100781484D01*
X172179605Y-102500000D01*
X173898121Y-104218516D01*
X174272168Y-103993846D01*
X174290000Y-103949872D01*
X174290000Y-125430069D01*
X174178953Y-125988340D01*
X173902333Y-126402331D01*
X173488338Y-126678954D01*
X172930069Y-126790000D01*
X149992000Y-126790000D01*
X149992000Y-125468070D01*
X153787960Y-125468070D01*
X153802920Y-125542277D01*
X154064550Y-126023026D01*
X154490239Y-126367059D01*
X155015180Y-126522000D01*
X155353000Y-126522000D01*
X155353000Y-125252000D01*
X155607000Y-125252000D01*
X155607000Y-126522000D01*
X155944820Y-126522000D01*
X156469761Y-126367059D01*
X156895450Y-126023026D01*
X157157080Y-125542277D01*
X157172040Y-125468070D01*
X158232960Y-125468070D01*
X158247920Y-125542277D01*
X158509550Y-126023026D01*
X158935239Y-126367059D01*
X159460180Y-126522000D01*
X159798000Y-126522000D01*
X159798000Y-125252000D01*
X160052000Y-125252000D01*
X160052000Y-126522000D01*
X160389820Y-126522000D01*
X160914761Y-126367059D01*
X161340450Y-126023026D01*
X161602080Y-125542277D01*
X161617040Y-125468070D01*
X162677960Y-125468070D01*
X162692920Y-125542277D01*
X162954550Y-126023026D01*
X163380239Y-126367059D01*
X163905180Y-126522000D01*
X164243000Y-126522000D01*
X164243000Y-125252000D01*
X164497000Y-125252000D01*
X164497000Y-126522000D01*
X164834820Y-126522000D01*
X165359761Y-126367059D01*
X165785450Y-126023026D01*
X166047080Y-125542277D01*
X166062040Y-125468070D01*
X165939540Y-125252000D01*
X164497000Y-125252000D01*
X164243000Y-125252000D01*
X162800460Y-125252000D01*
X162677960Y-125468070D01*
X161617040Y-125468070D01*
X161494540Y-125252000D01*
X160052000Y-125252000D01*
X159798000Y-125252000D01*
X158355460Y-125252000D01*
X158232960Y-125468070D01*
X157172040Y-125468070D01*
X157049540Y-125252000D01*
X155607000Y-125252000D01*
X155353000Y-125252000D01*
X153910460Y-125252000D01*
X153787960Y-125468070D01*
X149992000Y-125468070D01*
X149992000Y-125453157D01*
X150166536Y-125032827D01*
X150167462Y-123971828D01*
X149992000Y-123547177D01*
X149992000Y-120045000D01*
X153711193Y-120045000D01*
X153817533Y-120579609D01*
X154120365Y-121032828D01*
X154542664Y-121315000D01*
X154120365Y-121597172D01*
X153817533Y-122050391D01*
X153711193Y-122585000D01*
X153817533Y-123119609D01*
X154120365Y-123572828D01*
X154555606Y-123863647D01*
X154490239Y-123882941D01*
X154064550Y-124226974D01*
X153802920Y-124707723D01*
X153787960Y-124781930D01*
X153910460Y-124998000D01*
X155353000Y-124998000D01*
X155353000Y-124978000D01*
X155607000Y-124978000D01*
X155607000Y-124998000D01*
X157049540Y-124998000D01*
X157172040Y-124781930D01*
X157157080Y-124707723D01*
X156895450Y-124226974D01*
X156469761Y-123882941D01*
X156404394Y-123863647D01*
X156839635Y-123572828D01*
X157142467Y-123119609D01*
X157248807Y-122585000D01*
X158156193Y-122585000D01*
X158262533Y-123119609D01*
X158565365Y-123572828D01*
X159000606Y-123863647D01*
X158935239Y-123882941D01*
X158509550Y-124226974D01*
X158247920Y-124707723D01*
X158232960Y-124781930D01*
X158355460Y-124998000D01*
X159798000Y-124998000D01*
X159798000Y-124978000D01*
X160052000Y-124978000D01*
X160052000Y-124998000D01*
X161494540Y-124998000D01*
X161617040Y-124781930D01*
X161602080Y-124707723D01*
X161340450Y-124226974D01*
X160914761Y-123882941D01*
X160849394Y-123863647D01*
X161284635Y-123572828D01*
X161587467Y-123119609D01*
X161693807Y-122585000D01*
X161587467Y-122050391D01*
X161284635Y-121597172D01*
X161060870Y-121447657D01*
X161260137Y-121410162D01*
X161476261Y-121271090D01*
X161621251Y-121058890D01*
X161672260Y-120807000D01*
X161672260Y-119283000D01*
X161627982Y-119047683D01*
X161488910Y-118831559D01*
X161276710Y-118686569D01*
X161024820Y-118635560D01*
X158825180Y-118635560D01*
X158589863Y-118679838D01*
X158373739Y-118818910D01*
X158228749Y-119031110D01*
X158177740Y-119283000D01*
X158177740Y-120807000D01*
X158222018Y-121042317D01*
X158361090Y-121258441D01*
X158573290Y-121403431D01*
X158789724Y-121447260D01*
X158565365Y-121597172D01*
X158262533Y-122050391D01*
X158156193Y-122585000D01*
X157248807Y-122585000D01*
X157142467Y-122050391D01*
X156839635Y-121597172D01*
X156417336Y-121315000D01*
X156839635Y-121032828D01*
X157142467Y-120579609D01*
X157248807Y-120045000D01*
X157142467Y-119510391D01*
X156839635Y-119057172D01*
X156615870Y-118907657D01*
X156815137Y-118870162D01*
X157031261Y-118731090D01*
X157176251Y-118518890D01*
X157227260Y-118267000D01*
X157227260Y-116743000D01*
X157182982Y-116507683D01*
X157043910Y-116291559D01*
X156831710Y-116146569D01*
X156579820Y-116095560D01*
X154380180Y-116095560D01*
X154144863Y-116139838D01*
X153928739Y-116278910D01*
X153783749Y-116491110D01*
X153732740Y-116743000D01*
X153732740Y-118267000D01*
X153777018Y-118502317D01*
X153916090Y-118718441D01*
X154128290Y-118863431D01*
X154344724Y-118907260D01*
X154120365Y-119057172D01*
X153817533Y-119510391D01*
X153711193Y-120045000D01*
X149992000Y-120045000D01*
X149992000Y-100000000D01*
X149981994Y-99950590D01*
X149953553Y-99908965D01*
X149911159Y-99881685D01*
X149865000Y-99873000D01*
X125710000Y-99873000D01*
X125710000Y-97459285D01*
X144569760Y-97459285D01*
X144780169Y-97968515D01*
X145169436Y-98358461D01*
X145678298Y-98569759D01*
X146229285Y-98570240D01*
X146738515Y-98359831D01*
X147128461Y-97970564D01*
X147339759Y-97461702D01*
X147340240Y-96910715D01*
X147129831Y-96401485D01*
X146740564Y-96011539D01*
X146524021Y-95921623D01*
X146678923Y-95857460D01*
X146746912Y-95616517D01*
X145955000Y-94824605D01*
X145163088Y-95616517D01*
X145231077Y-95857460D01*
X145397621Y-95916732D01*
X145171485Y-96010169D01*
X144781539Y-96399436D01*
X144570241Y-96908298D01*
X144569760Y-97459285D01*
X125710000Y-97459285D01*
X125710000Y-94440171D01*
X144557799Y-94440171D01*
X144585770Y-94990448D01*
X144742540Y-95368923D01*
X144983483Y-95436912D01*
X145775395Y-94645000D01*
X146134605Y-94645000D01*
X146926517Y-95436912D01*
X147167460Y-95368923D01*
X147352201Y-94849829D01*
X147324230Y-94299552D01*
X147167460Y-93921077D01*
X146926517Y-93853088D01*
X146134605Y-94645000D01*
X145775395Y-94645000D01*
X144983483Y-93853088D01*
X144742540Y-93921077D01*
X144557799Y-94440171D01*
X125710000Y-94440171D01*
X125710000Y-93673483D01*
X145163088Y-93673483D01*
X145955000Y-94465395D01*
X146746912Y-93673483D01*
X146678923Y-93432540D01*
X146159829Y-93247799D01*
X145609552Y-93275770D01*
X145231077Y-93432540D01*
X145163088Y-93673483D01*
X125710000Y-93673483D01*
X125710000Y-81880159D01*
X129699446Y-81880159D01*
X129785852Y-82136643D01*
X130359336Y-82346458D01*
X130969460Y-82320839D01*
X131414148Y-82136643D01*
X131500554Y-81880159D01*
X130600000Y-80979605D01*
X129699446Y-81880159D01*
X125710000Y-81880159D01*
X125710000Y-80559336D01*
X129053542Y-80559336D01*
X129079161Y-81169460D01*
X129263357Y-81614148D01*
X129519841Y-81700554D01*
X130420395Y-80800000D01*
X130779605Y-80800000D01*
X131680159Y-81700554D01*
X131936643Y-81614148D01*
X132123289Y-81103991D01*
X137064735Y-81103991D01*
X137297932Y-81668371D01*
X137729357Y-82100551D01*
X138293330Y-82334733D01*
X138903991Y-82335265D01*
X139468371Y-82102068D01*
X139900551Y-81670643D01*
X140134733Y-81106670D01*
X140135265Y-80496009D01*
X139902068Y-79931629D01*
X139470643Y-79499449D01*
X138906670Y-79265267D01*
X138296009Y-79264735D01*
X137731629Y-79497932D01*
X137299449Y-79929357D01*
X137065267Y-80493330D01*
X137064735Y-81103991D01*
X132123289Y-81103991D01*
X132146458Y-81040664D01*
X132120839Y-80430540D01*
X131936643Y-79985852D01*
X131680159Y-79899446D01*
X130779605Y-80800000D01*
X130420395Y-80800000D01*
X129519841Y-79899446D01*
X129263357Y-79985852D01*
X129053542Y-80559336D01*
X125710000Y-80559336D01*
X125710000Y-79719841D01*
X129699446Y-79719841D01*
X130600000Y-80620395D01*
X131500554Y-79719841D01*
X131414148Y-79463357D01*
X130840664Y-79253542D01*
X130230540Y-79279161D01*
X129785852Y-79463357D01*
X129699446Y-79719841D01*
X125710000Y-79719841D01*
X125710000Y-79569931D01*
X125821046Y-79011662D01*
X126097669Y-78597667D01*
X126511660Y-78321047D01*
X127069931Y-78210000D01*
X146058300Y-78210000D01*
X145991239Y-78237709D01*
M02*
