G04 #@! TF.FileFunction,Legend,Bot*
%FSLAX46Y46*%
G04 Gerber Fmt 4.6, Leading zero omitted, Abs format (unit mm)*
G04 Created by KiCad (PCBNEW 4.0.1-stable) date 8-3-2016 22:19:15*
%MOMM*%
G01*
G04 APERTURE LIST*
%ADD10C,0.100000*%
%ADD11C,0.300000*%
G04 APERTURE END LIST*
D10*
D11*
X146999999Y-85578571D02*
X147499999Y-84864286D01*
X147857142Y-85578571D02*
X147857142Y-84078571D01*
X147285714Y-84078571D01*
X147142856Y-84150000D01*
X147071428Y-84221429D01*
X146999999Y-84364286D01*
X146999999Y-84578571D01*
X147071428Y-84721429D01*
X147142856Y-84792857D01*
X147285714Y-84864286D01*
X147857142Y-84864286D01*
X145785714Y-85507143D02*
X145928571Y-85578571D01*
X146214285Y-85578571D01*
X146357142Y-85507143D01*
X146428571Y-85364286D01*
X146428571Y-84792857D01*
X146357142Y-84650000D01*
X146214285Y-84578571D01*
X145928571Y-84578571D01*
X145785714Y-84650000D01*
X145714285Y-84792857D01*
X145714285Y-84935714D01*
X146428571Y-85078571D01*
X145285714Y-84578571D02*
X144714285Y-84578571D01*
X145071428Y-84078571D02*
X145071428Y-85364286D01*
X145000000Y-85507143D01*
X144857142Y-85578571D01*
X144714285Y-85578571D01*
X144214285Y-85578571D02*
X144214285Y-84578571D01*
X144214285Y-84864286D02*
X144142857Y-84721429D01*
X144071428Y-84650000D01*
X143928571Y-84578571D01*
X143785714Y-84578571D01*
X143071428Y-85578571D02*
X143214286Y-85507143D01*
X143285714Y-85435714D01*
X143357143Y-85292857D01*
X143357143Y-84864286D01*
X143285714Y-84721429D01*
X143214286Y-84650000D01*
X143071428Y-84578571D01*
X142857143Y-84578571D01*
X142714286Y-84650000D01*
X142642857Y-84721429D01*
X142571428Y-84864286D01*
X142571428Y-85292857D01*
X142642857Y-85435714D01*
X142714286Y-85507143D01*
X142857143Y-85578571D01*
X143071428Y-85578571D01*
X142142857Y-84078571D02*
X141285714Y-84078571D01*
X141714285Y-85578571D02*
X141714285Y-84078571D01*
X140071428Y-85578571D02*
X140785714Y-85578571D01*
X140785714Y-84078571D01*
X137785714Y-85578571D02*
X137785714Y-84078571D01*
X137785714Y-85507143D02*
X137928571Y-85578571D01*
X138214285Y-85578571D01*
X138357143Y-85507143D01*
X138428571Y-85435714D01*
X138500000Y-85292857D01*
X138500000Y-84864286D01*
X138428571Y-84721429D01*
X138357143Y-84650000D01*
X138214285Y-84578571D01*
X137928571Y-84578571D01*
X137785714Y-84650000D01*
X137071428Y-85578571D02*
X137071428Y-84578571D01*
X137071428Y-84078571D02*
X137142857Y-84150000D01*
X137071428Y-84221429D01*
X137000000Y-84150000D01*
X137071428Y-84078571D01*
X137071428Y-84221429D01*
X136357142Y-85578571D02*
X136357142Y-84578571D01*
X136357142Y-84721429D02*
X136285714Y-84650000D01*
X136142856Y-84578571D01*
X135928571Y-84578571D01*
X135785714Y-84650000D01*
X135714285Y-84792857D01*
X135714285Y-85578571D01*
X135714285Y-84792857D02*
X135642856Y-84650000D01*
X135499999Y-84578571D01*
X135285714Y-84578571D01*
X135142856Y-84650000D01*
X135071428Y-84792857D01*
X135071428Y-85578571D01*
X134357142Y-85578571D02*
X134357142Y-84578571D01*
X134357142Y-84721429D02*
X134285714Y-84650000D01*
X134142856Y-84578571D01*
X133928571Y-84578571D01*
X133785714Y-84650000D01*
X133714285Y-84792857D01*
X133714285Y-85578571D01*
X133714285Y-84792857D02*
X133642856Y-84650000D01*
X133499999Y-84578571D01*
X133285714Y-84578571D01*
X133142856Y-84650000D01*
X133071428Y-84792857D01*
X133071428Y-85578571D01*
X131785714Y-85507143D02*
X131928571Y-85578571D01*
X132214285Y-85578571D01*
X132357142Y-85507143D01*
X132428571Y-85364286D01*
X132428571Y-84792857D01*
X132357142Y-84650000D01*
X132214285Y-84578571D01*
X131928571Y-84578571D01*
X131785714Y-84650000D01*
X131714285Y-84792857D01*
X131714285Y-84935714D01*
X132428571Y-85078571D01*
X131071428Y-85578571D02*
X131071428Y-84578571D01*
X131071428Y-84864286D02*
X131000000Y-84721429D01*
X130928571Y-84650000D01*
X130785714Y-84578571D01*
X130642857Y-84578571D01*
X129142857Y-84578571D02*
X128785714Y-85578571D01*
X128428572Y-84578571D01*
X127071429Y-85578571D02*
X127928572Y-85578571D01*
X127500000Y-85578571D02*
X127500000Y-84078571D01*
X127642857Y-84292857D01*
X127785715Y-84435714D01*
X127928572Y-84507143D01*
X146035714Y-88878571D02*
X145178571Y-88878571D01*
X145607142Y-90378571D02*
X145607142Y-88878571D01*
X144678571Y-90378571D02*
X144678571Y-89378571D01*
X144678571Y-88878571D02*
X144750000Y-88950000D01*
X144678571Y-89021429D01*
X144607143Y-88950000D01*
X144678571Y-88878571D01*
X144678571Y-89021429D01*
X143964285Y-90378571D02*
X143964285Y-89378571D01*
X143964285Y-89521429D02*
X143892857Y-89450000D01*
X143749999Y-89378571D01*
X143535714Y-89378571D01*
X143392857Y-89450000D01*
X143321428Y-89592857D01*
X143321428Y-90378571D01*
X143321428Y-89592857D02*
X143249999Y-89450000D01*
X143107142Y-89378571D01*
X142892857Y-89378571D01*
X142749999Y-89450000D01*
X142678571Y-89592857D01*
X142678571Y-90378571D01*
X141749999Y-90378571D02*
X141892857Y-90307143D01*
X141964285Y-90235714D01*
X142035714Y-90092857D01*
X142035714Y-89664286D01*
X141964285Y-89521429D01*
X141892857Y-89450000D01*
X141749999Y-89378571D01*
X141535714Y-89378571D01*
X141392857Y-89450000D01*
X141321428Y-89521429D01*
X141249999Y-89664286D01*
X141249999Y-90092857D01*
X141321428Y-90235714D01*
X141392857Y-90307143D01*
X141535714Y-90378571D01*
X141749999Y-90378571D01*
X139464285Y-89592857D02*
X138964285Y-89592857D01*
X138749999Y-90378571D02*
X139464285Y-90378571D01*
X139464285Y-88878571D01*
X138749999Y-88878571D01*
X138107142Y-89378571D02*
X138107142Y-90378571D01*
X138107142Y-89521429D02*
X138035714Y-89450000D01*
X137892856Y-89378571D01*
X137678571Y-89378571D01*
X137535714Y-89450000D01*
X137464285Y-89592857D01*
X137464285Y-90378571D01*
X136107142Y-89378571D02*
X136107142Y-90592857D01*
X136178571Y-90735714D01*
X136249999Y-90807143D01*
X136392856Y-90878571D01*
X136607142Y-90878571D01*
X136749999Y-90807143D01*
X136107142Y-90307143D02*
X136249999Y-90378571D01*
X136535713Y-90378571D01*
X136678571Y-90307143D01*
X136749999Y-90235714D01*
X136821428Y-90092857D01*
X136821428Y-89664286D01*
X136749999Y-89521429D01*
X136678571Y-89450000D01*
X136535713Y-89378571D01*
X136249999Y-89378571D01*
X136107142Y-89450000D01*
X134821428Y-90307143D02*
X134964285Y-90378571D01*
X135249999Y-90378571D01*
X135392856Y-90307143D01*
X135464285Y-90164286D01*
X135464285Y-89592857D01*
X135392856Y-89450000D01*
X135249999Y-89378571D01*
X134964285Y-89378571D01*
X134821428Y-89450000D01*
X134749999Y-89592857D01*
X134749999Y-89735714D01*
X135464285Y-89878571D01*
X133892856Y-90378571D02*
X134035714Y-90307143D01*
X134107142Y-90164286D01*
X134107142Y-88878571D01*
X132678571Y-89378571D02*
X132678571Y-90592857D01*
X132750000Y-90735714D01*
X132821428Y-90807143D01*
X132964285Y-90878571D01*
X133178571Y-90878571D01*
X133321428Y-90807143D01*
X132678571Y-90307143D02*
X132821428Y-90378571D01*
X133107142Y-90378571D01*
X133250000Y-90307143D01*
X133321428Y-90235714D01*
X133392857Y-90092857D01*
X133392857Y-89664286D01*
X133321428Y-89521429D01*
X133250000Y-89450000D01*
X133107142Y-89378571D01*
X132821428Y-89378571D01*
X132678571Y-89450000D01*
X131392857Y-90307143D02*
X131535714Y-90378571D01*
X131821428Y-90378571D01*
X131964285Y-90307143D01*
X132035714Y-90164286D01*
X132035714Y-89592857D01*
X131964285Y-89450000D01*
X131821428Y-89378571D01*
X131535714Y-89378571D01*
X131392857Y-89450000D01*
X131321428Y-89592857D01*
X131321428Y-89735714D01*
X132035714Y-89878571D01*
X130107143Y-90307143D02*
X130250000Y-90378571D01*
X130535714Y-90378571D01*
X130678571Y-90307143D01*
X130750000Y-90164286D01*
X130750000Y-89592857D01*
X130678571Y-89450000D01*
X130535714Y-89378571D01*
X130250000Y-89378571D01*
X130107143Y-89450000D01*
X130035714Y-89592857D01*
X130035714Y-89735714D01*
X130750000Y-89878571D01*
X129392857Y-90378571D02*
X129392857Y-89378571D01*
X129392857Y-89664286D02*
X129321429Y-89521429D01*
X129250000Y-89450000D01*
X129107143Y-89378571D01*
X128964286Y-89378571D01*
X140071428Y-91421429D02*
X139999999Y-91350000D01*
X139857142Y-91278571D01*
X139499999Y-91278571D01*
X139357142Y-91350000D01*
X139285713Y-91421429D01*
X139214285Y-91564286D01*
X139214285Y-91707143D01*
X139285713Y-91921429D01*
X140142856Y-92778571D01*
X139214285Y-92778571D01*
X138285714Y-91278571D02*
X138142857Y-91278571D01*
X138000000Y-91350000D01*
X137928571Y-91421429D01*
X137857142Y-91564286D01*
X137785714Y-91850000D01*
X137785714Y-92207143D01*
X137857142Y-92492857D01*
X137928571Y-92635714D01*
X138000000Y-92707143D01*
X138142857Y-92778571D01*
X138285714Y-92778571D01*
X138428571Y-92707143D01*
X138500000Y-92635714D01*
X138571428Y-92492857D01*
X138642857Y-92207143D01*
X138642857Y-91850000D01*
X138571428Y-91564286D01*
X138500000Y-91421429D01*
X138428571Y-91350000D01*
X138285714Y-91278571D01*
X136357143Y-92778571D02*
X137214286Y-92778571D01*
X136785714Y-92778571D02*
X136785714Y-91278571D01*
X136928571Y-91492857D01*
X137071429Y-91635714D01*
X137214286Y-91707143D01*
X135071429Y-91278571D02*
X135357143Y-91278571D01*
X135500000Y-91350000D01*
X135571429Y-91421429D01*
X135714286Y-91635714D01*
X135785715Y-91921429D01*
X135785715Y-92492857D01*
X135714286Y-92635714D01*
X135642858Y-92707143D01*
X135500000Y-92778571D01*
X135214286Y-92778571D01*
X135071429Y-92707143D01*
X135000000Y-92635714D01*
X134928572Y-92492857D01*
X134928572Y-92135714D01*
X135000000Y-91992857D01*
X135071429Y-91921429D01*
X135214286Y-91850000D01*
X135500000Y-91850000D01*
X135642858Y-91921429D01*
X135714286Y-91992857D01*
X135785715Y-92135714D01*
M02*
