G04 #@! TF.FileFunction,Copper,L2,Bot,Signal*
%FSLAX46Y46*%
G04 Gerber Fmt 4.6, Leading zero omitted, Abs format (unit mm)*
G04 Created by KiCad (PCBNEW 4.0.1-stable) date 8-3-2016 22:19:15*
%MOMM*%
G01*
G04 APERTURE LIST*
%ADD10C,0.100000*%
%ADD11C,1.800000*%
%ADD12C,4.064000*%
%ADD13R,2.540000X2.540000*%
%ADD14C,2.540000*%
%ADD15R,2.199640X1.524000*%
%ADD16O,2.199640X1.524000*%
%ADD17O,2.197100X1.524000*%
%ADD18C,1.500000*%
%ADD19R,1.400000X1.000000*%
%ADD20C,0.600000*%
%ADD21C,0.250000*%
%ADD22C,1.000000*%
%ADD23C,0.500000*%
%ADD24C,1.500000*%
%ADD25C,0.254000*%
G04 APERTURE END LIST*
D10*
D11*
X129300000Y-112000000D03*
X139900000Y-112000000D03*
X138600000Y-80800000D03*
X130600000Y-80800000D03*
D12*
X172000000Y-102500000D03*
X147500000Y-80500000D03*
X147500000Y-124500000D03*
D13*
X128175000Y-119410000D03*
D14*
X133255000Y-119410000D03*
X138335000Y-119410000D03*
D15*
X159925000Y-120045000D03*
D16*
X159925000Y-122585000D03*
X159925000Y-125125000D03*
D15*
X155480000Y-117505000D03*
D16*
X155480000Y-120045000D03*
X155480000Y-122585000D03*
X155480000Y-125125000D03*
D15*
X164370000Y-122585000D03*
D16*
X164370000Y-125125000D03*
D15*
X168815000Y-114330000D03*
D16*
X168815000Y-116870000D03*
X168815000Y-119410000D03*
X168815000Y-121950000D03*
X157385000Y-109250000D03*
D17*
X157385000Y-106710000D03*
X157385000Y-104170000D03*
X157385000Y-101630000D03*
X157385000Y-99090000D03*
X157385000Y-96550000D03*
X157385000Y-94010000D03*
X157385000Y-91470000D03*
X157385000Y-88930000D03*
X157385000Y-86390000D03*
X157385000Y-83850000D03*
X157385000Y-81310000D03*
D18*
X145955000Y-114965000D03*
X145955000Y-107345000D03*
X145955000Y-97185000D03*
X145955000Y-94645000D03*
D19*
X162065000Y-115020000D03*
X162065000Y-116520000D03*
X162065000Y-106020000D03*
D20*
X171990000Y-81945000D03*
D21*
X157385000Y-109250000D02*
X157385000Y-115600000D01*
X159925000Y-118140000D02*
X159925000Y-120045000D01*
X157385000Y-115600000D02*
X159925000Y-118140000D01*
X164370000Y-104170000D02*
X171355000Y-111155000D01*
X157385000Y-104170000D02*
X164370000Y-104170000D01*
X170085000Y-116870000D02*
X168815000Y-116870000D01*
X171355000Y-115600000D02*
X170085000Y-116870000D01*
X171355000Y-111155000D02*
X171355000Y-115600000D01*
X168815000Y-119410000D02*
X168815000Y-116870000D01*
X155480000Y-117505000D02*
X155480000Y-116235000D01*
X155480000Y-99090000D02*
X157385000Y-99090000D01*
X154210000Y-100360000D02*
X155480000Y-99090000D01*
X154210000Y-114965000D02*
X154210000Y-100360000D01*
X155480000Y-116235000D02*
X154210000Y-114965000D01*
X155480000Y-120045000D02*
X154210000Y-120045000D01*
X154845000Y-96550000D02*
X157385000Y-96550000D01*
X153575000Y-97820000D02*
X154845000Y-96550000D01*
X153575000Y-119410000D02*
X153575000Y-97820000D01*
X154210000Y-120045000D02*
X153575000Y-119410000D01*
X155480000Y-122585000D02*
X154210000Y-122585000D01*
X155480000Y-94010000D02*
X157385000Y-94010000D01*
X152940000Y-96550000D02*
X155480000Y-94010000D01*
X152940000Y-121315000D02*
X152940000Y-96550000D01*
X154210000Y-122585000D02*
X152940000Y-121315000D01*
X145955000Y-97185000D02*
X147860000Y-97185000D01*
X153575000Y-91470000D02*
X157385000Y-91470000D01*
X147860000Y-97185000D02*
X153575000Y-91470000D01*
D22*
X138600000Y-80800000D02*
X138600000Y-85385000D01*
X155480000Y-81310000D02*
X157385000Y-81310000D01*
X153575000Y-83215000D02*
X155480000Y-81310000D01*
X153575000Y-85120000D02*
X153575000Y-83215000D01*
X149765000Y-88930000D02*
X153575000Y-85120000D01*
X142145000Y-88930000D02*
X149765000Y-88930000D01*
X138600000Y-85385000D02*
X142145000Y-88930000D01*
D23*
X157385000Y-81310000D02*
X171355000Y-81310000D01*
X171355000Y-81310000D02*
X171990000Y-81945000D01*
D21*
X156750000Y-81310000D02*
X171355000Y-81310000D01*
X171355000Y-81310000D02*
X171990000Y-81945000D01*
D24*
X128175000Y-119410000D02*
X128175000Y-113125000D01*
X128175000Y-113125000D02*
X129300000Y-112000000D01*
X139900000Y-112000000D02*
X139900000Y-109590000D01*
X142145000Y-107345000D02*
X145955000Y-107345000D01*
X139900000Y-109590000D02*
X142145000Y-107345000D01*
X133255000Y-119410000D02*
X133255000Y-116235000D01*
X137490000Y-112000000D02*
X139900000Y-112000000D01*
X133255000Y-116235000D02*
X137490000Y-112000000D01*
X138335000Y-119410000D02*
X142780000Y-114965000D01*
X142780000Y-114965000D02*
X145955000Y-114965000D01*
D22*
X162065000Y-115020000D02*
X163155000Y-115020000D01*
X160560000Y-122585000D02*
X159925000Y-122585000D01*
X163735000Y-119410000D02*
X160560000Y-122585000D01*
X163735000Y-115600000D02*
X163735000Y-119410000D01*
X163155000Y-115020000D02*
X163735000Y-115600000D01*
X162065000Y-115020000D02*
X166220000Y-115020000D01*
X166910000Y-114330000D02*
X168815000Y-114330000D01*
X166220000Y-115020000D02*
X166910000Y-114330000D01*
D25*
G36*
X145991239Y-78237709D02*
X145240345Y-78987293D01*
X144833464Y-79967173D01*
X144832538Y-81028172D01*
X145237709Y-82008761D01*
X145987293Y-82759655D01*
X146967173Y-83166536D01*
X148028172Y-83167462D01*
X149008761Y-82762291D01*
X149759655Y-82012707D01*
X150166536Y-81032827D01*
X150167462Y-79971828D01*
X149762291Y-78991239D01*
X149012707Y-78240345D01*
X148939628Y-78210000D01*
X172930069Y-78210000D01*
X173488338Y-78321046D01*
X173902333Y-78597669D01*
X174178953Y-79011660D01*
X174290000Y-79569931D01*
X174290000Y-101049204D01*
X174272168Y-101006154D01*
X173898121Y-100781484D01*
X172179605Y-102500000D01*
X173898121Y-104218516D01*
X174272168Y-103993846D01*
X174290000Y-103949872D01*
X174290000Y-125430069D01*
X174178953Y-125988340D01*
X173902333Y-126402331D01*
X173488338Y-126678954D01*
X172930069Y-126790000D01*
X149992000Y-126790000D01*
X149992000Y-125468070D01*
X153787960Y-125468070D01*
X153802920Y-125542277D01*
X154064550Y-126023026D01*
X154490239Y-126367059D01*
X155015180Y-126522000D01*
X155353000Y-126522000D01*
X155353000Y-125252000D01*
X155607000Y-125252000D01*
X155607000Y-126522000D01*
X155944820Y-126522000D01*
X156469761Y-126367059D01*
X156895450Y-126023026D01*
X157157080Y-125542277D01*
X157172040Y-125468070D01*
X158232960Y-125468070D01*
X158247920Y-125542277D01*
X158509550Y-126023026D01*
X158935239Y-126367059D01*
X159460180Y-126522000D01*
X159798000Y-126522000D01*
X159798000Y-125252000D01*
X160052000Y-125252000D01*
X160052000Y-126522000D01*
X160389820Y-126522000D01*
X160914761Y-126367059D01*
X161340450Y-126023026D01*
X161602080Y-125542277D01*
X161617040Y-125468070D01*
X162677960Y-125468070D01*
X162692920Y-125542277D01*
X162954550Y-126023026D01*
X163380239Y-126367059D01*
X163905180Y-126522000D01*
X164243000Y-126522000D01*
X164243000Y-125252000D01*
X164497000Y-125252000D01*
X164497000Y-126522000D01*
X164834820Y-126522000D01*
X165359761Y-126367059D01*
X165785450Y-126023026D01*
X166047080Y-125542277D01*
X166062040Y-125468070D01*
X165939540Y-125252000D01*
X164497000Y-125252000D01*
X164243000Y-125252000D01*
X162800460Y-125252000D01*
X162677960Y-125468070D01*
X161617040Y-125468070D01*
X161494540Y-125252000D01*
X160052000Y-125252000D01*
X159798000Y-125252000D01*
X158355460Y-125252000D01*
X158232960Y-125468070D01*
X157172040Y-125468070D01*
X157049540Y-125252000D01*
X155607000Y-125252000D01*
X155353000Y-125252000D01*
X153910460Y-125252000D01*
X153787960Y-125468070D01*
X149992000Y-125468070D01*
X149992000Y-125453157D01*
X150166536Y-125032827D01*
X150167462Y-123971828D01*
X149992000Y-123547177D01*
X149992000Y-100000000D01*
X149981994Y-99950590D01*
X149953553Y-99908965D01*
X149911159Y-99881685D01*
X149865000Y-99873000D01*
X125710000Y-99873000D01*
X125710000Y-97459285D01*
X144569760Y-97459285D01*
X144780169Y-97968515D01*
X145169436Y-98358461D01*
X145678298Y-98569759D01*
X146229285Y-98570240D01*
X146738515Y-98359831D01*
X147128461Y-97970564D01*
X147139076Y-97945000D01*
X147860000Y-97945000D01*
X148150839Y-97887148D01*
X148397401Y-97722401D01*
X153889803Y-92230000D01*
X155874430Y-92230000D01*
X156026660Y-92457828D01*
X156448959Y-92740000D01*
X156026660Y-93022172D01*
X155874430Y-93250000D01*
X155480000Y-93250000D01*
X155237414Y-93298254D01*
X155189160Y-93307852D01*
X154942599Y-93472599D01*
X152402599Y-96012599D01*
X152237852Y-96259161D01*
X152180000Y-96550000D01*
X152180000Y-121315000D01*
X152237852Y-121605839D01*
X152402599Y-121852401D01*
X153672599Y-123122401D01*
X153919160Y-123287148D01*
X153931061Y-123289515D01*
X154120365Y-123572828D01*
X154555606Y-123863647D01*
X154490239Y-123882941D01*
X154064550Y-124226974D01*
X153802920Y-124707723D01*
X153787960Y-124781930D01*
X153910460Y-124998000D01*
X155353000Y-124998000D01*
X155353000Y-124978000D01*
X155607000Y-124978000D01*
X155607000Y-124998000D01*
X157049540Y-124998000D01*
X157172040Y-124781930D01*
X157157080Y-124707723D01*
X156895450Y-124226974D01*
X156469761Y-123882941D01*
X156404394Y-123863647D01*
X156839635Y-123572828D01*
X157142467Y-123119609D01*
X157248807Y-122585000D01*
X157142467Y-122050391D01*
X156839635Y-121597172D01*
X156417336Y-121315000D01*
X156839635Y-121032828D01*
X157142467Y-120579609D01*
X157248807Y-120045000D01*
X157142467Y-119510391D01*
X156839635Y-119057172D01*
X156615870Y-118907657D01*
X156815137Y-118870162D01*
X157031261Y-118731090D01*
X157176251Y-118518890D01*
X157227260Y-118267000D01*
X157227260Y-116743000D01*
X157182982Y-116507683D01*
X157119992Y-116409794D01*
X159165000Y-118454802D01*
X159165000Y-118635560D01*
X158825180Y-118635560D01*
X158589863Y-118679838D01*
X158373739Y-118818910D01*
X158228749Y-119031110D01*
X158177740Y-119283000D01*
X158177740Y-120807000D01*
X158222018Y-121042317D01*
X158361090Y-121258441D01*
X158573290Y-121403431D01*
X158789724Y-121447260D01*
X158565365Y-121597172D01*
X158262533Y-122050391D01*
X158156193Y-122585000D01*
X158262533Y-123119609D01*
X158565365Y-123572828D01*
X159000606Y-123863647D01*
X158935239Y-123882941D01*
X158509550Y-124226974D01*
X158247920Y-124707723D01*
X158232960Y-124781930D01*
X158355460Y-124998000D01*
X159798000Y-124998000D01*
X159798000Y-124978000D01*
X160052000Y-124978000D01*
X160052000Y-124998000D01*
X161494540Y-124998000D01*
X161617040Y-124781930D01*
X161602080Y-124707723D01*
X161340450Y-124226974D01*
X160914761Y-123882941D01*
X160849394Y-123863647D01*
X161284635Y-123572828D01*
X161500766Y-123249366D01*
X162622740Y-122127392D01*
X162622740Y-123347000D01*
X162667018Y-123582317D01*
X162806090Y-123798441D01*
X163018290Y-123943431D01*
X163247867Y-123989921D01*
X162954550Y-124226974D01*
X162692920Y-124707723D01*
X162677960Y-124781930D01*
X162800460Y-124998000D01*
X164243000Y-124998000D01*
X164243000Y-124978000D01*
X164497000Y-124978000D01*
X164497000Y-124998000D01*
X165939540Y-124998000D01*
X166062040Y-124781930D01*
X166047080Y-124707723D01*
X165785450Y-124226974D01*
X165492454Y-123990181D01*
X165705137Y-123950162D01*
X165921261Y-123811090D01*
X166066251Y-123598890D01*
X166117260Y-123347000D01*
X166117260Y-122293070D01*
X167122960Y-122293070D01*
X167137920Y-122367277D01*
X167399550Y-122848026D01*
X167825239Y-123192059D01*
X168350180Y-123347000D01*
X168688000Y-123347000D01*
X168688000Y-122077000D01*
X168942000Y-122077000D01*
X168942000Y-123347000D01*
X169279820Y-123347000D01*
X169804761Y-123192059D01*
X170230450Y-122848026D01*
X170492080Y-122367277D01*
X170507040Y-122293070D01*
X170384540Y-122077000D01*
X168942000Y-122077000D01*
X168688000Y-122077000D01*
X167245460Y-122077000D01*
X167122960Y-122293070D01*
X166117260Y-122293070D01*
X166117260Y-121823000D01*
X166072982Y-121587683D01*
X165933910Y-121371559D01*
X165721710Y-121226569D01*
X165469820Y-121175560D01*
X163574572Y-121175560D01*
X164537566Y-120212566D01*
X164649530Y-120045000D01*
X164783603Y-119844346D01*
X164870000Y-119410000D01*
X164870000Y-116155000D01*
X166220000Y-116155000D01*
X166654346Y-116068603D01*
X167022566Y-115822566D01*
X167281151Y-115563981D01*
X167463290Y-115688431D01*
X167679724Y-115732260D01*
X167455365Y-115882172D01*
X167152533Y-116335391D01*
X167046193Y-116870000D01*
X167152533Y-117404609D01*
X167455365Y-117857828D01*
X167877664Y-118140000D01*
X167455365Y-118422172D01*
X167152533Y-118875391D01*
X167046193Y-119410000D01*
X167152533Y-119944609D01*
X167455365Y-120397828D01*
X167890606Y-120688647D01*
X167825239Y-120707941D01*
X167399550Y-121051974D01*
X167137920Y-121532723D01*
X167122960Y-121606930D01*
X167245460Y-121823000D01*
X168688000Y-121823000D01*
X168688000Y-121803000D01*
X168942000Y-121803000D01*
X168942000Y-121823000D01*
X170384540Y-121823000D01*
X170507040Y-121606930D01*
X170492080Y-121532723D01*
X170230450Y-121051974D01*
X169804761Y-120707941D01*
X169739394Y-120688647D01*
X170174635Y-120397828D01*
X170477467Y-119944609D01*
X170583807Y-119410000D01*
X170477467Y-118875391D01*
X170174635Y-118422172D01*
X169752336Y-118140000D01*
X170174635Y-117857828D01*
X170363939Y-117574515D01*
X170375839Y-117572148D01*
X170622401Y-117407401D01*
X171892401Y-116137401D01*
X172057148Y-115890840D01*
X172115000Y-115600000D01*
X172115000Y-111155000D01*
X172057148Y-110864161D01*
X171892401Y-110617599D01*
X165672923Y-104398121D01*
X170281484Y-104398121D01*
X170506154Y-104772168D01*
X171489388Y-105170880D01*
X172550357Y-105162975D01*
X173493846Y-104772168D01*
X173718516Y-104398121D01*
X172000000Y-102679605D01*
X170281484Y-104398121D01*
X165672923Y-104398121D01*
X164907401Y-103632599D01*
X164660839Y-103467852D01*
X164370000Y-103410000D01*
X158895570Y-103410000D01*
X158743340Y-103182172D01*
X158321041Y-102900000D01*
X158743340Y-102617828D01*
X159046172Y-102164609D01*
X159081025Y-101989388D01*
X169329120Y-101989388D01*
X169337025Y-103050357D01*
X169727832Y-103993846D01*
X170101879Y-104218516D01*
X171820395Y-102500000D01*
X170101879Y-100781484D01*
X169727832Y-101006154D01*
X169329120Y-101989388D01*
X159081025Y-101989388D01*
X159152512Y-101630000D01*
X159046172Y-101095391D01*
X158743340Y-100642172D01*
X158683038Y-100601879D01*
X170281484Y-100601879D01*
X172000000Y-102320395D01*
X173718516Y-100601879D01*
X173493846Y-100227832D01*
X172510612Y-99829120D01*
X171449643Y-99837025D01*
X170506154Y-100227832D01*
X170281484Y-100601879D01*
X158683038Y-100601879D01*
X158321041Y-100360000D01*
X158743340Y-100077828D01*
X159046172Y-99624609D01*
X159152512Y-99090000D01*
X159046172Y-98555391D01*
X158743340Y-98102172D01*
X158321041Y-97820000D01*
X158743340Y-97537828D01*
X159046172Y-97084609D01*
X159152512Y-96550000D01*
X159046172Y-96015391D01*
X158743340Y-95562172D01*
X158321041Y-95280000D01*
X158743340Y-94997828D01*
X159046172Y-94544609D01*
X159152512Y-94010000D01*
X159046172Y-93475391D01*
X158743340Y-93022172D01*
X158321041Y-92740000D01*
X158743340Y-92457828D01*
X159046172Y-92004609D01*
X159152512Y-91470000D01*
X159046172Y-90935391D01*
X158743340Y-90482172D01*
X158321041Y-90200000D01*
X158743340Y-89917828D01*
X159046172Y-89464609D01*
X159152512Y-88930000D01*
X159046172Y-88395391D01*
X158743340Y-87942172D01*
X158321041Y-87660000D01*
X158743340Y-87377828D01*
X159046172Y-86924609D01*
X159152512Y-86390000D01*
X159046172Y-85855391D01*
X158743340Y-85402172D01*
X158308107Y-85111358D01*
X158373491Y-85092059D01*
X158799180Y-84748026D01*
X159060810Y-84267277D01*
X159075770Y-84193070D01*
X158953270Y-83977000D01*
X157512000Y-83977000D01*
X157512000Y-83997000D01*
X157258000Y-83997000D01*
X157258000Y-83977000D01*
X155816730Y-83977000D01*
X155694230Y-84193070D01*
X155709190Y-84267277D01*
X155970820Y-84748026D01*
X156396509Y-85092059D01*
X156461893Y-85111358D01*
X156026660Y-85402172D01*
X155723828Y-85855391D01*
X155617488Y-86390000D01*
X155723828Y-86924609D01*
X156026660Y-87377828D01*
X156448959Y-87660000D01*
X156026660Y-87942172D01*
X155723828Y-88395391D01*
X155617488Y-88930000D01*
X155723828Y-89464609D01*
X156026660Y-89917828D01*
X156448959Y-90200000D01*
X156026660Y-90482172D01*
X155874430Y-90710000D01*
X153575000Y-90710000D01*
X153284161Y-90767852D01*
X153037599Y-90932598D01*
X147545198Y-96425000D01*
X147139547Y-96425000D01*
X147129831Y-96401485D01*
X146740564Y-96011539D01*
X146524021Y-95921623D01*
X146678923Y-95857460D01*
X146746912Y-95616517D01*
X145955000Y-94824605D01*
X145163088Y-95616517D01*
X145231077Y-95857460D01*
X145397621Y-95916732D01*
X145171485Y-96010169D01*
X144781539Y-96399436D01*
X144570241Y-96908298D01*
X144569760Y-97459285D01*
X125710000Y-97459285D01*
X125710000Y-94440171D01*
X144557799Y-94440171D01*
X144585770Y-94990448D01*
X144742540Y-95368923D01*
X144983483Y-95436912D01*
X145775395Y-94645000D01*
X146134605Y-94645000D01*
X146926517Y-95436912D01*
X147167460Y-95368923D01*
X147352201Y-94849829D01*
X147324230Y-94299552D01*
X147167460Y-93921077D01*
X146926517Y-93853088D01*
X146134605Y-94645000D01*
X145775395Y-94645000D01*
X144983483Y-93853088D01*
X144742540Y-93921077D01*
X144557799Y-94440171D01*
X125710000Y-94440171D01*
X125710000Y-93673483D01*
X145163088Y-93673483D01*
X145955000Y-94465395D01*
X146746912Y-93673483D01*
X146678923Y-93432540D01*
X146159829Y-93247799D01*
X145609552Y-93275770D01*
X145231077Y-93432540D01*
X145163088Y-93673483D01*
X125710000Y-93673483D01*
X125710000Y-81880159D01*
X129699446Y-81880159D01*
X129785852Y-82136643D01*
X130359336Y-82346458D01*
X130969460Y-82320839D01*
X131414148Y-82136643D01*
X131500554Y-81880159D01*
X130600000Y-80979605D01*
X129699446Y-81880159D01*
X125710000Y-81880159D01*
X125710000Y-80559336D01*
X129053542Y-80559336D01*
X129079161Y-81169460D01*
X129263357Y-81614148D01*
X129519841Y-81700554D01*
X130420395Y-80800000D01*
X130779605Y-80800000D01*
X131680159Y-81700554D01*
X131936643Y-81614148D01*
X132123289Y-81103991D01*
X137064735Y-81103991D01*
X137297932Y-81668371D01*
X137465000Y-81835731D01*
X137465000Y-85385000D01*
X137551397Y-85819346D01*
X137784763Y-86168603D01*
X137797434Y-86187566D01*
X141342434Y-89732566D01*
X141710654Y-89978603D01*
X142145000Y-90065000D01*
X149765000Y-90065000D01*
X150199346Y-89978603D01*
X150567566Y-89732566D01*
X154377566Y-85922566D01*
X154623604Y-85554345D01*
X154710000Y-85120000D01*
X154710000Y-83685132D01*
X155950132Y-82445000D01*
X156246918Y-82445000D01*
X156461893Y-82588642D01*
X156396509Y-82607941D01*
X155970820Y-82951974D01*
X155709190Y-83432723D01*
X155694230Y-83506930D01*
X155816730Y-83723000D01*
X157258000Y-83723000D01*
X157258000Y-83703000D01*
X157512000Y-83703000D01*
X157512000Y-83723000D01*
X158953270Y-83723000D01*
X159075770Y-83506930D01*
X159060810Y-83432723D01*
X158799180Y-82951974D01*
X158373491Y-82607941D01*
X158308107Y-82588642D01*
X158743340Y-82297828D01*
X158812048Y-82195000D01*
X170988420Y-82195000D01*
X171147255Y-82353835D01*
X171196883Y-82473943D01*
X171459673Y-82737192D01*
X171803201Y-82879838D01*
X172175167Y-82880162D01*
X172518943Y-82738117D01*
X172782192Y-82475327D01*
X172924838Y-82131799D01*
X172925162Y-81759833D01*
X172783117Y-81416057D01*
X172520327Y-81152808D01*
X172399013Y-81102434D01*
X171980790Y-80684210D01*
X171693675Y-80492367D01*
X171637484Y-80481190D01*
X171355000Y-80424999D01*
X171354995Y-80425000D01*
X158812048Y-80425000D01*
X158743340Y-80322172D01*
X158290121Y-80019340D01*
X157755512Y-79913000D01*
X157014488Y-79913000D01*
X156479879Y-80019340D01*
X156246918Y-80175000D01*
X155480000Y-80175000D01*
X155045654Y-80261397D01*
X154889623Y-80365654D01*
X154677434Y-80507434D01*
X152772434Y-82412434D01*
X152526397Y-82780654D01*
X152440000Y-83215000D01*
X152440000Y-84649868D01*
X149294868Y-87795000D01*
X142615132Y-87795000D01*
X139735000Y-84914868D01*
X139735000Y-81835905D01*
X139900551Y-81670643D01*
X140134733Y-81106670D01*
X140135265Y-80496009D01*
X139902068Y-79931629D01*
X139470643Y-79499449D01*
X138906670Y-79265267D01*
X138296009Y-79264735D01*
X137731629Y-79497932D01*
X137299449Y-79929357D01*
X137065267Y-80493330D01*
X137064735Y-81103991D01*
X132123289Y-81103991D01*
X132146458Y-81040664D01*
X132120839Y-80430540D01*
X131936643Y-79985852D01*
X131680159Y-79899446D01*
X130779605Y-80800000D01*
X130420395Y-80800000D01*
X129519841Y-79899446D01*
X129263357Y-79985852D01*
X129053542Y-80559336D01*
X125710000Y-80559336D01*
X125710000Y-79719841D01*
X129699446Y-79719841D01*
X130600000Y-80620395D01*
X131500554Y-79719841D01*
X131414148Y-79463357D01*
X130840664Y-79253542D01*
X130230540Y-79279161D01*
X129785852Y-79463357D01*
X129699446Y-79719841D01*
X125710000Y-79719841D01*
X125710000Y-79569931D01*
X125821046Y-79011662D01*
X126097669Y-78597667D01*
X126511660Y-78321047D01*
X127069931Y-78210000D01*
X146058300Y-78210000D01*
X145991239Y-78237709D01*
X145991239Y-78237709D01*
G37*
X145991239Y-78237709D02*
X145240345Y-78987293D01*
X144833464Y-79967173D01*
X144832538Y-81028172D01*
X145237709Y-82008761D01*
X145987293Y-82759655D01*
X146967173Y-83166536D01*
X148028172Y-83167462D01*
X149008761Y-82762291D01*
X149759655Y-82012707D01*
X150166536Y-81032827D01*
X150167462Y-79971828D01*
X149762291Y-78991239D01*
X149012707Y-78240345D01*
X148939628Y-78210000D01*
X172930069Y-78210000D01*
X173488338Y-78321046D01*
X173902333Y-78597669D01*
X174178953Y-79011660D01*
X174290000Y-79569931D01*
X174290000Y-101049204D01*
X174272168Y-101006154D01*
X173898121Y-100781484D01*
X172179605Y-102500000D01*
X173898121Y-104218516D01*
X174272168Y-103993846D01*
X174290000Y-103949872D01*
X174290000Y-125430069D01*
X174178953Y-125988340D01*
X173902333Y-126402331D01*
X173488338Y-126678954D01*
X172930069Y-126790000D01*
X149992000Y-126790000D01*
X149992000Y-125468070D01*
X153787960Y-125468070D01*
X153802920Y-125542277D01*
X154064550Y-126023026D01*
X154490239Y-126367059D01*
X155015180Y-126522000D01*
X155353000Y-126522000D01*
X155353000Y-125252000D01*
X155607000Y-125252000D01*
X155607000Y-126522000D01*
X155944820Y-126522000D01*
X156469761Y-126367059D01*
X156895450Y-126023026D01*
X157157080Y-125542277D01*
X157172040Y-125468070D01*
X158232960Y-125468070D01*
X158247920Y-125542277D01*
X158509550Y-126023026D01*
X158935239Y-126367059D01*
X159460180Y-126522000D01*
X159798000Y-126522000D01*
X159798000Y-125252000D01*
X160052000Y-125252000D01*
X160052000Y-126522000D01*
X160389820Y-126522000D01*
X160914761Y-126367059D01*
X161340450Y-126023026D01*
X161602080Y-125542277D01*
X161617040Y-125468070D01*
X162677960Y-125468070D01*
X162692920Y-125542277D01*
X162954550Y-126023026D01*
X163380239Y-126367059D01*
X163905180Y-126522000D01*
X164243000Y-126522000D01*
X164243000Y-125252000D01*
X164497000Y-125252000D01*
X164497000Y-126522000D01*
X164834820Y-126522000D01*
X165359761Y-126367059D01*
X165785450Y-126023026D01*
X166047080Y-125542277D01*
X166062040Y-125468070D01*
X165939540Y-125252000D01*
X164497000Y-125252000D01*
X164243000Y-125252000D01*
X162800460Y-125252000D01*
X162677960Y-125468070D01*
X161617040Y-125468070D01*
X161494540Y-125252000D01*
X160052000Y-125252000D01*
X159798000Y-125252000D01*
X158355460Y-125252000D01*
X158232960Y-125468070D01*
X157172040Y-125468070D01*
X157049540Y-125252000D01*
X155607000Y-125252000D01*
X155353000Y-125252000D01*
X153910460Y-125252000D01*
X153787960Y-125468070D01*
X149992000Y-125468070D01*
X149992000Y-125453157D01*
X150166536Y-125032827D01*
X150167462Y-123971828D01*
X149992000Y-123547177D01*
X149992000Y-100000000D01*
X149981994Y-99950590D01*
X149953553Y-99908965D01*
X149911159Y-99881685D01*
X149865000Y-99873000D01*
X125710000Y-99873000D01*
X125710000Y-97459285D01*
X144569760Y-97459285D01*
X144780169Y-97968515D01*
X145169436Y-98358461D01*
X145678298Y-98569759D01*
X146229285Y-98570240D01*
X146738515Y-98359831D01*
X147128461Y-97970564D01*
X147139076Y-97945000D01*
X147860000Y-97945000D01*
X148150839Y-97887148D01*
X148397401Y-97722401D01*
X153889803Y-92230000D01*
X155874430Y-92230000D01*
X156026660Y-92457828D01*
X156448959Y-92740000D01*
X156026660Y-93022172D01*
X155874430Y-93250000D01*
X155480000Y-93250000D01*
X155237414Y-93298254D01*
X155189160Y-93307852D01*
X154942599Y-93472599D01*
X152402599Y-96012599D01*
X152237852Y-96259161D01*
X152180000Y-96550000D01*
X152180000Y-121315000D01*
X152237852Y-121605839D01*
X152402599Y-121852401D01*
X153672599Y-123122401D01*
X153919160Y-123287148D01*
X153931061Y-123289515D01*
X154120365Y-123572828D01*
X154555606Y-123863647D01*
X154490239Y-123882941D01*
X154064550Y-124226974D01*
X153802920Y-124707723D01*
X153787960Y-124781930D01*
X153910460Y-124998000D01*
X155353000Y-124998000D01*
X155353000Y-124978000D01*
X155607000Y-124978000D01*
X155607000Y-124998000D01*
X157049540Y-124998000D01*
X157172040Y-124781930D01*
X157157080Y-124707723D01*
X156895450Y-124226974D01*
X156469761Y-123882941D01*
X156404394Y-123863647D01*
X156839635Y-123572828D01*
X157142467Y-123119609D01*
X157248807Y-122585000D01*
X157142467Y-122050391D01*
X156839635Y-121597172D01*
X156417336Y-121315000D01*
X156839635Y-121032828D01*
X157142467Y-120579609D01*
X157248807Y-120045000D01*
X157142467Y-119510391D01*
X156839635Y-119057172D01*
X156615870Y-118907657D01*
X156815137Y-118870162D01*
X157031261Y-118731090D01*
X157176251Y-118518890D01*
X157227260Y-118267000D01*
X157227260Y-116743000D01*
X157182982Y-116507683D01*
X157119992Y-116409794D01*
X159165000Y-118454802D01*
X159165000Y-118635560D01*
X158825180Y-118635560D01*
X158589863Y-118679838D01*
X158373739Y-118818910D01*
X158228749Y-119031110D01*
X158177740Y-119283000D01*
X158177740Y-120807000D01*
X158222018Y-121042317D01*
X158361090Y-121258441D01*
X158573290Y-121403431D01*
X158789724Y-121447260D01*
X158565365Y-121597172D01*
X158262533Y-122050391D01*
X158156193Y-122585000D01*
X158262533Y-123119609D01*
X158565365Y-123572828D01*
X159000606Y-123863647D01*
X158935239Y-123882941D01*
X158509550Y-124226974D01*
X158247920Y-124707723D01*
X158232960Y-124781930D01*
X158355460Y-124998000D01*
X159798000Y-124998000D01*
X159798000Y-124978000D01*
X160052000Y-124978000D01*
X160052000Y-124998000D01*
X161494540Y-124998000D01*
X161617040Y-124781930D01*
X161602080Y-124707723D01*
X161340450Y-124226974D01*
X160914761Y-123882941D01*
X160849394Y-123863647D01*
X161284635Y-123572828D01*
X161500766Y-123249366D01*
X162622740Y-122127392D01*
X162622740Y-123347000D01*
X162667018Y-123582317D01*
X162806090Y-123798441D01*
X163018290Y-123943431D01*
X163247867Y-123989921D01*
X162954550Y-124226974D01*
X162692920Y-124707723D01*
X162677960Y-124781930D01*
X162800460Y-124998000D01*
X164243000Y-124998000D01*
X164243000Y-124978000D01*
X164497000Y-124978000D01*
X164497000Y-124998000D01*
X165939540Y-124998000D01*
X166062040Y-124781930D01*
X166047080Y-124707723D01*
X165785450Y-124226974D01*
X165492454Y-123990181D01*
X165705137Y-123950162D01*
X165921261Y-123811090D01*
X166066251Y-123598890D01*
X166117260Y-123347000D01*
X166117260Y-122293070D01*
X167122960Y-122293070D01*
X167137920Y-122367277D01*
X167399550Y-122848026D01*
X167825239Y-123192059D01*
X168350180Y-123347000D01*
X168688000Y-123347000D01*
X168688000Y-122077000D01*
X168942000Y-122077000D01*
X168942000Y-123347000D01*
X169279820Y-123347000D01*
X169804761Y-123192059D01*
X170230450Y-122848026D01*
X170492080Y-122367277D01*
X170507040Y-122293070D01*
X170384540Y-122077000D01*
X168942000Y-122077000D01*
X168688000Y-122077000D01*
X167245460Y-122077000D01*
X167122960Y-122293070D01*
X166117260Y-122293070D01*
X166117260Y-121823000D01*
X166072982Y-121587683D01*
X165933910Y-121371559D01*
X165721710Y-121226569D01*
X165469820Y-121175560D01*
X163574572Y-121175560D01*
X164537566Y-120212566D01*
X164649530Y-120045000D01*
X164783603Y-119844346D01*
X164870000Y-119410000D01*
X164870000Y-116155000D01*
X166220000Y-116155000D01*
X166654346Y-116068603D01*
X167022566Y-115822566D01*
X167281151Y-115563981D01*
X167463290Y-115688431D01*
X167679724Y-115732260D01*
X167455365Y-115882172D01*
X167152533Y-116335391D01*
X167046193Y-116870000D01*
X167152533Y-117404609D01*
X167455365Y-117857828D01*
X167877664Y-118140000D01*
X167455365Y-118422172D01*
X167152533Y-118875391D01*
X167046193Y-119410000D01*
X167152533Y-119944609D01*
X167455365Y-120397828D01*
X167890606Y-120688647D01*
X167825239Y-120707941D01*
X167399550Y-121051974D01*
X167137920Y-121532723D01*
X167122960Y-121606930D01*
X167245460Y-121823000D01*
X168688000Y-121823000D01*
X168688000Y-121803000D01*
X168942000Y-121803000D01*
X168942000Y-121823000D01*
X170384540Y-121823000D01*
X170507040Y-121606930D01*
X170492080Y-121532723D01*
X170230450Y-121051974D01*
X169804761Y-120707941D01*
X169739394Y-120688647D01*
X170174635Y-120397828D01*
X170477467Y-119944609D01*
X170583807Y-119410000D01*
X170477467Y-118875391D01*
X170174635Y-118422172D01*
X169752336Y-118140000D01*
X170174635Y-117857828D01*
X170363939Y-117574515D01*
X170375839Y-117572148D01*
X170622401Y-117407401D01*
X171892401Y-116137401D01*
X172057148Y-115890840D01*
X172115000Y-115600000D01*
X172115000Y-111155000D01*
X172057148Y-110864161D01*
X171892401Y-110617599D01*
X165672923Y-104398121D01*
X170281484Y-104398121D01*
X170506154Y-104772168D01*
X171489388Y-105170880D01*
X172550357Y-105162975D01*
X173493846Y-104772168D01*
X173718516Y-104398121D01*
X172000000Y-102679605D01*
X170281484Y-104398121D01*
X165672923Y-104398121D01*
X164907401Y-103632599D01*
X164660839Y-103467852D01*
X164370000Y-103410000D01*
X158895570Y-103410000D01*
X158743340Y-103182172D01*
X158321041Y-102900000D01*
X158743340Y-102617828D01*
X159046172Y-102164609D01*
X159081025Y-101989388D01*
X169329120Y-101989388D01*
X169337025Y-103050357D01*
X169727832Y-103993846D01*
X170101879Y-104218516D01*
X171820395Y-102500000D01*
X170101879Y-100781484D01*
X169727832Y-101006154D01*
X169329120Y-101989388D01*
X159081025Y-101989388D01*
X159152512Y-101630000D01*
X159046172Y-101095391D01*
X158743340Y-100642172D01*
X158683038Y-100601879D01*
X170281484Y-100601879D01*
X172000000Y-102320395D01*
X173718516Y-100601879D01*
X173493846Y-100227832D01*
X172510612Y-99829120D01*
X171449643Y-99837025D01*
X170506154Y-100227832D01*
X170281484Y-100601879D01*
X158683038Y-100601879D01*
X158321041Y-100360000D01*
X158743340Y-100077828D01*
X159046172Y-99624609D01*
X159152512Y-99090000D01*
X159046172Y-98555391D01*
X158743340Y-98102172D01*
X158321041Y-97820000D01*
X158743340Y-97537828D01*
X159046172Y-97084609D01*
X159152512Y-96550000D01*
X159046172Y-96015391D01*
X158743340Y-95562172D01*
X158321041Y-95280000D01*
X158743340Y-94997828D01*
X159046172Y-94544609D01*
X159152512Y-94010000D01*
X159046172Y-93475391D01*
X158743340Y-93022172D01*
X158321041Y-92740000D01*
X158743340Y-92457828D01*
X159046172Y-92004609D01*
X159152512Y-91470000D01*
X159046172Y-90935391D01*
X158743340Y-90482172D01*
X158321041Y-90200000D01*
X158743340Y-89917828D01*
X159046172Y-89464609D01*
X159152512Y-88930000D01*
X159046172Y-88395391D01*
X158743340Y-87942172D01*
X158321041Y-87660000D01*
X158743340Y-87377828D01*
X159046172Y-86924609D01*
X159152512Y-86390000D01*
X159046172Y-85855391D01*
X158743340Y-85402172D01*
X158308107Y-85111358D01*
X158373491Y-85092059D01*
X158799180Y-84748026D01*
X159060810Y-84267277D01*
X159075770Y-84193070D01*
X158953270Y-83977000D01*
X157512000Y-83977000D01*
X157512000Y-83997000D01*
X157258000Y-83997000D01*
X157258000Y-83977000D01*
X155816730Y-83977000D01*
X155694230Y-84193070D01*
X155709190Y-84267277D01*
X155970820Y-84748026D01*
X156396509Y-85092059D01*
X156461893Y-85111358D01*
X156026660Y-85402172D01*
X155723828Y-85855391D01*
X155617488Y-86390000D01*
X155723828Y-86924609D01*
X156026660Y-87377828D01*
X156448959Y-87660000D01*
X156026660Y-87942172D01*
X155723828Y-88395391D01*
X155617488Y-88930000D01*
X155723828Y-89464609D01*
X156026660Y-89917828D01*
X156448959Y-90200000D01*
X156026660Y-90482172D01*
X155874430Y-90710000D01*
X153575000Y-90710000D01*
X153284161Y-90767852D01*
X153037599Y-90932598D01*
X147545198Y-96425000D01*
X147139547Y-96425000D01*
X147129831Y-96401485D01*
X146740564Y-96011539D01*
X146524021Y-95921623D01*
X146678923Y-95857460D01*
X146746912Y-95616517D01*
X145955000Y-94824605D01*
X145163088Y-95616517D01*
X145231077Y-95857460D01*
X145397621Y-95916732D01*
X145171485Y-96010169D01*
X144781539Y-96399436D01*
X144570241Y-96908298D01*
X144569760Y-97459285D01*
X125710000Y-97459285D01*
X125710000Y-94440171D01*
X144557799Y-94440171D01*
X144585770Y-94990448D01*
X144742540Y-95368923D01*
X144983483Y-95436912D01*
X145775395Y-94645000D01*
X146134605Y-94645000D01*
X146926517Y-95436912D01*
X147167460Y-95368923D01*
X147352201Y-94849829D01*
X147324230Y-94299552D01*
X147167460Y-93921077D01*
X146926517Y-93853088D01*
X146134605Y-94645000D01*
X145775395Y-94645000D01*
X144983483Y-93853088D01*
X144742540Y-93921077D01*
X144557799Y-94440171D01*
X125710000Y-94440171D01*
X125710000Y-93673483D01*
X145163088Y-93673483D01*
X145955000Y-94465395D01*
X146746912Y-93673483D01*
X146678923Y-93432540D01*
X146159829Y-93247799D01*
X145609552Y-93275770D01*
X145231077Y-93432540D01*
X145163088Y-93673483D01*
X125710000Y-93673483D01*
X125710000Y-81880159D01*
X129699446Y-81880159D01*
X129785852Y-82136643D01*
X130359336Y-82346458D01*
X130969460Y-82320839D01*
X131414148Y-82136643D01*
X131500554Y-81880159D01*
X130600000Y-80979605D01*
X129699446Y-81880159D01*
X125710000Y-81880159D01*
X125710000Y-80559336D01*
X129053542Y-80559336D01*
X129079161Y-81169460D01*
X129263357Y-81614148D01*
X129519841Y-81700554D01*
X130420395Y-80800000D01*
X130779605Y-80800000D01*
X131680159Y-81700554D01*
X131936643Y-81614148D01*
X132123289Y-81103991D01*
X137064735Y-81103991D01*
X137297932Y-81668371D01*
X137465000Y-81835731D01*
X137465000Y-85385000D01*
X137551397Y-85819346D01*
X137784763Y-86168603D01*
X137797434Y-86187566D01*
X141342434Y-89732566D01*
X141710654Y-89978603D01*
X142145000Y-90065000D01*
X149765000Y-90065000D01*
X150199346Y-89978603D01*
X150567566Y-89732566D01*
X154377566Y-85922566D01*
X154623604Y-85554345D01*
X154710000Y-85120000D01*
X154710000Y-83685132D01*
X155950132Y-82445000D01*
X156246918Y-82445000D01*
X156461893Y-82588642D01*
X156396509Y-82607941D01*
X155970820Y-82951974D01*
X155709190Y-83432723D01*
X155694230Y-83506930D01*
X155816730Y-83723000D01*
X157258000Y-83723000D01*
X157258000Y-83703000D01*
X157512000Y-83703000D01*
X157512000Y-83723000D01*
X158953270Y-83723000D01*
X159075770Y-83506930D01*
X159060810Y-83432723D01*
X158799180Y-82951974D01*
X158373491Y-82607941D01*
X158308107Y-82588642D01*
X158743340Y-82297828D01*
X158812048Y-82195000D01*
X170988420Y-82195000D01*
X171147255Y-82353835D01*
X171196883Y-82473943D01*
X171459673Y-82737192D01*
X171803201Y-82879838D01*
X172175167Y-82880162D01*
X172518943Y-82738117D01*
X172782192Y-82475327D01*
X172924838Y-82131799D01*
X172925162Y-81759833D01*
X172783117Y-81416057D01*
X172520327Y-81152808D01*
X172399013Y-81102434D01*
X171980790Y-80684210D01*
X171693675Y-80492367D01*
X171637484Y-80481190D01*
X171355000Y-80424999D01*
X171354995Y-80425000D01*
X158812048Y-80425000D01*
X158743340Y-80322172D01*
X158290121Y-80019340D01*
X157755512Y-79913000D01*
X157014488Y-79913000D01*
X156479879Y-80019340D01*
X156246918Y-80175000D01*
X155480000Y-80175000D01*
X155045654Y-80261397D01*
X154889623Y-80365654D01*
X154677434Y-80507434D01*
X152772434Y-82412434D01*
X152526397Y-82780654D01*
X152440000Y-83215000D01*
X152440000Y-84649868D01*
X149294868Y-87795000D01*
X142615132Y-87795000D01*
X139735000Y-84914868D01*
X139735000Y-81835905D01*
X139900551Y-81670643D01*
X140134733Y-81106670D01*
X140135265Y-80496009D01*
X139902068Y-79931629D01*
X139470643Y-79499449D01*
X138906670Y-79265267D01*
X138296009Y-79264735D01*
X137731629Y-79497932D01*
X137299449Y-79929357D01*
X137065267Y-80493330D01*
X137064735Y-81103991D01*
X132123289Y-81103991D01*
X132146458Y-81040664D01*
X132120839Y-80430540D01*
X131936643Y-79985852D01*
X131680159Y-79899446D01*
X130779605Y-80800000D01*
X130420395Y-80800000D01*
X129519841Y-79899446D01*
X129263357Y-79985852D01*
X129053542Y-80559336D01*
X125710000Y-80559336D01*
X125710000Y-79719841D01*
X129699446Y-79719841D01*
X130600000Y-80620395D01*
X131500554Y-79719841D01*
X131414148Y-79463357D01*
X130840664Y-79253542D01*
X130230540Y-79279161D01*
X129785852Y-79463357D01*
X129699446Y-79719841D01*
X125710000Y-79719841D01*
X125710000Y-79569931D01*
X125821046Y-79011662D01*
X126097669Y-78597667D01*
X126511660Y-78321047D01*
X127069931Y-78210000D01*
X146058300Y-78210000D01*
X145991239Y-78237709D01*
G36*
X161431383Y-104931836D02*
X161381870Y-105157265D01*
X162065000Y-105840395D01*
X162748130Y-105157265D01*
X162698617Y-104931836D01*
X162693273Y-104930000D01*
X164055198Y-104930000D01*
X170595000Y-111469802D01*
X170595000Y-115285198D01*
X170457196Y-115423002D01*
X170511251Y-115343890D01*
X170562260Y-115092000D01*
X170562260Y-113568000D01*
X170517982Y-113332683D01*
X170378910Y-113116559D01*
X170166710Y-112971569D01*
X169914820Y-112920560D01*
X167715180Y-112920560D01*
X167479863Y-112964838D01*
X167263739Y-113103910D01*
X167201500Y-113195000D01*
X166910000Y-113195000D01*
X166484824Y-113279573D01*
X166475654Y-113281397D01*
X166107434Y-113527434D01*
X165749868Y-113885000D01*
X162552043Y-113885000D01*
X162311734Y-113785215D01*
X161820421Y-113784786D01*
X161366343Y-113972408D01*
X161018629Y-114319515D01*
X160830215Y-114773266D01*
X160829786Y-115264579D01*
X161017408Y-115718657D01*
X161068446Y-115769785D01*
X161018629Y-115819515D01*
X160830215Y-116273266D01*
X160829786Y-116764579D01*
X161017408Y-117218657D01*
X161364515Y-117566371D01*
X161818266Y-117754785D01*
X162309579Y-117755214D01*
X162600000Y-117635214D01*
X162600000Y-118939868D01*
X161672260Y-119867608D01*
X161672260Y-119283000D01*
X161627982Y-119047683D01*
X161488910Y-118831559D01*
X161276710Y-118686569D01*
X161024820Y-118635560D01*
X160685000Y-118635560D01*
X160685000Y-118140000D01*
X160627148Y-117849161D01*
X160627148Y-117849160D01*
X160462401Y-117602599D01*
X158145000Y-115285198D01*
X158145000Y-110569784D01*
X158291416Y-110540660D01*
X158744635Y-110237828D01*
X159047467Y-109784609D01*
X159153807Y-109250000D01*
X159047467Y-108715391D01*
X158744635Y-108262172D01*
X158321688Y-107979567D01*
X158743340Y-107697828D01*
X159046172Y-107244609D01*
X159118152Y-106882735D01*
X161381870Y-106882735D01*
X161431383Y-107108164D01*
X161896036Y-107267807D01*
X162386413Y-107237482D01*
X162698617Y-107108164D01*
X162748130Y-106882735D01*
X162065000Y-106199605D01*
X161381870Y-106882735D01*
X159118152Y-106882735D01*
X159152512Y-106710000D01*
X159046172Y-106175391D01*
X158829445Y-105851036D01*
X160817193Y-105851036D01*
X160847518Y-106341413D01*
X160976836Y-106653617D01*
X161202265Y-106703130D01*
X161885395Y-106020000D01*
X162244605Y-106020000D01*
X162927735Y-106703130D01*
X163153164Y-106653617D01*
X163312807Y-106188964D01*
X163282482Y-105698587D01*
X163153164Y-105386383D01*
X162927735Y-105336870D01*
X162244605Y-106020000D01*
X161885395Y-106020000D01*
X161202265Y-105336870D01*
X160976836Y-105386383D01*
X160817193Y-105851036D01*
X158829445Y-105851036D01*
X158743340Y-105722172D01*
X158321041Y-105440000D01*
X158743340Y-105157828D01*
X158895570Y-104930000D01*
X161435816Y-104930000D01*
X161431383Y-104931836D01*
X161431383Y-104931836D01*
G37*
X161431383Y-104931836D02*
X161381870Y-105157265D01*
X162065000Y-105840395D01*
X162748130Y-105157265D01*
X162698617Y-104931836D01*
X162693273Y-104930000D01*
X164055198Y-104930000D01*
X170595000Y-111469802D01*
X170595000Y-115285198D01*
X170457196Y-115423002D01*
X170511251Y-115343890D01*
X170562260Y-115092000D01*
X170562260Y-113568000D01*
X170517982Y-113332683D01*
X170378910Y-113116559D01*
X170166710Y-112971569D01*
X169914820Y-112920560D01*
X167715180Y-112920560D01*
X167479863Y-112964838D01*
X167263739Y-113103910D01*
X167201500Y-113195000D01*
X166910000Y-113195000D01*
X166484824Y-113279573D01*
X166475654Y-113281397D01*
X166107434Y-113527434D01*
X165749868Y-113885000D01*
X162552043Y-113885000D01*
X162311734Y-113785215D01*
X161820421Y-113784786D01*
X161366343Y-113972408D01*
X161018629Y-114319515D01*
X160830215Y-114773266D01*
X160829786Y-115264579D01*
X161017408Y-115718657D01*
X161068446Y-115769785D01*
X161018629Y-115819515D01*
X160830215Y-116273266D01*
X160829786Y-116764579D01*
X161017408Y-117218657D01*
X161364515Y-117566371D01*
X161818266Y-117754785D01*
X162309579Y-117755214D01*
X162600000Y-117635214D01*
X162600000Y-118939868D01*
X161672260Y-119867608D01*
X161672260Y-119283000D01*
X161627982Y-119047683D01*
X161488910Y-118831559D01*
X161276710Y-118686569D01*
X161024820Y-118635560D01*
X160685000Y-118635560D01*
X160685000Y-118140000D01*
X160627148Y-117849161D01*
X160627148Y-117849160D01*
X160462401Y-117602599D01*
X158145000Y-115285198D01*
X158145000Y-110569784D01*
X158291416Y-110540660D01*
X158744635Y-110237828D01*
X159047467Y-109784609D01*
X159153807Y-109250000D01*
X159047467Y-108715391D01*
X158744635Y-108262172D01*
X158321688Y-107979567D01*
X158743340Y-107697828D01*
X159046172Y-107244609D01*
X159118152Y-106882735D01*
X161381870Y-106882735D01*
X161431383Y-107108164D01*
X161896036Y-107267807D01*
X162386413Y-107237482D01*
X162698617Y-107108164D01*
X162748130Y-106882735D01*
X162065000Y-106199605D01*
X161381870Y-106882735D01*
X159118152Y-106882735D01*
X159152512Y-106710000D01*
X159046172Y-106175391D01*
X158829445Y-105851036D01*
X160817193Y-105851036D01*
X160847518Y-106341413D01*
X160976836Y-106653617D01*
X161202265Y-106703130D01*
X161885395Y-106020000D01*
X162244605Y-106020000D01*
X162927735Y-106703130D01*
X163153164Y-106653617D01*
X163312807Y-106188964D01*
X163282482Y-105698587D01*
X163153164Y-105386383D01*
X162927735Y-105336870D01*
X162244605Y-106020000D01*
X161885395Y-106020000D01*
X161202265Y-105336870D01*
X160976836Y-105386383D01*
X160817193Y-105851036D01*
X158829445Y-105851036D01*
X158743340Y-105722172D01*
X158321041Y-105440000D01*
X158743340Y-105157828D01*
X158895570Y-104930000D01*
X161435816Y-104930000D01*
X161431383Y-104931836D01*
M02*
