G04 #@! TF.FileFunction,Soldermask,Bot*
%FSLAX46Y46*%
G04 Gerber Fmt 4.6, Leading zero omitted, Abs format (unit mm)*
G04 Created by KiCad (PCBNEW 4.0.1-stable) date 8-3-2016 22:19:15*
%MOMM*%
G01*
G04 APERTURE LIST*
%ADD10C,0.100000*%
%ADD11C,0.150000*%
%ADD12C,0.002540*%
%ADD13C,2.200000*%
%ADD14C,4.464000*%
%ADD15R,2.940000X2.940000*%
%ADD16C,2.940000*%
%ADD17R,2.599640X1.924000*%
%ADD18O,2.599640X1.924000*%
%ADD19O,2.597100X1.924000*%
%ADD20C,1.900000*%
%ADD21R,1.600000X1.200000*%
%ADD22R,1.800000X1.400000*%
G04 APERTURE END LIST*
D10*
D11*
X161290000Y-95610000D02*
X161190000Y-95540000D01*
X161470000Y-95610000D02*
X161290000Y-95610000D01*
X161570000Y-95540000D02*
X161470000Y-95610000D01*
X161620000Y-95400000D02*
X161570000Y-95540000D01*
X161620000Y-94820000D02*
X161620000Y-95400000D01*
X161560000Y-94670000D02*
X161620000Y-94820000D01*
X161460000Y-94600000D02*
X161560000Y-94670000D01*
X161290000Y-94600000D02*
X161460000Y-94600000D01*
X161190000Y-94690000D02*
X161290000Y-94600000D01*
X161140000Y-94820000D02*
X161190000Y-94690000D01*
X161140000Y-95090000D02*
X161140000Y-94820000D01*
X161620000Y-95090000D02*
X161140000Y-95090000D01*
X162190000Y-94610000D02*
X162190000Y-95610000D01*
X162140000Y-94750000D02*
X162190000Y-94920000D01*
X162100000Y-94690000D02*
X162140000Y-94750000D01*
X162000000Y-94610000D02*
X162100000Y-94690000D01*
X161890000Y-94610000D02*
X162000000Y-94610000D01*
X164240000Y-94600000D02*
X164050000Y-95610000D01*
X164050000Y-95610000D02*
X163860000Y-94890000D01*
X163860000Y-94890000D02*
X163670000Y-95610000D01*
X163670000Y-95610000D02*
X163470000Y-94600000D01*
X164620000Y-95530000D02*
X164710000Y-95610000D01*
X164710000Y-95610000D02*
X164900000Y-95610000D01*
X164900000Y-95610000D02*
X164970000Y-95560000D01*
X164970000Y-95560000D02*
X165040000Y-95480000D01*
X165040000Y-95480000D02*
X165100000Y-95320000D01*
X165100000Y-95320000D02*
X165100000Y-94900000D01*
X165100000Y-94900000D02*
X165050000Y-94750000D01*
X165050000Y-94750000D02*
X164980000Y-94660000D01*
X164980000Y-94660000D02*
X164900000Y-94610000D01*
X164900000Y-94610000D02*
X164720000Y-94610000D01*
X164720000Y-94610000D02*
X164620000Y-94690000D01*
X164620000Y-94110000D02*
X164620000Y-95610000D01*
X165370000Y-94610000D02*
X165480000Y-94610000D01*
X165480000Y-94610000D02*
X165580000Y-94690000D01*
X165580000Y-94690000D02*
X165620000Y-94750000D01*
X165620000Y-94750000D02*
X165670000Y-94920000D01*
X165670000Y-94610000D02*
X165670000Y-95610000D01*
X162660000Y-94820000D02*
X162660000Y-95610000D01*
X162720000Y-94670000D02*
X162660000Y-94820000D01*
X162810000Y-94600000D02*
X162720000Y-94670000D01*
X162990000Y-94600000D02*
X162810000Y-94600000D01*
X163100000Y-94680000D02*
X162990000Y-94600000D01*
X163140000Y-95380000D02*
X163100000Y-95520000D01*
X163140000Y-95250000D02*
X163140000Y-95380000D01*
X163090000Y-95110000D02*
X163140000Y-95250000D01*
X162990000Y-95030000D02*
X163090000Y-95110000D01*
X162750000Y-95030000D02*
X162990000Y-95030000D01*
X162660000Y-94960000D02*
X162750000Y-95030000D01*
X162760000Y-95610000D02*
X162660000Y-95530000D01*
X162990000Y-95610000D02*
X162760000Y-95610000D01*
X163100000Y-95520000D02*
X162990000Y-95610000D01*
X166580000Y-95520000D02*
X166470000Y-95610000D01*
X166470000Y-95610000D02*
X166240000Y-95610000D01*
X166240000Y-95610000D02*
X166140000Y-95530000D01*
X166140000Y-94960000D02*
X166230000Y-95030000D01*
X166230000Y-95030000D02*
X166470000Y-95030000D01*
X166470000Y-95030000D02*
X166570000Y-95110000D01*
X166570000Y-95110000D02*
X166620000Y-95250000D01*
X166620000Y-95250000D02*
X166620000Y-95380000D01*
X166620000Y-95380000D02*
X166580000Y-95520000D01*
X166580000Y-94680000D02*
X166470000Y-94600000D01*
X166470000Y-94600000D02*
X166290000Y-94600000D01*
X166290000Y-94600000D02*
X166200000Y-94670000D01*
X166200000Y-94670000D02*
X166140000Y-94820000D01*
X166140000Y-94820000D02*
X166140000Y-95610000D01*
X167480000Y-95610000D02*
X167480000Y-94110000D01*
X167420000Y-94670000D02*
X167480000Y-94740000D01*
X167340000Y-94610000D02*
X167420000Y-94670000D01*
X167200000Y-94610000D02*
X167340000Y-94610000D01*
X167100000Y-94680000D02*
X167200000Y-94610000D01*
X167050000Y-94830000D02*
X167100000Y-94680000D01*
X167050000Y-95610000D02*
X167050000Y-94830000D01*
X168710000Y-95610000D02*
X168710000Y-94830000D01*
X168710000Y-94830000D02*
X168760000Y-94680000D01*
X168760000Y-94680000D02*
X168860000Y-94610000D01*
X168860000Y-94610000D02*
X169000000Y-94610000D01*
X169000000Y-94610000D02*
X169080000Y-94670000D01*
X169080000Y-94670000D02*
X169140000Y-94740000D01*
X169140000Y-94610000D02*
X169140000Y-95610000D01*
X170050000Y-95090000D02*
X169570000Y-95090000D01*
X169570000Y-95090000D02*
X169570000Y-94820000D01*
X169570000Y-94820000D02*
X169620000Y-94690000D01*
X169620000Y-94690000D02*
X169720000Y-94600000D01*
X169720000Y-94600000D02*
X169890000Y-94600000D01*
X169890000Y-94600000D02*
X169990000Y-94670000D01*
X169990000Y-94670000D02*
X170050000Y-94820000D01*
X170050000Y-94820000D02*
X170050000Y-95400000D01*
X170050000Y-95400000D02*
X170000000Y-95540000D01*
X170000000Y-95540000D02*
X169900000Y-95610000D01*
X169900000Y-95610000D02*
X169720000Y-95610000D01*
X169720000Y-95610000D02*
X169620000Y-95540000D01*
X170910000Y-94600000D02*
X170910000Y-96110000D01*
X170800000Y-94600000D02*
X170620000Y-94600000D01*
X170800000Y-95600000D02*
X170610000Y-95600000D01*
X170800000Y-94600000D02*
X170880000Y-94660000D01*
X170530000Y-94670000D02*
X170620000Y-94600000D01*
X170480000Y-94740000D02*
X170530000Y-94670000D01*
X170430000Y-94900000D02*
X170480000Y-94740000D01*
X170430000Y-95310000D02*
X170430000Y-94900000D01*
X170480000Y-95450000D02*
X170430000Y-95310000D01*
X170520000Y-95520000D02*
X170480000Y-95450000D01*
X170620000Y-95600000D02*
X170520000Y-95520000D01*
X170900000Y-95530000D02*
X170800000Y-95600000D01*
X171860000Y-94900000D02*
X171860000Y-95310000D01*
X171860000Y-95310000D02*
X171810000Y-95450000D01*
X171810000Y-95450000D02*
X171760000Y-95540000D01*
X171760000Y-95540000D02*
X171660000Y-95610000D01*
X171660000Y-95610000D02*
X171520000Y-95610000D01*
X171520000Y-95610000D02*
X171420000Y-95530000D01*
X171420000Y-95530000D02*
X171380000Y-95460000D01*
X171380000Y-95460000D02*
X171330000Y-95320000D01*
X171330000Y-95320000D02*
X171330000Y-94910000D01*
X171330000Y-94910000D02*
X171380000Y-94750000D01*
X171380000Y-94750000D02*
X171430000Y-94680000D01*
X171430000Y-94680000D02*
X171520000Y-94610000D01*
X171520000Y-94610000D02*
X171670000Y-94610000D01*
X171670000Y-94610000D02*
X171750000Y-94670000D01*
X171750000Y-94670000D02*
X171810000Y-94750000D01*
X171810000Y-94750000D02*
X171860000Y-94900000D01*
D12*
G36*
X170137280Y-93889880D02*
X170073780Y-93856860D01*
X169934080Y-93767960D01*
X169733420Y-93638420D01*
X169497200Y-93478400D01*
X169258440Y-93318380D01*
X169062860Y-93186300D01*
X168925700Y-93099940D01*
X168869820Y-93066920D01*
X168839340Y-93077080D01*
X168725040Y-93132960D01*
X168562480Y-93219320D01*
X168465960Y-93267580D01*
X168316100Y-93333620D01*
X168242440Y-93346320D01*
X168229740Y-93326000D01*
X168173860Y-93209160D01*
X168087500Y-93013580D01*
X167973200Y-92751960D01*
X167843660Y-92449700D01*
X167706500Y-92119500D01*
X167566800Y-91784220D01*
X167434720Y-91466720D01*
X167315340Y-91179700D01*
X167221360Y-90946020D01*
X167160400Y-90783460D01*
X167137540Y-90712340D01*
X167145160Y-90697100D01*
X167218820Y-90625980D01*
X167350900Y-90526920D01*
X167635380Y-90295780D01*
X167914780Y-89945260D01*
X168084960Y-89549020D01*
X168143380Y-89107060D01*
X168095120Y-88698120D01*
X167932560Y-88304420D01*
X167658240Y-87951360D01*
X167325500Y-87687200D01*
X166936880Y-87522100D01*
X166500000Y-87466220D01*
X166080900Y-87514480D01*
X165679580Y-87671960D01*
X165326520Y-87941200D01*
X165176660Y-88113920D01*
X164970920Y-88472060D01*
X164854080Y-88858140D01*
X164841380Y-88954660D01*
X164859160Y-89376300D01*
X164983620Y-89780160D01*
X165204600Y-90140840D01*
X165514480Y-90438020D01*
X165552580Y-90465960D01*
X165697360Y-90572640D01*
X165791340Y-90646300D01*
X165867540Y-90707260D01*
X165331600Y-92000120D01*
X165245240Y-92205860D01*
X165097920Y-92556380D01*
X164968380Y-92861180D01*
X164864240Y-93105020D01*
X164793120Y-93265040D01*
X164762640Y-93331080D01*
X164757560Y-93333620D01*
X164711840Y-93341240D01*
X164612780Y-93305680D01*
X164432440Y-93219320D01*
X164313060Y-93158360D01*
X164175900Y-93092320D01*
X164114940Y-93066920D01*
X164061600Y-93094860D01*
X163929520Y-93181220D01*
X163739020Y-93310760D01*
X163507880Y-93465700D01*
X163286900Y-93615560D01*
X163083700Y-93750180D01*
X162936380Y-93844160D01*
X162865260Y-93882260D01*
X162855100Y-93882260D01*
X162791600Y-93846700D01*
X162674760Y-93750180D01*
X162499500Y-93582540D01*
X162250580Y-93338700D01*
X162212480Y-93300600D01*
X162006740Y-93092320D01*
X161841640Y-92917060D01*
X161729880Y-92792600D01*
X161689240Y-92736720D01*
X161689240Y-92736720D01*
X161727340Y-92665600D01*
X161818780Y-92518280D01*
X161953400Y-92315080D01*
X162115960Y-92073780D01*
X162545220Y-91454020D01*
X162309000Y-90867280D01*
X162237880Y-90686940D01*
X162146440Y-90468500D01*
X162077860Y-90313560D01*
X162042300Y-90244980D01*
X161978800Y-90222120D01*
X161818780Y-90184020D01*
X161585100Y-90135760D01*
X161308240Y-90084960D01*
X161044080Y-90036700D01*
X160805320Y-89990980D01*
X160632600Y-89957960D01*
X160553860Y-89942720D01*
X160536080Y-89930020D01*
X160520840Y-89891920D01*
X160510680Y-89810640D01*
X160505600Y-89665860D01*
X160500520Y-89437260D01*
X160500520Y-89107060D01*
X160500520Y-89071500D01*
X160505600Y-88756540D01*
X160510680Y-88505080D01*
X160518300Y-88339980D01*
X160531000Y-88273940D01*
X160531000Y-88273940D01*
X160604660Y-88256160D01*
X160774840Y-88220600D01*
X161013600Y-88172340D01*
X161298080Y-88119000D01*
X161315860Y-88116460D01*
X161600340Y-88060580D01*
X161836560Y-88012320D01*
X162004200Y-87974220D01*
X162072780Y-87951360D01*
X162088020Y-87931040D01*
X162146440Y-87819280D01*
X162227720Y-87644020D01*
X162321700Y-87430660D01*
X162413140Y-87207140D01*
X162494420Y-87006480D01*
X162547760Y-86856620D01*
X162563000Y-86788040D01*
X162563000Y-86788040D01*
X162519820Y-86719460D01*
X162423300Y-86572140D01*
X162283600Y-86368940D01*
X162118500Y-86127640D01*
X162105800Y-86107320D01*
X161943240Y-85868560D01*
X161811160Y-85665360D01*
X161722260Y-85520580D01*
X161689240Y-85457080D01*
X161689240Y-85452000D01*
X161745120Y-85380880D01*
X161867040Y-85243720D01*
X162042300Y-85060840D01*
X162250580Y-84850020D01*
X162319160Y-84783980D01*
X162550300Y-84555380D01*
X162712860Y-84408060D01*
X162814460Y-84326780D01*
X162862720Y-84309000D01*
X162865260Y-84311540D01*
X162936380Y-84354720D01*
X163088780Y-84453780D01*
X163294520Y-84593480D01*
X163538360Y-84758580D01*
X163553600Y-84768740D01*
X163794900Y-84931300D01*
X163993020Y-85068460D01*
X164135260Y-85162440D01*
X164198760Y-85198000D01*
X164208920Y-85198000D01*
X164305440Y-85170060D01*
X164475620Y-85111640D01*
X164686440Y-85030360D01*
X164907420Y-84941460D01*
X165110620Y-84855100D01*
X165260480Y-84786520D01*
X165331600Y-84745880D01*
X165334140Y-84743340D01*
X165359540Y-84656980D01*
X165400180Y-84476640D01*
X165453520Y-84230260D01*
X165506860Y-83935620D01*
X165517020Y-83889900D01*
X165570360Y-83602880D01*
X165616080Y-83366660D01*
X165651640Y-83204100D01*
X165666880Y-83135520D01*
X165707520Y-83127900D01*
X165847220Y-83117740D01*
X166060580Y-83110120D01*
X166319660Y-83107580D01*
X166591440Y-83110120D01*
X166855600Y-83115200D01*
X167081660Y-83122820D01*
X167244220Y-83135520D01*
X167312800Y-83148220D01*
X167315340Y-83153300D01*
X167338200Y-83242200D01*
X167378840Y-83420000D01*
X167429640Y-83668920D01*
X167485520Y-83963560D01*
X167495680Y-84016900D01*
X167549020Y-84301380D01*
X167597280Y-84535060D01*
X167632840Y-84695080D01*
X167650620Y-84758580D01*
X167676020Y-84771280D01*
X167792860Y-84824620D01*
X167983360Y-84903360D01*
X168222120Y-84999880D01*
X168770760Y-85220860D01*
X169443860Y-84758580D01*
X169504820Y-84717940D01*
X169748660Y-84552840D01*
X169946780Y-84420760D01*
X170086480Y-84331860D01*
X170142360Y-84298840D01*
X170147440Y-84301380D01*
X170216020Y-84359800D01*
X170348100Y-84484260D01*
X170530980Y-84662060D01*
X170741800Y-84872880D01*
X170899280Y-85030360D01*
X171084700Y-85218320D01*
X171201540Y-85345320D01*
X171267580Y-85426600D01*
X171290440Y-85477400D01*
X171282820Y-85510420D01*
X171239640Y-85579000D01*
X171140580Y-85726320D01*
X171003420Y-85932060D01*
X170838320Y-86168280D01*
X170703700Y-86368940D01*
X170556380Y-86595000D01*
X170462400Y-86755020D01*
X170429380Y-86833760D01*
X170437000Y-86866780D01*
X170485260Y-86998860D01*
X170564000Y-87199520D01*
X170665600Y-87435740D01*
X170899280Y-87969140D01*
X171249800Y-88035180D01*
X171460620Y-88075820D01*
X171757800Y-88134240D01*
X172042280Y-88187580D01*
X172484240Y-88273940D01*
X172499480Y-89899540D01*
X172430900Y-89930020D01*
X172364860Y-89947800D01*
X172202300Y-89983360D01*
X171968620Y-90029080D01*
X171691760Y-90082420D01*
X171455540Y-90125600D01*
X171219320Y-90171320D01*
X171049140Y-90204340D01*
X170972940Y-90219580D01*
X170955160Y-90244980D01*
X170894200Y-90361820D01*
X170810380Y-90542160D01*
X170716400Y-90763140D01*
X170622420Y-90989200D01*
X170538600Y-91200020D01*
X170480180Y-91360040D01*
X170457320Y-91443860D01*
X170490340Y-91504820D01*
X170579240Y-91644520D01*
X170711320Y-91842640D01*
X170871340Y-92078860D01*
X171033900Y-92315080D01*
X171168520Y-92515740D01*
X171265040Y-92660520D01*
X171303140Y-92726560D01*
X171282820Y-92772280D01*
X171188840Y-92886580D01*
X171011040Y-93069460D01*
X170746880Y-93331080D01*
X170703700Y-93374260D01*
X170492880Y-93574920D01*
X170315080Y-93740020D01*
X170193160Y-93849240D01*
X170137280Y-93889880D01*
X170137280Y-93889880D01*
G37*
X170137280Y-93889880D02*
X170073780Y-93856860D01*
X169934080Y-93767960D01*
X169733420Y-93638420D01*
X169497200Y-93478400D01*
X169258440Y-93318380D01*
X169062860Y-93186300D01*
X168925700Y-93099940D01*
X168869820Y-93066920D01*
X168839340Y-93077080D01*
X168725040Y-93132960D01*
X168562480Y-93219320D01*
X168465960Y-93267580D01*
X168316100Y-93333620D01*
X168242440Y-93346320D01*
X168229740Y-93326000D01*
X168173860Y-93209160D01*
X168087500Y-93013580D01*
X167973200Y-92751960D01*
X167843660Y-92449700D01*
X167706500Y-92119500D01*
X167566800Y-91784220D01*
X167434720Y-91466720D01*
X167315340Y-91179700D01*
X167221360Y-90946020D01*
X167160400Y-90783460D01*
X167137540Y-90712340D01*
X167145160Y-90697100D01*
X167218820Y-90625980D01*
X167350900Y-90526920D01*
X167635380Y-90295780D01*
X167914780Y-89945260D01*
X168084960Y-89549020D01*
X168143380Y-89107060D01*
X168095120Y-88698120D01*
X167932560Y-88304420D01*
X167658240Y-87951360D01*
X167325500Y-87687200D01*
X166936880Y-87522100D01*
X166500000Y-87466220D01*
X166080900Y-87514480D01*
X165679580Y-87671960D01*
X165326520Y-87941200D01*
X165176660Y-88113920D01*
X164970920Y-88472060D01*
X164854080Y-88858140D01*
X164841380Y-88954660D01*
X164859160Y-89376300D01*
X164983620Y-89780160D01*
X165204600Y-90140840D01*
X165514480Y-90438020D01*
X165552580Y-90465960D01*
X165697360Y-90572640D01*
X165791340Y-90646300D01*
X165867540Y-90707260D01*
X165331600Y-92000120D01*
X165245240Y-92205860D01*
X165097920Y-92556380D01*
X164968380Y-92861180D01*
X164864240Y-93105020D01*
X164793120Y-93265040D01*
X164762640Y-93331080D01*
X164757560Y-93333620D01*
X164711840Y-93341240D01*
X164612780Y-93305680D01*
X164432440Y-93219320D01*
X164313060Y-93158360D01*
X164175900Y-93092320D01*
X164114940Y-93066920D01*
X164061600Y-93094860D01*
X163929520Y-93181220D01*
X163739020Y-93310760D01*
X163507880Y-93465700D01*
X163286900Y-93615560D01*
X163083700Y-93750180D01*
X162936380Y-93844160D01*
X162865260Y-93882260D01*
X162855100Y-93882260D01*
X162791600Y-93846700D01*
X162674760Y-93750180D01*
X162499500Y-93582540D01*
X162250580Y-93338700D01*
X162212480Y-93300600D01*
X162006740Y-93092320D01*
X161841640Y-92917060D01*
X161729880Y-92792600D01*
X161689240Y-92736720D01*
X161689240Y-92736720D01*
X161727340Y-92665600D01*
X161818780Y-92518280D01*
X161953400Y-92315080D01*
X162115960Y-92073780D01*
X162545220Y-91454020D01*
X162309000Y-90867280D01*
X162237880Y-90686940D01*
X162146440Y-90468500D01*
X162077860Y-90313560D01*
X162042300Y-90244980D01*
X161978800Y-90222120D01*
X161818780Y-90184020D01*
X161585100Y-90135760D01*
X161308240Y-90084960D01*
X161044080Y-90036700D01*
X160805320Y-89990980D01*
X160632600Y-89957960D01*
X160553860Y-89942720D01*
X160536080Y-89930020D01*
X160520840Y-89891920D01*
X160510680Y-89810640D01*
X160505600Y-89665860D01*
X160500520Y-89437260D01*
X160500520Y-89107060D01*
X160500520Y-89071500D01*
X160505600Y-88756540D01*
X160510680Y-88505080D01*
X160518300Y-88339980D01*
X160531000Y-88273940D01*
X160531000Y-88273940D01*
X160604660Y-88256160D01*
X160774840Y-88220600D01*
X161013600Y-88172340D01*
X161298080Y-88119000D01*
X161315860Y-88116460D01*
X161600340Y-88060580D01*
X161836560Y-88012320D01*
X162004200Y-87974220D01*
X162072780Y-87951360D01*
X162088020Y-87931040D01*
X162146440Y-87819280D01*
X162227720Y-87644020D01*
X162321700Y-87430660D01*
X162413140Y-87207140D01*
X162494420Y-87006480D01*
X162547760Y-86856620D01*
X162563000Y-86788040D01*
X162563000Y-86788040D01*
X162519820Y-86719460D01*
X162423300Y-86572140D01*
X162283600Y-86368940D01*
X162118500Y-86127640D01*
X162105800Y-86107320D01*
X161943240Y-85868560D01*
X161811160Y-85665360D01*
X161722260Y-85520580D01*
X161689240Y-85457080D01*
X161689240Y-85452000D01*
X161745120Y-85380880D01*
X161867040Y-85243720D01*
X162042300Y-85060840D01*
X162250580Y-84850020D01*
X162319160Y-84783980D01*
X162550300Y-84555380D01*
X162712860Y-84408060D01*
X162814460Y-84326780D01*
X162862720Y-84309000D01*
X162865260Y-84311540D01*
X162936380Y-84354720D01*
X163088780Y-84453780D01*
X163294520Y-84593480D01*
X163538360Y-84758580D01*
X163553600Y-84768740D01*
X163794900Y-84931300D01*
X163993020Y-85068460D01*
X164135260Y-85162440D01*
X164198760Y-85198000D01*
X164208920Y-85198000D01*
X164305440Y-85170060D01*
X164475620Y-85111640D01*
X164686440Y-85030360D01*
X164907420Y-84941460D01*
X165110620Y-84855100D01*
X165260480Y-84786520D01*
X165331600Y-84745880D01*
X165334140Y-84743340D01*
X165359540Y-84656980D01*
X165400180Y-84476640D01*
X165453520Y-84230260D01*
X165506860Y-83935620D01*
X165517020Y-83889900D01*
X165570360Y-83602880D01*
X165616080Y-83366660D01*
X165651640Y-83204100D01*
X165666880Y-83135520D01*
X165707520Y-83127900D01*
X165847220Y-83117740D01*
X166060580Y-83110120D01*
X166319660Y-83107580D01*
X166591440Y-83110120D01*
X166855600Y-83115200D01*
X167081660Y-83122820D01*
X167244220Y-83135520D01*
X167312800Y-83148220D01*
X167315340Y-83153300D01*
X167338200Y-83242200D01*
X167378840Y-83420000D01*
X167429640Y-83668920D01*
X167485520Y-83963560D01*
X167495680Y-84016900D01*
X167549020Y-84301380D01*
X167597280Y-84535060D01*
X167632840Y-84695080D01*
X167650620Y-84758580D01*
X167676020Y-84771280D01*
X167792860Y-84824620D01*
X167983360Y-84903360D01*
X168222120Y-84999880D01*
X168770760Y-85220860D01*
X169443860Y-84758580D01*
X169504820Y-84717940D01*
X169748660Y-84552840D01*
X169946780Y-84420760D01*
X170086480Y-84331860D01*
X170142360Y-84298840D01*
X170147440Y-84301380D01*
X170216020Y-84359800D01*
X170348100Y-84484260D01*
X170530980Y-84662060D01*
X170741800Y-84872880D01*
X170899280Y-85030360D01*
X171084700Y-85218320D01*
X171201540Y-85345320D01*
X171267580Y-85426600D01*
X171290440Y-85477400D01*
X171282820Y-85510420D01*
X171239640Y-85579000D01*
X171140580Y-85726320D01*
X171003420Y-85932060D01*
X170838320Y-86168280D01*
X170703700Y-86368940D01*
X170556380Y-86595000D01*
X170462400Y-86755020D01*
X170429380Y-86833760D01*
X170437000Y-86866780D01*
X170485260Y-86998860D01*
X170564000Y-87199520D01*
X170665600Y-87435740D01*
X170899280Y-87969140D01*
X171249800Y-88035180D01*
X171460620Y-88075820D01*
X171757800Y-88134240D01*
X172042280Y-88187580D01*
X172484240Y-88273940D01*
X172499480Y-89899540D01*
X172430900Y-89930020D01*
X172364860Y-89947800D01*
X172202300Y-89983360D01*
X171968620Y-90029080D01*
X171691760Y-90082420D01*
X171455540Y-90125600D01*
X171219320Y-90171320D01*
X171049140Y-90204340D01*
X170972940Y-90219580D01*
X170955160Y-90244980D01*
X170894200Y-90361820D01*
X170810380Y-90542160D01*
X170716400Y-90763140D01*
X170622420Y-90989200D01*
X170538600Y-91200020D01*
X170480180Y-91360040D01*
X170457320Y-91443860D01*
X170490340Y-91504820D01*
X170579240Y-91644520D01*
X170711320Y-91842640D01*
X170871340Y-92078860D01*
X171033900Y-92315080D01*
X171168520Y-92515740D01*
X171265040Y-92660520D01*
X171303140Y-92726560D01*
X171282820Y-92772280D01*
X171188840Y-92886580D01*
X171011040Y-93069460D01*
X170746880Y-93331080D01*
X170703700Y-93374260D01*
X170492880Y-93574920D01*
X170315080Y-93740020D01*
X170193160Y-93849240D01*
X170137280Y-93889880D01*
D13*
X129300000Y-112000000D03*
X139900000Y-112000000D03*
X138600000Y-80800000D03*
X130600000Y-80800000D03*
D14*
X172000000Y-102500000D03*
X147500000Y-80500000D03*
X147500000Y-124500000D03*
D15*
X128175000Y-119410000D03*
D16*
X133255000Y-119410000D03*
X138335000Y-119410000D03*
D17*
X159925000Y-120045000D03*
D18*
X159925000Y-122585000D03*
X159925000Y-125125000D03*
D17*
X155480000Y-117505000D03*
D18*
X155480000Y-120045000D03*
X155480000Y-122585000D03*
X155480000Y-125125000D03*
D17*
X164370000Y-122585000D03*
D18*
X164370000Y-125125000D03*
D17*
X168815000Y-114330000D03*
D18*
X168815000Y-116870000D03*
X168815000Y-119410000D03*
X168815000Y-121950000D03*
X157385000Y-109250000D03*
D19*
X157385000Y-106710000D03*
X157385000Y-104170000D03*
X157385000Y-101630000D03*
X157385000Y-99090000D03*
X157385000Y-96550000D03*
X157385000Y-94010000D03*
X157385000Y-91470000D03*
X157385000Y-88930000D03*
X157385000Y-86390000D03*
X157385000Y-83850000D03*
X157385000Y-81310000D03*
D20*
X145955000Y-114965000D03*
X145955000Y-107345000D03*
X145955000Y-97185000D03*
X145955000Y-94645000D03*
D21*
X162065000Y-115020000D03*
X162065000Y-116520000D03*
D22*
X162065000Y-106020000D03*
M02*
