M48
;DRILL file {KiCad 4.0.1-stable} date 8-3-2016 21:50:21
;FORMAT={-:-/ absolute / inch / decimal}
FMAT,2
INCH,TZ
T1C0.016
T2C0.031
T3C0.039
T4C0.039
T5C0.039
T6C0.060
T7C0.120
%
G90
G05
M72
T1
X6.7713Y-3.2262
T2
X6.3805Y-4.174
X6.3805Y-4.5283
X6.3805Y-4.5874
T3
X6.1963Y-3.2012
X6.1963Y-3.3012
X6.1963Y-3.4012
X6.1963Y-3.5012
X6.1963Y-3.6012
X6.1963Y-3.7012
X6.1963Y-3.8012
T4
X5.0906Y-4.4094
X5.1417Y-3.1811
X5.4567Y-3.1811
X5.5079Y-4.4094
X5.7463Y-3.7262
X5.7463Y-3.8262
X5.7463Y-4.2262
X5.7463Y-4.5262
T5
X6.1213Y-4.6262
X6.1213Y-4.7262
X6.1213Y-4.8262
X6.1213Y-4.9262
X6.1963Y-3.9012
X6.1963Y-4.0012
X6.1963Y-4.1012
X6.1963Y-4.2012
X6.1963Y-4.3012
X6.2963Y-4.7262
X6.2963Y-4.8262
X6.2963Y-4.9262
X6.4713Y-4.8262
X6.4713Y-4.9262
X6.6463Y-4.5012
X6.6463Y-4.6012
X6.6463Y-4.7012
X6.6463Y-4.8012
T6
X5.0463Y-4.7012
X5.2463Y-4.7012
X5.4463Y-4.7012
T7
X5.8071Y-3.1693
X5.8071Y-4.9016
X6.7717Y-4.0354
T0
M30
