G04 #@! TF.FileFunction,Soldermask,Top*
%FSLAX46Y46*%
G04 Gerber Fmt 4.6, Leading zero omitted, Abs format (unit mm)*
G04 Created by KiCad (PCBNEW 4.0.1-stable) date 8-3-2016 22:19:15*
%MOMM*%
G01*
G04 APERTURE LIST*
%ADD10C,0.100000*%
%ADD11C,1.000000*%
%ADD12C,2.200000*%
%ADD13C,4.464000*%
%ADD14R,1.900000X1.650000*%
%ADD15R,2.940000X2.940000*%
%ADD16C,2.940000*%
%ADD17R,2.599640X1.924000*%
%ADD18O,2.599640X1.924000*%
%ADD19R,1.700000X1.900000*%
%ADD20R,1.900000X1.700000*%
%ADD21R,1.543000X0.908000*%
%ADD22O,2.597100X1.924000*%
%ADD23C,1.900000*%
%ADD24R,1.600000X1.200000*%
%ADD25R,1.800000X1.400000*%
G04 APERTURE END LIST*
D10*
D11*
X155480000Y-125125000D02*
X164370000Y-125125000D01*
D12*
X129300000Y-112000000D03*
X139900000Y-112000000D03*
X138600000Y-80800000D03*
X130600000Y-80800000D03*
D13*
X172000000Y-102500000D03*
X147500000Y-80500000D03*
X147500000Y-124500000D03*
D14*
X167565000Y-89565000D03*
X170065000Y-89565000D03*
D15*
X128175000Y-119410000D03*
D16*
X133255000Y-119410000D03*
X138335000Y-119410000D03*
D17*
X159925000Y-120045000D03*
D18*
X159925000Y-122585000D03*
X159925000Y-125125000D03*
D17*
X155480000Y-117505000D03*
D18*
X155480000Y-120045000D03*
X155480000Y-122585000D03*
X155480000Y-125125000D03*
D17*
X164370000Y-122585000D03*
D18*
X164370000Y-125125000D03*
D19*
X162465000Y-86310000D03*
X162465000Y-89010000D03*
X162465000Y-81230000D03*
X162465000Y-83930000D03*
D20*
X170165000Y-80675000D03*
X167465000Y-80675000D03*
D21*
X171990000Y-83215000D03*
X171990000Y-84485000D03*
X171990000Y-85755000D03*
X171990000Y-87025000D03*
X165640000Y-87025000D03*
X165640000Y-85755000D03*
X165640000Y-84485000D03*
X165640000Y-83215000D03*
D17*
X168815000Y-114330000D03*
D18*
X168815000Y-116870000D03*
X168815000Y-119410000D03*
X168815000Y-121950000D03*
X157385000Y-109250000D03*
D22*
X157385000Y-106710000D03*
X157385000Y-104170000D03*
X157385000Y-101630000D03*
X157385000Y-99090000D03*
X157385000Y-96550000D03*
X157385000Y-94010000D03*
X157385000Y-91470000D03*
X157385000Y-88930000D03*
X157385000Y-86390000D03*
X157385000Y-83850000D03*
X157385000Y-81310000D03*
D23*
X145955000Y-114965000D03*
X145955000Y-107345000D03*
X145955000Y-97185000D03*
X145955000Y-94645000D03*
D24*
X162065000Y-115020000D03*
X162065000Y-116520000D03*
D25*
X162065000Y-106020000D03*
M02*
