G04 #@! TF.FileFunction,Copper,L2,Bot,Signal*
%FSLAX46Y46*%
G04 Gerber Fmt 4.6, Leading zero omitted, Abs format (unit mm)*
G04 Created by KiCad (PCBNEW 4.0.2-stable) date 8-9-2016 13:54:52*
%MOMM*%
G01*
G04 APERTURE LIST*
%ADD10C,0.100000*%
%ADD11R,1.800000X1.000000*%
%ADD12O,0.899160X1.501140*%
%ADD13C,4.064000*%
%ADD14R,2.540000X2.540000*%
%ADD15C,2.540000*%
%ADD16R,2.199640X1.524000*%
%ADD17O,2.199640X1.524000*%
%ADD18C,1.500000*%
%ADD19C,1.800000*%
%ADD20R,1.300000X1.300000*%
%ADD21C,1.300000*%
%ADD22R,1.500000X1.250000*%
%ADD23R,1.524000X1.524000*%
%ADD24C,1.524000*%
%ADD25O,2.200000X1.500000*%
%ADD26C,0.600000*%
%ADD27C,0.500000*%
%ADD28C,1.000000*%
%ADD29C,0.250000*%
%ADD30C,1.500000*%
%ADD31C,0.254000*%
G04 APERTURE END LIST*
D10*
D11*
X171755000Y-116180000D03*
X171755000Y-114680000D03*
X171755000Y-125180000D03*
D12*
X163735000Y-101630000D03*
X165005000Y-101630000D03*
X162465000Y-101630000D03*
D13*
X172000000Y-102500000D03*
X148000000Y-124500000D03*
X148000000Y-80500000D03*
D14*
X128175000Y-119410000D03*
D15*
X133255000Y-119410000D03*
X138335000Y-119410000D03*
D16*
X159925000Y-120045000D03*
D17*
X159925000Y-122585000D03*
X159925000Y-125125000D03*
D16*
X155480000Y-117505000D03*
D17*
X155480000Y-120045000D03*
X155480000Y-122585000D03*
X155480000Y-125125000D03*
D16*
X164370000Y-122585000D03*
D17*
X164370000Y-125125000D03*
D18*
X146717000Y-113060000D03*
X146717000Y-105440000D03*
X146717000Y-95280000D03*
X146717000Y-92740000D03*
D19*
X129300000Y-112000000D03*
X139900000Y-112000000D03*
X138600000Y-80800000D03*
X130600000Y-80800000D03*
X132100000Y-111100000D03*
X137100000Y-111100000D03*
X126900000Y-81700000D03*
X142300000Y-81700000D03*
D20*
X165005000Y-95280000D03*
D21*
X162505000Y-95280000D03*
D22*
X162485000Y-105440000D03*
X164985000Y-105440000D03*
D23*
X160560000Y-111790000D03*
D24*
X160560000Y-109250000D03*
X163100000Y-111790000D03*
X163100000Y-109250000D03*
X165640000Y-111790000D03*
X165640000Y-109250000D03*
X168180000Y-111790000D03*
X168180000Y-109250000D03*
D25*
X156750000Y-94010000D03*
X156750000Y-91470000D03*
X156750000Y-88930000D03*
X156750000Y-86390000D03*
X156750000Y-83850000D03*
X156750000Y-81310000D03*
X156750000Y-96550000D03*
X156750000Y-99090000D03*
X156750000Y-101630000D03*
X156750000Y-104170000D03*
X156750000Y-106710000D03*
X156750000Y-109250000D03*
X152650000Y-91470000D03*
X152650000Y-94010000D03*
X152650000Y-96550000D03*
D26*
X170720000Y-81945000D03*
D27*
X160560000Y-111790000D02*
X160179000Y-111790000D01*
X160179000Y-111790000D02*
X158655000Y-110266000D01*
X158655000Y-110266000D02*
X158655000Y-99130000D01*
X158655000Y-99130000D02*
X162505000Y-95280000D01*
D28*
X160560000Y-83850000D02*
X156750000Y-83850000D01*
X164370000Y-125125000D02*
X155480000Y-125125000D01*
X155480000Y-125125000D02*
X152940000Y-125125000D01*
X152940000Y-125125000D02*
X151670000Y-123855000D01*
X151670000Y-123855000D02*
X151670000Y-119410000D01*
X162505000Y-85795000D02*
X162505000Y-95280000D01*
X160560000Y-83850000D02*
X162505000Y-85795000D01*
D27*
X163735000Y-101630000D02*
X163735000Y-104190000D01*
X163735000Y-104190000D02*
X164985000Y-105440000D01*
D29*
X155480000Y-117505000D02*
X154337000Y-116362000D01*
X154337000Y-116362000D02*
X154337000Y-100868000D01*
X154337000Y-100868000D02*
X156115000Y-99090000D01*
X156115000Y-99090000D02*
X156750000Y-99090000D01*
X155480000Y-120045000D02*
X154718000Y-120045000D01*
X154718000Y-120045000D02*
X153702000Y-119029000D01*
X153702000Y-99598000D02*
X156750000Y-96550000D01*
X153702000Y-119029000D02*
X153702000Y-99598000D01*
X155480000Y-120045000D02*
X154845000Y-120045000D01*
X155480000Y-122585000D02*
X153067000Y-120172000D01*
X155480000Y-94010000D02*
X156750000Y-94010000D01*
X154718000Y-94772000D02*
X155480000Y-94010000D01*
X154718000Y-97185000D02*
X154718000Y-94772000D01*
X153067000Y-98836000D02*
X154718000Y-97185000D01*
X153067000Y-120172000D02*
X153067000Y-98836000D01*
X156750000Y-91470000D02*
X156115000Y-91470000D01*
X156115000Y-91470000D02*
X154210000Y-89565000D01*
X154210000Y-89565000D02*
X150400000Y-89565000D01*
X150400000Y-89565000D02*
X149130000Y-90835000D01*
X149130000Y-90835000D02*
X149130000Y-94010000D01*
X149130000Y-94010000D02*
X147860000Y-95280000D01*
X147860000Y-95280000D02*
X146717000Y-95280000D01*
D28*
X171755000Y-109250000D02*
X171755000Y-107745000D01*
X169450000Y-106710000D02*
X167545000Y-104805000D01*
X170720000Y-106710000D02*
X169450000Y-106710000D01*
X171755000Y-107745000D02*
X170720000Y-106710000D01*
X171755000Y-114680000D02*
X171755000Y-109250000D01*
X171755000Y-109250000D02*
X171755000Y-109015000D01*
X165640000Y-81310000D02*
X158020000Y-81310000D01*
X167545000Y-104805000D02*
X167545000Y-83215000D01*
X167545000Y-83215000D02*
X165640000Y-81310000D01*
D27*
X165005000Y-101630000D02*
X165005000Y-95280000D01*
X158020000Y-81310000D02*
X163735000Y-81310000D01*
X163735000Y-81310000D02*
X165005000Y-82580000D01*
X165005000Y-82580000D02*
X165005000Y-95280000D01*
D28*
X138600000Y-80800000D02*
X138841000Y-80800000D01*
X138841000Y-80800000D02*
X142300000Y-84259000D01*
X142300000Y-81700000D02*
X142300000Y-84259000D01*
X142300000Y-84259000D02*
X144431000Y-86390000D01*
X150400000Y-86390000D02*
X155480000Y-81310000D01*
X144431000Y-86390000D02*
X150400000Y-86390000D01*
X155480000Y-81310000D02*
X158020000Y-81310000D01*
X155480000Y-81310000D02*
X158020000Y-81310000D01*
D27*
X156115000Y-81310000D02*
X170085000Y-81310000D01*
X170085000Y-81310000D02*
X170720000Y-81945000D01*
D29*
X155480000Y-81310000D02*
X170085000Y-81310000D01*
X170085000Y-81310000D02*
X170720000Y-81945000D01*
D30*
X129300000Y-112000000D02*
X130200000Y-111100000D01*
X130200000Y-111100000D02*
X132100000Y-111100000D01*
X128175000Y-119410000D02*
X128175000Y-113125000D01*
X128175000Y-113125000D02*
X129300000Y-112000000D01*
X139900000Y-112000000D02*
X146460000Y-105440000D01*
X146460000Y-105440000D02*
X146717000Y-105440000D01*
X139900000Y-112000000D02*
X139348000Y-112552000D01*
X139348000Y-112552000D02*
X137262000Y-112552000D01*
X137262000Y-112552000D02*
X137100000Y-112390000D01*
X133255000Y-116235000D02*
X137100000Y-112390000D01*
X133255000Y-119410000D02*
X133255000Y-116235000D01*
X137100000Y-112390000D02*
X137100000Y-111100000D01*
X146717000Y-113060000D02*
X144685000Y-113060000D01*
X144685000Y-113060000D02*
X138335000Y-119410000D01*
D28*
X159925000Y-122585000D02*
X161195000Y-122585000D01*
X161195000Y-122585000D02*
X167600000Y-116180000D01*
X167600000Y-116180000D02*
X171755000Y-116180000D01*
D27*
X161195000Y-122585000D02*
X162465000Y-121315000D01*
X161830000Y-121950000D02*
X161195000Y-122585000D01*
X160560000Y-109250000D02*
X160560000Y-106075000D01*
X161195000Y-105440000D02*
X162485000Y-105440000D01*
X160560000Y-106075000D02*
X161195000Y-105440000D01*
X162465000Y-105420000D02*
X162485000Y-105440000D01*
X162465000Y-101630000D02*
X161830000Y-101630000D01*
X160560000Y-102900000D02*
X160560000Y-109250000D01*
X161830000Y-101630000D02*
X160560000Y-102900000D01*
D31*
G36*
X146491239Y-78237709D02*
X145740345Y-78987293D01*
X145333464Y-79967173D01*
X145332538Y-81028172D01*
X145737709Y-82008761D01*
X146487293Y-82759655D01*
X147467173Y-83166536D01*
X148528172Y-83167462D01*
X149508761Y-82762291D01*
X150259655Y-82012707D01*
X150666536Y-81032827D01*
X150667462Y-79971828D01*
X150262291Y-78991239D01*
X149512707Y-78240345D01*
X149439628Y-78210000D01*
X172930069Y-78210000D01*
X173488338Y-78321046D01*
X173902333Y-78597669D01*
X174178953Y-79011660D01*
X174290000Y-79569931D01*
X174290000Y-101049204D01*
X174272168Y-101006154D01*
X173898121Y-100781484D01*
X172179605Y-102500000D01*
X173898121Y-104218516D01*
X174272168Y-103993846D01*
X174290000Y-103949872D01*
X174290000Y-125430069D01*
X174178953Y-125988340D01*
X173902333Y-126402331D01*
X173488338Y-126678954D01*
X172930069Y-126790000D01*
X149441700Y-126790000D01*
X149508761Y-126762291D01*
X150259655Y-126012707D01*
X150485807Y-125468070D01*
X153787960Y-125468070D01*
X153802920Y-125542277D01*
X154064550Y-126023026D01*
X154490239Y-126367059D01*
X155015180Y-126522000D01*
X155353000Y-126522000D01*
X155353000Y-125252000D01*
X155607000Y-125252000D01*
X155607000Y-126522000D01*
X155944820Y-126522000D01*
X156469761Y-126367059D01*
X156895450Y-126023026D01*
X157157080Y-125542277D01*
X157172040Y-125468070D01*
X158232960Y-125468070D01*
X158247920Y-125542277D01*
X158509550Y-126023026D01*
X158935239Y-126367059D01*
X159460180Y-126522000D01*
X159798000Y-126522000D01*
X159798000Y-125252000D01*
X160052000Y-125252000D01*
X160052000Y-126522000D01*
X160389820Y-126522000D01*
X160914761Y-126367059D01*
X161340450Y-126023026D01*
X161602080Y-125542277D01*
X161617040Y-125468070D01*
X162677960Y-125468070D01*
X162692920Y-125542277D01*
X162954550Y-126023026D01*
X163380239Y-126367059D01*
X163905180Y-126522000D01*
X164243000Y-126522000D01*
X164243000Y-125252000D01*
X164497000Y-125252000D01*
X164497000Y-126522000D01*
X164834820Y-126522000D01*
X165359761Y-126367059D01*
X165785450Y-126023026D01*
X166047080Y-125542277D01*
X166062040Y-125468070D01*
X166060725Y-125465750D01*
X170220000Y-125465750D01*
X170220000Y-125806309D01*
X170316673Y-126039698D01*
X170495301Y-126218327D01*
X170728690Y-126315000D01*
X171469250Y-126315000D01*
X171628000Y-126156250D01*
X171628000Y-125307000D01*
X171882000Y-125307000D01*
X171882000Y-126156250D01*
X172040750Y-126315000D01*
X172781310Y-126315000D01*
X173014699Y-126218327D01*
X173193327Y-126039698D01*
X173290000Y-125806309D01*
X173290000Y-125465750D01*
X173131250Y-125307000D01*
X171882000Y-125307000D01*
X171628000Y-125307000D01*
X170378750Y-125307000D01*
X170220000Y-125465750D01*
X166060725Y-125465750D01*
X165939540Y-125252000D01*
X164497000Y-125252000D01*
X164243000Y-125252000D01*
X162800460Y-125252000D01*
X162677960Y-125468070D01*
X161617040Y-125468070D01*
X161494540Y-125252000D01*
X160052000Y-125252000D01*
X159798000Y-125252000D01*
X158355460Y-125252000D01*
X158232960Y-125468070D01*
X157172040Y-125468070D01*
X157049540Y-125252000D01*
X155607000Y-125252000D01*
X155353000Y-125252000D01*
X153910460Y-125252000D01*
X153787960Y-125468070D01*
X150485807Y-125468070D01*
X150666536Y-125032827D01*
X150667462Y-123971828D01*
X150262291Y-122991239D01*
X149512707Y-122240345D01*
X149230000Y-122122955D01*
X149230000Y-115278194D01*
X149242277Y-115269991D01*
X149434991Y-115077277D01*
X149545112Y-114912470D01*
X149600951Y-114777664D01*
X149649410Y-114660673D01*
X149688079Y-114466270D01*
X149688079Y-114397472D01*
X149701500Y-114330000D01*
X149701500Y-103535000D01*
X149688078Y-103467524D01*
X149688078Y-103398727D01*
X149649408Y-103204324D01*
X149615472Y-103122397D01*
X149545112Y-102952532D01*
X149434992Y-102787725D01*
X149386346Y-102739079D01*
X149348124Y-102681876D01*
X149230000Y-102563752D01*
X149230000Y-102032000D01*
X149219994Y-101982590D01*
X149191553Y-101940965D01*
X149149159Y-101913685D01*
X149103669Y-101905002D01*
X148568430Y-101902182D01*
X148078124Y-101411876D01*
X148020923Y-101373656D01*
X147972277Y-101325009D01*
X147807470Y-101214888D01*
X147555675Y-101110591D01*
X147555673Y-101110590D01*
X147361270Y-101071921D01*
X147292473Y-101071921D01*
X147225000Y-101058500D01*
X144050000Y-101058500D01*
X143982528Y-101071921D01*
X143913730Y-101071921D01*
X143719327Y-101110590D01*
X143719325Y-101110591D01*
X143467530Y-101214888D01*
X143302723Y-101325009D01*
X143110009Y-101517723D01*
X142999888Y-101682530D01*
X142999887Y-101682532D01*
X142921230Y-101872426D01*
X125710000Y-101781740D01*
X125710000Y-95554285D01*
X145331760Y-95554285D01*
X145542169Y-96063515D01*
X145931436Y-96453461D01*
X146440298Y-96664759D01*
X146991285Y-96665240D01*
X147500515Y-96454831D01*
X147890461Y-96065564D01*
X147904774Y-96031094D01*
X148150839Y-95982148D01*
X148397401Y-95817401D01*
X149667401Y-94547401D01*
X149832148Y-94300840D01*
X149890000Y-94010000D01*
X149890000Y-91149802D01*
X150714802Y-90325000D01*
X151534589Y-90325000D01*
X151286666Y-90490657D01*
X150986436Y-90939983D01*
X150881009Y-91470000D01*
X150986436Y-92000017D01*
X151286666Y-92449343D01*
X151721665Y-92740000D01*
X151286666Y-93030657D01*
X150986436Y-93479983D01*
X150881009Y-94010000D01*
X150986436Y-94540017D01*
X151286666Y-94989343D01*
X151721665Y-95280000D01*
X151286666Y-95570657D01*
X150986436Y-96019983D01*
X150881009Y-96550000D01*
X150986436Y-97080017D01*
X151286666Y-97529343D01*
X151735992Y-97829573D01*
X152266009Y-97935000D01*
X152893198Y-97935000D01*
X152529599Y-98298599D01*
X152364852Y-98545161D01*
X152307000Y-98836000D01*
X152307000Y-120172000D01*
X152364852Y-120462839D01*
X152529599Y-120709401D01*
X153838784Y-122018586D01*
X153817533Y-122050391D01*
X153711193Y-122585000D01*
X153817533Y-123119609D01*
X154120365Y-123572828D01*
X154555606Y-123863647D01*
X154490239Y-123882941D01*
X154064550Y-124226974D01*
X153802920Y-124707723D01*
X153787960Y-124781930D01*
X153910460Y-124998000D01*
X155353000Y-124998000D01*
X155353000Y-124978000D01*
X155607000Y-124978000D01*
X155607000Y-124998000D01*
X157049540Y-124998000D01*
X157172040Y-124781930D01*
X157157080Y-124707723D01*
X156895450Y-124226974D01*
X156469761Y-123882941D01*
X156404394Y-123863647D01*
X156839635Y-123572828D01*
X157142467Y-123119609D01*
X157248807Y-122585000D01*
X157142467Y-122050391D01*
X156839635Y-121597172D01*
X156417336Y-121315000D01*
X156839635Y-121032828D01*
X157142467Y-120579609D01*
X157248807Y-120045000D01*
X157142467Y-119510391D01*
X156839635Y-119057172D01*
X156615870Y-118907657D01*
X156815137Y-118870162D01*
X157031261Y-118731090D01*
X157176251Y-118518890D01*
X157227260Y-118267000D01*
X157227260Y-116743000D01*
X157182982Y-116507683D01*
X157043910Y-116291559D01*
X156831710Y-116146569D01*
X156579820Y-116095560D01*
X155145362Y-116095560D01*
X155097000Y-116047198D01*
X155097000Y-112075750D01*
X159163000Y-112075750D01*
X159163000Y-112678310D01*
X159259673Y-112911699D01*
X159438302Y-113090327D01*
X159671691Y-113187000D01*
X160274250Y-113187000D01*
X160433000Y-113028250D01*
X160433000Y-111917000D01*
X159321750Y-111917000D01*
X159163000Y-112075750D01*
X155097000Y-112075750D01*
X155097000Y-109795827D01*
X155386666Y-110229343D01*
X155835992Y-110529573D01*
X156366009Y-110635000D01*
X157133991Y-110635000D01*
X157664008Y-110529573D01*
X158113334Y-110229343D01*
X158413564Y-109780017D01*
X158463959Y-109526661D01*
X159162758Y-109526661D01*
X159374990Y-110040303D01*
X159727072Y-110393000D01*
X159671691Y-110393000D01*
X159438302Y-110489673D01*
X159259673Y-110668301D01*
X159163000Y-110901690D01*
X159163000Y-111504250D01*
X159321750Y-111663000D01*
X160433000Y-111663000D01*
X160433000Y-111643000D01*
X160687000Y-111643000D01*
X160687000Y-111663000D01*
X160707000Y-111663000D01*
X160707000Y-111917000D01*
X160687000Y-111917000D01*
X160687000Y-113028250D01*
X160845750Y-113187000D01*
X161448309Y-113187000D01*
X161681698Y-113090327D01*
X161860327Y-112911699D01*
X161957000Y-112678310D01*
X161957000Y-112622386D01*
X162307630Y-112973629D01*
X162820900Y-113186757D01*
X163376661Y-113187242D01*
X163890303Y-112975010D01*
X164283629Y-112582370D01*
X164369949Y-112374488D01*
X164454990Y-112580303D01*
X164847630Y-112973629D01*
X165360900Y-113186757D01*
X165916661Y-113187242D01*
X166430303Y-112975010D01*
X166823629Y-112582370D01*
X166909949Y-112374488D01*
X166994990Y-112580303D01*
X167387630Y-112973629D01*
X167900900Y-113186757D01*
X168456661Y-113187242D01*
X168970303Y-112975010D01*
X169363629Y-112582370D01*
X169576757Y-112069100D01*
X169577242Y-111513339D01*
X169365010Y-110999697D01*
X168972370Y-110606371D01*
X168764488Y-110520051D01*
X168970303Y-110435010D01*
X169363629Y-110042370D01*
X169576757Y-109529100D01*
X169577242Y-108973339D01*
X169365010Y-108459697D01*
X168972370Y-108066371D01*
X168459100Y-107853243D01*
X167903339Y-107852758D01*
X167389697Y-108064990D01*
X166996371Y-108457630D01*
X166910051Y-108665512D01*
X166825010Y-108459697D01*
X166432370Y-108066371D01*
X165919100Y-107853243D01*
X165363339Y-107852758D01*
X164849697Y-108064990D01*
X164456371Y-108457630D01*
X164370051Y-108665512D01*
X164285010Y-108459697D01*
X163892370Y-108066371D01*
X163379100Y-107853243D01*
X162823339Y-107852758D01*
X162309697Y-108064990D01*
X161916371Y-108457630D01*
X161830051Y-108665512D01*
X161745010Y-108459697D01*
X161445000Y-108159163D01*
X161445000Y-106635392D01*
X161483110Y-106661431D01*
X161735000Y-106712440D01*
X163235000Y-106712440D01*
X163470317Y-106668162D01*
X163686441Y-106529090D01*
X163732969Y-106460994D01*
X163875302Y-106603327D01*
X164108691Y-106700000D01*
X164699250Y-106700000D01*
X164858000Y-106541250D01*
X164858000Y-105567000D01*
X165112000Y-105567000D01*
X165112000Y-106541250D01*
X165270750Y-106700000D01*
X165861309Y-106700000D01*
X166094698Y-106603327D01*
X166273327Y-106424699D01*
X166370000Y-106191310D01*
X166370000Y-105725750D01*
X166211250Y-105567000D01*
X165112000Y-105567000D01*
X164858000Y-105567000D01*
X164838000Y-105567000D01*
X164838000Y-105313000D01*
X164858000Y-105313000D01*
X164858000Y-104338750D01*
X165112000Y-104338750D01*
X165112000Y-105313000D01*
X166211250Y-105313000D01*
X166370000Y-105154250D01*
X166370000Y-104688690D01*
X166273327Y-104455301D01*
X166094698Y-104276673D01*
X165861309Y-104180000D01*
X165270750Y-104180000D01*
X165112000Y-104338750D01*
X164858000Y-104338750D01*
X164699250Y-104180000D01*
X164108691Y-104180000D01*
X163875302Y-104276673D01*
X163734064Y-104417910D01*
X163699090Y-104363559D01*
X163486890Y-104218569D01*
X163235000Y-104167560D01*
X161735000Y-104167560D01*
X161499683Y-104211838D01*
X161445000Y-104247026D01*
X161445000Y-103266580D01*
X161870996Y-102840584D01*
X162049949Y-102960156D01*
X162465000Y-103042715D01*
X162880051Y-102960156D01*
X163104238Y-102810359D01*
X163441065Y-102974981D01*
X163608000Y-102848068D01*
X163608000Y-101757000D01*
X163588000Y-101757000D01*
X163588000Y-101503000D01*
X163608000Y-101503000D01*
X163608000Y-100411932D01*
X163441065Y-100285019D01*
X163104238Y-100449641D01*
X162880051Y-100299844D01*
X162465000Y-100217285D01*
X162049949Y-100299844D01*
X161698086Y-100534951D01*
X161516003Y-100807458D01*
X161491325Y-100812367D01*
X161204210Y-101004210D01*
X161204208Y-101004213D01*
X159934210Y-102274210D01*
X159742367Y-102561325D01*
X159742367Y-102561326D01*
X159674999Y-102900000D01*
X159675000Y-102900005D01*
X159675000Y-106074995D01*
X159674999Y-106075000D01*
X159675000Y-106075005D01*
X159675000Y-108159522D01*
X159376371Y-108457630D01*
X159163243Y-108970900D01*
X159162758Y-109526661D01*
X158463959Y-109526661D01*
X158518991Y-109250000D01*
X158413564Y-108719983D01*
X158113334Y-108270657D01*
X157678335Y-107980000D01*
X158113334Y-107689343D01*
X158413564Y-107240017D01*
X158518991Y-106710000D01*
X158413564Y-106179983D01*
X158113334Y-105730657D01*
X157678335Y-105440000D01*
X158113334Y-105149343D01*
X158413564Y-104700017D01*
X158518991Y-104170000D01*
X158413564Y-103639983D01*
X158113334Y-103190657D01*
X157678335Y-102900000D01*
X158113334Y-102609343D01*
X158413564Y-102160017D01*
X158518991Y-101630000D01*
X158413564Y-101099983D01*
X158113334Y-100650657D01*
X157678335Y-100360000D01*
X158113334Y-100069343D01*
X158413564Y-99620017D01*
X158518991Y-99090000D01*
X158413564Y-98559983D01*
X158113334Y-98110657D01*
X157678335Y-97820000D01*
X158113334Y-97529343D01*
X158413564Y-97080017D01*
X158518991Y-96550000D01*
X158445198Y-96179016D01*
X161785590Y-96179016D01*
X161841271Y-96409611D01*
X162324078Y-96577622D01*
X162834428Y-96548083D01*
X163168729Y-96409611D01*
X163224410Y-96179016D01*
X162505000Y-95459605D01*
X161785590Y-96179016D01*
X158445198Y-96179016D01*
X158413564Y-96019983D01*
X158113334Y-95570657D01*
X157678335Y-95280000D01*
X157949103Y-95099078D01*
X161207378Y-95099078D01*
X161236917Y-95609428D01*
X161375389Y-95943729D01*
X161605984Y-95999410D01*
X162325395Y-95280000D01*
X161605984Y-94560590D01*
X161375389Y-94616271D01*
X161207378Y-95099078D01*
X157949103Y-95099078D01*
X158113334Y-94989343D01*
X158413564Y-94540017D01*
X158445197Y-94380984D01*
X161785590Y-94380984D01*
X162505000Y-95100395D01*
X163224410Y-94380984D01*
X163168729Y-94150389D01*
X162685922Y-93982378D01*
X162175572Y-94011917D01*
X161841271Y-94150389D01*
X161785590Y-94380984D01*
X158445197Y-94380984D01*
X158518991Y-94010000D01*
X158413564Y-93479983D01*
X158113334Y-93030657D01*
X157678335Y-92740000D01*
X158113334Y-92449343D01*
X158413564Y-92000017D01*
X158518991Y-91470000D01*
X158413564Y-90939983D01*
X158113334Y-90490657D01*
X157678335Y-90200000D01*
X158113334Y-89909343D01*
X158413564Y-89460017D01*
X158518991Y-88930000D01*
X158413564Y-88399983D01*
X158113334Y-87950657D01*
X157678335Y-87660000D01*
X158113334Y-87369343D01*
X158413564Y-86920017D01*
X158518991Y-86390000D01*
X158413564Y-85859983D01*
X158113334Y-85410657D01*
X157664008Y-85110427D01*
X157654339Y-85108504D01*
X157747349Y-85080972D01*
X158169145Y-84739540D01*
X158428173Y-84262684D01*
X158442318Y-84191185D01*
X158319656Y-83977000D01*
X156877000Y-83977000D01*
X156877000Y-83997000D01*
X156623000Y-83997000D01*
X156623000Y-83977000D01*
X155180344Y-83977000D01*
X155057682Y-84191185D01*
X155071827Y-84262684D01*
X155330855Y-84739540D01*
X155752651Y-85080972D01*
X155845661Y-85108504D01*
X155835992Y-85110427D01*
X155386666Y-85410657D01*
X155086436Y-85859983D01*
X154981009Y-86390000D01*
X155086436Y-86920017D01*
X155386666Y-87369343D01*
X155821665Y-87660000D01*
X155386666Y-87950657D01*
X155086436Y-88399983D01*
X154981009Y-88930000D01*
X155063249Y-89343447D01*
X154747401Y-89027599D01*
X154500839Y-88862852D01*
X154210000Y-88805000D01*
X150400000Y-88805000D01*
X150109160Y-88862852D01*
X149862599Y-89027599D01*
X148592599Y-90297599D01*
X148427852Y-90544161D01*
X148370000Y-90835000D01*
X148370000Y-93695198D01*
X147730413Y-94334785D01*
X147502564Y-94106539D01*
X147286021Y-94016623D01*
X147440923Y-93952460D01*
X147508912Y-93711517D01*
X146717000Y-92919605D01*
X145925088Y-93711517D01*
X145993077Y-93952460D01*
X146159621Y-94011732D01*
X145933485Y-94105169D01*
X145543539Y-94494436D01*
X145332241Y-95003298D01*
X145331760Y-95554285D01*
X125710000Y-95554285D01*
X125710000Y-92535171D01*
X145319799Y-92535171D01*
X145347770Y-93085448D01*
X145504540Y-93463923D01*
X145745483Y-93531912D01*
X146537395Y-92740000D01*
X146896605Y-92740000D01*
X147688517Y-93531912D01*
X147929460Y-93463923D01*
X148114201Y-92944829D01*
X148086230Y-92394552D01*
X147929460Y-92016077D01*
X147688517Y-91948088D01*
X146896605Y-92740000D01*
X146537395Y-92740000D01*
X145745483Y-91948088D01*
X145504540Y-92016077D01*
X145319799Y-92535171D01*
X125710000Y-92535171D01*
X125710000Y-91768483D01*
X145925088Y-91768483D01*
X146717000Y-92560395D01*
X147508912Y-91768483D01*
X147440923Y-91527540D01*
X146921829Y-91342799D01*
X146371552Y-91370770D01*
X145993077Y-91527540D01*
X145925088Y-91768483D01*
X125710000Y-91768483D01*
X125710000Y-82780159D01*
X125999446Y-82780159D01*
X126085852Y-83036643D01*
X126659336Y-83246458D01*
X127269460Y-83220839D01*
X127714148Y-83036643D01*
X127800554Y-82780159D01*
X126900000Y-81879605D01*
X125999446Y-82780159D01*
X125710000Y-82780159D01*
X125710000Y-82563550D01*
X125819841Y-82600554D01*
X126720395Y-81700000D01*
X127079605Y-81700000D01*
X127980159Y-82600554D01*
X128236643Y-82514148D01*
X128446458Y-81940664D01*
X128443918Y-81880159D01*
X129699446Y-81880159D01*
X129785852Y-82136643D01*
X130359336Y-82346458D01*
X130969460Y-82320839D01*
X131414148Y-82136643D01*
X131500554Y-81880159D01*
X130600000Y-80979605D01*
X129699446Y-81880159D01*
X128443918Y-81880159D01*
X128420839Y-81330540D01*
X128236643Y-80885852D01*
X127980159Y-80799446D01*
X127079605Y-81700000D01*
X126720395Y-81700000D01*
X125819841Y-80799446D01*
X125710000Y-80836450D01*
X125710000Y-80619841D01*
X125999446Y-80619841D01*
X126900000Y-81520395D01*
X127800554Y-80619841D01*
X127780171Y-80559336D01*
X129053542Y-80559336D01*
X129079161Y-81169460D01*
X129263357Y-81614148D01*
X129519841Y-81700554D01*
X130420395Y-80800000D01*
X130779605Y-80800000D01*
X131680159Y-81700554D01*
X131936643Y-81614148D01*
X132123289Y-81103991D01*
X137064735Y-81103991D01*
X137297932Y-81668371D01*
X137729357Y-82100551D01*
X138293330Y-82334733D01*
X138771017Y-82335149D01*
X143628434Y-87192566D01*
X143996654Y-87438603D01*
X144431000Y-87525000D01*
X150400000Y-87525000D01*
X150834346Y-87438603D01*
X151202566Y-87192566D01*
X155207402Y-83187730D01*
X155071827Y-83437316D01*
X155057682Y-83508815D01*
X155180344Y-83723000D01*
X156623000Y-83723000D01*
X156623000Y-83703000D01*
X156877000Y-83703000D01*
X156877000Y-83723000D01*
X158319656Y-83723000D01*
X158442318Y-83508815D01*
X158428173Y-83437316D01*
X158169145Y-82960460D01*
X157747349Y-82619028D01*
X157654339Y-82591496D01*
X157664008Y-82589573D01*
X157880377Y-82445000D01*
X163618420Y-82445000D01*
X164120000Y-82946579D01*
X164120000Y-94026778D01*
X164119683Y-94026838D01*
X163903559Y-94165910D01*
X163758569Y-94378110D01*
X163707560Y-94630000D01*
X163707560Y-94792385D01*
X163634611Y-94616271D01*
X163404016Y-94560590D01*
X162684605Y-95280000D01*
X163404016Y-95999410D01*
X163634611Y-95943729D01*
X163707560Y-95734098D01*
X163707560Y-95930000D01*
X163751838Y-96165317D01*
X163890910Y-96381441D01*
X164103110Y-96526431D01*
X164120000Y-96529851D01*
X164120000Y-100329526D01*
X164028935Y-100285019D01*
X163862000Y-100411932D01*
X163862000Y-101503000D01*
X163882000Y-101503000D01*
X163882000Y-101757000D01*
X163862000Y-101757000D01*
X163862000Y-102848068D01*
X164028935Y-102974981D01*
X164365762Y-102810359D01*
X164589949Y-102960156D01*
X165005000Y-103042715D01*
X165420051Y-102960156D01*
X165771914Y-102725049D01*
X166007021Y-102373186D01*
X166089580Y-101958135D01*
X166089580Y-101301865D01*
X166007021Y-100886814D01*
X165890000Y-100711679D01*
X165890000Y-96533222D01*
X165890317Y-96533162D01*
X166106441Y-96394090D01*
X166251431Y-96181890D01*
X166302440Y-95930000D01*
X166302440Y-94630000D01*
X166258162Y-94394683D01*
X166119090Y-94178559D01*
X165906890Y-94033569D01*
X165890000Y-94030149D01*
X165890000Y-83165132D01*
X166410000Y-83685132D01*
X166410000Y-104805000D01*
X166496397Y-105239346D01*
X166715329Y-105567000D01*
X166742434Y-105607566D01*
X168647434Y-107512566D01*
X169015654Y-107758603D01*
X169450000Y-107845000D01*
X170249868Y-107845000D01*
X170620000Y-108215132D01*
X170620000Y-113576778D01*
X170619683Y-113576838D01*
X170403559Y-113715910D01*
X170258569Y-113928110D01*
X170207560Y-114180000D01*
X170207560Y-115045000D01*
X167600000Y-115045000D01*
X167165654Y-115131397D01*
X166802142Y-115374288D01*
X166797434Y-115377434D01*
X161672260Y-120502608D01*
X161672260Y-119283000D01*
X161627982Y-119047683D01*
X161488910Y-118831559D01*
X161276710Y-118686569D01*
X161024820Y-118635560D01*
X158825180Y-118635560D01*
X158589863Y-118679838D01*
X158373739Y-118818910D01*
X158228749Y-119031110D01*
X158177740Y-119283000D01*
X158177740Y-120807000D01*
X158222018Y-121042317D01*
X158361090Y-121258441D01*
X158573290Y-121403431D01*
X158789724Y-121447260D01*
X158565365Y-121597172D01*
X158262533Y-122050391D01*
X158156193Y-122585000D01*
X158262533Y-123119609D01*
X158565365Y-123572828D01*
X159000606Y-123863647D01*
X158935239Y-123882941D01*
X158509550Y-124226974D01*
X158247920Y-124707723D01*
X158232960Y-124781930D01*
X158355460Y-124998000D01*
X159798000Y-124998000D01*
X159798000Y-124978000D01*
X160052000Y-124978000D01*
X160052000Y-124998000D01*
X161494540Y-124998000D01*
X161617040Y-124781930D01*
X161602080Y-124707723D01*
X161340450Y-124226974D01*
X160914761Y-123882941D01*
X160849394Y-123863647D01*
X161064377Y-123720000D01*
X161195000Y-123720000D01*
X161629346Y-123633603D01*
X161997566Y-123387566D01*
X162622740Y-122762392D01*
X162622740Y-123347000D01*
X162667018Y-123582317D01*
X162806090Y-123798441D01*
X163018290Y-123943431D01*
X163247867Y-123989921D01*
X162954550Y-124226974D01*
X162692920Y-124707723D01*
X162677960Y-124781930D01*
X162800460Y-124998000D01*
X164243000Y-124998000D01*
X164243000Y-124978000D01*
X164497000Y-124978000D01*
X164497000Y-124998000D01*
X165939540Y-124998000D01*
X166062040Y-124781930D01*
X166047080Y-124707723D01*
X165963254Y-124553691D01*
X170220000Y-124553691D01*
X170220000Y-124894250D01*
X170378750Y-125053000D01*
X171628000Y-125053000D01*
X171628000Y-124203750D01*
X171882000Y-124203750D01*
X171882000Y-125053000D01*
X173131250Y-125053000D01*
X173290000Y-124894250D01*
X173290000Y-124553691D01*
X173193327Y-124320302D01*
X173014699Y-124141673D01*
X172781310Y-124045000D01*
X172040750Y-124045000D01*
X171882000Y-124203750D01*
X171628000Y-124203750D01*
X171469250Y-124045000D01*
X170728690Y-124045000D01*
X170495301Y-124141673D01*
X170316673Y-124320302D01*
X170220000Y-124553691D01*
X165963254Y-124553691D01*
X165785450Y-124226974D01*
X165492454Y-123990181D01*
X165705137Y-123950162D01*
X165921261Y-123811090D01*
X166066251Y-123598890D01*
X166117260Y-123347000D01*
X166117260Y-121823000D01*
X166072982Y-121587683D01*
X165933910Y-121371559D01*
X165721710Y-121226569D01*
X165469820Y-121175560D01*
X164209572Y-121175560D01*
X168070132Y-117315000D01*
X170793569Y-117315000D01*
X170855000Y-117327440D01*
X172655000Y-117327440D01*
X172890317Y-117283162D01*
X173106441Y-117144090D01*
X173251431Y-116931890D01*
X173302440Y-116680000D01*
X173302440Y-115680000D01*
X173258162Y-115444683D01*
X173250658Y-115433021D01*
X173251431Y-115431890D01*
X173302440Y-115180000D01*
X173302440Y-114180000D01*
X173258162Y-113944683D01*
X173119090Y-113728559D01*
X172906890Y-113583569D01*
X172890000Y-113580149D01*
X172890000Y-107745000D01*
X172803603Y-107310654D01*
X172557566Y-106942434D01*
X171522566Y-105907434D01*
X171442002Y-105853603D01*
X171154346Y-105661397D01*
X170720000Y-105575000D01*
X169920132Y-105575000D01*
X168743253Y-104398121D01*
X170281484Y-104398121D01*
X170506154Y-104772168D01*
X171489388Y-105170880D01*
X172550357Y-105162975D01*
X173493846Y-104772168D01*
X173718516Y-104398121D01*
X172000000Y-102679605D01*
X170281484Y-104398121D01*
X168743253Y-104398121D01*
X168680000Y-104334868D01*
X168680000Y-101989388D01*
X169329120Y-101989388D01*
X169337025Y-103050357D01*
X169727832Y-103993846D01*
X170101879Y-104218516D01*
X171820395Y-102500000D01*
X170101879Y-100781484D01*
X169727832Y-101006154D01*
X169329120Y-101989388D01*
X168680000Y-101989388D01*
X168680000Y-100601879D01*
X170281484Y-100601879D01*
X172000000Y-102320395D01*
X173718516Y-100601879D01*
X173493846Y-100227832D01*
X172510612Y-99829120D01*
X171449643Y-99837025D01*
X170506154Y-100227832D01*
X170281484Y-100601879D01*
X168680000Y-100601879D01*
X168680000Y-83215000D01*
X168593603Y-82780654D01*
X168347566Y-82412434D01*
X168130132Y-82195000D01*
X169718420Y-82195000D01*
X169877255Y-82353835D01*
X169926883Y-82473943D01*
X170189673Y-82737192D01*
X170533201Y-82879838D01*
X170905167Y-82880162D01*
X171248943Y-82738117D01*
X171512192Y-82475327D01*
X171654838Y-82131799D01*
X171655162Y-81759833D01*
X171513117Y-81416057D01*
X171250327Y-81152808D01*
X171129013Y-81102434D01*
X170710790Y-80684210D01*
X170423675Y-80492367D01*
X170367484Y-80481190D01*
X170085000Y-80424999D01*
X170084995Y-80425000D01*
X166319195Y-80425000D01*
X166280955Y-80399449D01*
X166074346Y-80261397D01*
X165640000Y-80175000D01*
X157880377Y-80175000D01*
X157664008Y-80030427D01*
X157133991Y-79925000D01*
X156366009Y-79925000D01*
X155835992Y-80030427D01*
X155619623Y-80175000D01*
X155480000Y-80175000D01*
X155045654Y-80261397D01*
X154839045Y-80399449D01*
X154677434Y-80507434D01*
X149929868Y-85255000D01*
X144901132Y-85255000D01*
X143435000Y-83788868D01*
X143435000Y-82735905D01*
X143600551Y-82570643D01*
X143834733Y-82006670D01*
X143835265Y-81396009D01*
X143602068Y-80831629D01*
X143170643Y-80399449D01*
X142606670Y-80165267D01*
X141996009Y-80164735D01*
X141431629Y-80397932D01*
X140999449Y-80829357D01*
X140845717Y-81199585D01*
X140130423Y-80484291D01*
X139902068Y-79931629D01*
X139470643Y-79499449D01*
X138906670Y-79265267D01*
X138296009Y-79264735D01*
X137731629Y-79497932D01*
X137299449Y-79929357D01*
X137065267Y-80493330D01*
X137064735Y-81103991D01*
X132123289Y-81103991D01*
X132146458Y-81040664D01*
X132120839Y-80430540D01*
X131936643Y-79985852D01*
X131680159Y-79899446D01*
X130779605Y-80800000D01*
X130420395Y-80800000D01*
X129519841Y-79899446D01*
X129263357Y-79985852D01*
X129053542Y-80559336D01*
X127780171Y-80559336D01*
X127714148Y-80363357D01*
X127140664Y-80153542D01*
X126530540Y-80179161D01*
X126085852Y-80363357D01*
X125999446Y-80619841D01*
X125710000Y-80619841D01*
X125710000Y-79719841D01*
X129699446Y-79719841D01*
X130600000Y-80620395D01*
X131500554Y-79719841D01*
X131414148Y-79463357D01*
X130840664Y-79253542D01*
X130230540Y-79279161D01*
X129785852Y-79463357D01*
X129699446Y-79719841D01*
X125710000Y-79719841D01*
X125710000Y-79569931D01*
X125821046Y-79011662D01*
X126097669Y-78597667D01*
X126511660Y-78321047D01*
X127069931Y-78210000D01*
X146558300Y-78210000D01*
X146491239Y-78237709D01*
X146491239Y-78237709D01*
G37*
X146491239Y-78237709D02*
X145740345Y-78987293D01*
X145333464Y-79967173D01*
X145332538Y-81028172D01*
X145737709Y-82008761D01*
X146487293Y-82759655D01*
X147467173Y-83166536D01*
X148528172Y-83167462D01*
X149508761Y-82762291D01*
X150259655Y-82012707D01*
X150666536Y-81032827D01*
X150667462Y-79971828D01*
X150262291Y-78991239D01*
X149512707Y-78240345D01*
X149439628Y-78210000D01*
X172930069Y-78210000D01*
X173488338Y-78321046D01*
X173902333Y-78597669D01*
X174178953Y-79011660D01*
X174290000Y-79569931D01*
X174290000Y-101049204D01*
X174272168Y-101006154D01*
X173898121Y-100781484D01*
X172179605Y-102500000D01*
X173898121Y-104218516D01*
X174272168Y-103993846D01*
X174290000Y-103949872D01*
X174290000Y-125430069D01*
X174178953Y-125988340D01*
X173902333Y-126402331D01*
X173488338Y-126678954D01*
X172930069Y-126790000D01*
X149441700Y-126790000D01*
X149508761Y-126762291D01*
X150259655Y-126012707D01*
X150485807Y-125468070D01*
X153787960Y-125468070D01*
X153802920Y-125542277D01*
X154064550Y-126023026D01*
X154490239Y-126367059D01*
X155015180Y-126522000D01*
X155353000Y-126522000D01*
X155353000Y-125252000D01*
X155607000Y-125252000D01*
X155607000Y-126522000D01*
X155944820Y-126522000D01*
X156469761Y-126367059D01*
X156895450Y-126023026D01*
X157157080Y-125542277D01*
X157172040Y-125468070D01*
X158232960Y-125468070D01*
X158247920Y-125542277D01*
X158509550Y-126023026D01*
X158935239Y-126367059D01*
X159460180Y-126522000D01*
X159798000Y-126522000D01*
X159798000Y-125252000D01*
X160052000Y-125252000D01*
X160052000Y-126522000D01*
X160389820Y-126522000D01*
X160914761Y-126367059D01*
X161340450Y-126023026D01*
X161602080Y-125542277D01*
X161617040Y-125468070D01*
X162677960Y-125468070D01*
X162692920Y-125542277D01*
X162954550Y-126023026D01*
X163380239Y-126367059D01*
X163905180Y-126522000D01*
X164243000Y-126522000D01*
X164243000Y-125252000D01*
X164497000Y-125252000D01*
X164497000Y-126522000D01*
X164834820Y-126522000D01*
X165359761Y-126367059D01*
X165785450Y-126023026D01*
X166047080Y-125542277D01*
X166062040Y-125468070D01*
X166060725Y-125465750D01*
X170220000Y-125465750D01*
X170220000Y-125806309D01*
X170316673Y-126039698D01*
X170495301Y-126218327D01*
X170728690Y-126315000D01*
X171469250Y-126315000D01*
X171628000Y-126156250D01*
X171628000Y-125307000D01*
X171882000Y-125307000D01*
X171882000Y-126156250D01*
X172040750Y-126315000D01*
X172781310Y-126315000D01*
X173014699Y-126218327D01*
X173193327Y-126039698D01*
X173290000Y-125806309D01*
X173290000Y-125465750D01*
X173131250Y-125307000D01*
X171882000Y-125307000D01*
X171628000Y-125307000D01*
X170378750Y-125307000D01*
X170220000Y-125465750D01*
X166060725Y-125465750D01*
X165939540Y-125252000D01*
X164497000Y-125252000D01*
X164243000Y-125252000D01*
X162800460Y-125252000D01*
X162677960Y-125468070D01*
X161617040Y-125468070D01*
X161494540Y-125252000D01*
X160052000Y-125252000D01*
X159798000Y-125252000D01*
X158355460Y-125252000D01*
X158232960Y-125468070D01*
X157172040Y-125468070D01*
X157049540Y-125252000D01*
X155607000Y-125252000D01*
X155353000Y-125252000D01*
X153910460Y-125252000D01*
X153787960Y-125468070D01*
X150485807Y-125468070D01*
X150666536Y-125032827D01*
X150667462Y-123971828D01*
X150262291Y-122991239D01*
X149512707Y-122240345D01*
X149230000Y-122122955D01*
X149230000Y-115278194D01*
X149242277Y-115269991D01*
X149434991Y-115077277D01*
X149545112Y-114912470D01*
X149600951Y-114777664D01*
X149649410Y-114660673D01*
X149688079Y-114466270D01*
X149688079Y-114397472D01*
X149701500Y-114330000D01*
X149701500Y-103535000D01*
X149688078Y-103467524D01*
X149688078Y-103398727D01*
X149649408Y-103204324D01*
X149615472Y-103122397D01*
X149545112Y-102952532D01*
X149434992Y-102787725D01*
X149386346Y-102739079D01*
X149348124Y-102681876D01*
X149230000Y-102563752D01*
X149230000Y-102032000D01*
X149219994Y-101982590D01*
X149191553Y-101940965D01*
X149149159Y-101913685D01*
X149103669Y-101905002D01*
X148568430Y-101902182D01*
X148078124Y-101411876D01*
X148020923Y-101373656D01*
X147972277Y-101325009D01*
X147807470Y-101214888D01*
X147555675Y-101110591D01*
X147555673Y-101110590D01*
X147361270Y-101071921D01*
X147292473Y-101071921D01*
X147225000Y-101058500D01*
X144050000Y-101058500D01*
X143982528Y-101071921D01*
X143913730Y-101071921D01*
X143719327Y-101110590D01*
X143719325Y-101110591D01*
X143467530Y-101214888D01*
X143302723Y-101325009D01*
X143110009Y-101517723D01*
X142999888Y-101682530D01*
X142999887Y-101682532D01*
X142921230Y-101872426D01*
X125710000Y-101781740D01*
X125710000Y-95554285D01*
X145331760Y-95554285D01*
X145542169Y-96063515D01*
X145931436Y-96453461D01*
X146440298Y-96664759D01*
X146991285Y-96665240D01*
X147500515Y-96454831D01*
X147890461Y-96065564D01*
X147904774Y-96031094D01*
X148150839Y-95982148D01*
X148397401Y-95817401D01*
X149667401Y-94547401D01*
X149832148Y-94300840D01*
X149890000Y-94010000D01*
X149890000Y-91149802D01*
X150714802Y-90325000D01*
X151534589Y-90325000D01*
X151286666Y-90490657D01*
X150986436Y-90939983D01*
X150881009Y-91470000D01*
X150986436Y-92000017D01*
X151286666Y-92449343D01*
X151721665Y-92740000D01*
X151286666Y-93030657D01*
X150986436Y-93479983D01*
X150881009Y-94010000D01*
X150986436Y-94540017D01*
X151286666Y-94989343D01*
X151721665Y-95280000D01*
X151286666Y-95570657D01*
X150986436Y-96019983D01*
X150881009Y-96550000D01*
X150986436Y-97080017D01*
X151286666Y-97529343D01*
X151735992Y-97829573D01*
X152266009Y-97935000D01*
X152893198Y-97935000D01*
X152529599Y-98298599D01*
X152364852Y-98545161D01*
X152307000Y-98836000D01*
X152307000Y-120172000D01*
X152364852Y-120462839D01*
X152529599Y-120709401D01*
X153838784Y-122018586D01*
X153817533Y-122050391D01*
X153711193Y-122585000D01*
X153817533Y-123119609D01*
X154120365Y-123572828D01*
X154555606Y-123863647D01*
X154490239Y-123882941D01*
X154064550Y-124226974D01*
X153802920Y-124707723D01*
X153787960Y-124781930D01*
X153910460Y-124998000D01*
X155353000Y-124998000D01*
X155353000Y-124978000D01*
X155607000Y-124978000D01*
X155607000Y-124998000D01*
X157049540Y-124998000D01*
X157172040Y-124781930D01*
X157157080Y-124707723D01*
X156895450Y-124226974D01*
X156469761Y-123882941D01*
X156404394Y-123863647D01*
X156839635Y-123572828D01*
X157142467Y-123119609D01*
X157248807Y-122585000D01*
X157142467Y-122050391D01*
X156839635Y-121597172D01*
X156417336Y-121315000D01*
X156839635Y-121032828D01*
X157142467Y-120579609D01*
X157248807Y-120045000D01*
X157142467Y-119510391D01*
X156839635Y-119057172D01*
X156615870Y-118907657D01*
X156815137Y-118870162D01*
X157031261Y-118731090D01*
X157176251Y-118518890D01*
X157227260Y-118267000D01*
X157227260Y-116743000D01*
X157182982Y-116507683D01*
X157043910Y-116291559D01*
X156831710Y-116146569D01*
X156579820Y-116095560D01*
X155145362Y-116095560D01*
X155097000Y-116047198D01*
X155097000Y-112075750D01*
X159163000Y-112075750D01*
X159163000Y-112678310D01*
X159259673Y-112911699D01*
X159438302Y-113090327D01*
X159671691Y-113187000D01*
X160274250Y-113187000D01*
X160433000Y-113028250D01*
X160433000Y-111917000D01*
X159321750Y-111917000D01*
X159163000Y-112075750D01*
X155097000Y-112075750D01*
X155097000Y-109795827D01*
X155386666Y-110229343D01*
X155835992Y-110529573D01*
X156366009Y-110635000D01*
X157133991Y-110635000D01*
X157664008Y-110529573D01*
X158113334Y-110229343D01*
X158413564Y-109780017D01*
X158463959Y-109526661D01*
X159162758Y-109526661D01*
X159374990Y-110040303D01*
X159727072Y-110393000D01*
X159671691Y-110393000D01*
X159438302Y-110489673D01*
X159259673Y-110668301D01*
X159163000Y-110901690D01*
X159163000Y-111504250D01*
X159321750Y-111663000D01*
X160433000Y-111663000D01*
X160433000Y-111643000D01*
X160687000Y-111643000D01*
X160687000Y-111663000D01*
X160707000Y-111663000D01*
X160707000Y-111917000D01*
X160687000Y-111917000D01*
X160687000Y-113028250D01*
X160845750Y-113187000D01*
X161448309Y-113187000D01*
X161681698Y-113090327D01*
X161860327Y-112911699D01*
X161957000Y-112678310D01*
X161957000Y-112622386D01*
X162307630Y-112973629D01*
X162820900Y-113186757D01*
X163376661Y-113187242D01*
X163890303Y-112975010D01*
X164283629Y-112582370D01*
X164369949Y-112374488D01*
X164454990Y-112580303D01*
X164847630Y-112973629D01*
X165360900Y-113186757D01*
X165916661Y-113187242D01*
X166430303Y-112975010D01*
X166823629Y-112582370D01*
X166909949Y-112374488D01*
X166994990Y-112580303D01*
X167387630Y-112973629D01*
X167900900Y-113186757D01*
X168456661Y-113187242D01*
X168970303Y-112975010D01*
X169363629Y-112582370D01*
X169576757Y-112069100D01*
X169577242Y-111513339D01*
X169365010Y-110999697D01*
X168972370Y-110606371D01*
X168764488Y-110520051D01*
X168970303Y-110435010D01*
X169363629Y-110042370D01*
X169576757Y-109529100D01*
X169577242Y-108973339D01*
X169365010Y-108459697D01*
X168972370Y-108066371D01*
X168459100Y-107853243D01*
X167903339Y-107852758D01*
X167389697Y-108064990D01*
X166996371Y-108457630D01*
X166910051Y-108665512D01*
X166825010Y-108459697D01*
X166432370Y-108066371D01*
X165919100Y-107853243D01*
X165363339Y-107852758D01*
X164849697Y-108064990D01*
X164456371Y-108457630D01*
X164370051Y-108665512D01*
X164285010Y-108459697D01*
X163892370Y-108066371D01*
X163379100Y-107853243D01*
X162823339Y-107852758D01*
X162309697Y-108064990D01*
X161916371Y-108457630D01*
X161830051Y-108665512D01*
X161745010Y-108459697D01*
X161445000Y-108159163D01*
X161445000Y-106635392D01*
X161483110Y-106661431D01*
X161735000Y-106712440D01*
X163235000Y-106712440D01*
X163470317Y-106668162D01*
X163686441Y-106529090D01*
X163732969Y-106460994D01*
X163875302Y-106603327D01*
X164108691Y-106700000D01*
X164699250Y-106700000D01*
X164858000Y-106541250D01*
X164858000Y-105567000D01*
X165112000Y-105567000D01*
X165112000Y-106541250D01*
X165270750Y-106700000D01*
X165861309Y-106700000D01*
X166094698Y-106603327D01*
X166273327Y-106424699D01*
X166370000Y-106191310D01*
X166370000Y-105725750D01*
X166211250Y-105567000D01*
X165112000Y-105567000D01*
X164858000Y-105567000D01*
X164838000Y-105567000D01*
X164838000Y-105313000D01*
X164858000Y-105313000D01*
X164858000Y-104338750D01*
X165112000Y-104338750D01*
X165112000Y-105313000D01*
X166211250Y-105313000D01*
X166370000Y-105154250D01*
X166370000Y-104688690D01*
X166273327Y-104455301D01*
X166094698Y-104276673D01*
X165861309Y-104180000D01*
X165270750Y-104180000D01*
X165112000Y-104338750D01*
X164858000Y-104338750D01*
X164699250Y-104180000D01*
X164108691Y-104180000D01*
X163875302Y-104276673D01*
X163734064Y-104417910D01*
X163699090Y-104363559D01*
X163486890Y-104218569D01*
X163235000Y-104167560D01*
X161735000Y-104167560D01*
X161499683Y-104211838D01*
X161445000Y-104247026D01*
X161445000Y-103266580D01*
X161870996Y-102840584D01*
X162049949Y-102960156D01*
X162465000Y-103042715D01*
X162880051Y-102960156D01*
X163104238Y-102810359D01*
X163441065Y-102974981D01*
X163608000Y-102848068D01*
X163608000Y-101757000D01*
X163588000Y-101757000D01*
X163588000Y-101503000D01*
X163608000Y-101503000D01*
X163608000Y-100411932D01*
X163441065Y-100285019D01*
X163104238Y-100449641D01*
X162880051Y-100299844D01*
X162465000Y-100217285D01*
X162049949Y-100299844D01*
X161698086Y-100534951D01*
X161516003Y-100807458D01*
X161491325Y-100812367D01*
X161204210Y-101004210D01*
X161204208Y-101004213D01*
X159934210Y-102274210D01*
X159742367Y-102561325D01*
X159742367Y-102561326D01*
X159674999Y-102900000D01*
X159675000Y-102900005D01*
X159675000Y-106074995D01*
X159674999Y-106075000D01*
X159675000Y-106075005D01*
X159675000Y-108159522D01*
X159376371Y-108457630D01*
X159163243Y-108970900D01*
X159162758Y-109526661D01*
X158463959Y-109526661D01*
X158518991Y-109250000D01*
X158413564Y-108719983D01*
X158113334Y-108270657D01*
X157678335Y-107980000D01*
X158113334Y-107689343D01*
X158413564Y-107240017D01*
X158518991Y-106710000D01*
X158413564Y-106179983D01*
X158113334Y-105730657D01*
X157678335Y-105440000D01*
X158113334Y-105149343D01*
X158413564Y-104700017D01*
X158518991Y-104170000D01*
X158413564Y-103639983D01*
X158113334Y-103190657D01*
X157678335Y-102900000D01*
X158113334Y-102609343D01*
X158413564Y-102160017D01*
X158518991Y-101630000D01*
X158413564Y-101099983D01*
X158113334Y-100650657D01*
X157678335Y-100360000D01*
X158113334Y-100069343D01*
X158413564Y-99620017D01*
X158518991Y-99090000D01*
X158413564Y-98559983D01*
X158113334Y-98110657D01*
X157678335Y-97820000D01*
X158113334Y-97529343D01*
X158413564Y-97080017D01*
X158518991Y-96550000D01*
X158445198Y-96179016D01*
X161785590Y-96179016D01*
X161841271Y-96409611D01*
X162324078Y-96577622D01*
X162834428Y-96548083D01*
X163168729Y-96409611D01*
X163224410Y-96179016D01*
X162505000Y-95459605D01*
X161785590Y-96179016D01*
X158445198Y-96179016D01*
X158413564Y-96019983D01*
X158113334Y-95570657D01*
X157678335Y-95280000D01*
X157949103Y-95099078D01*
X161207378Y-95099078D01*
X161236917Y-95609428D01*
X161375389Y-95943729D01*
X161605984Y-95999410D01*
X162325395Y-95280000D01*
X161605984Y-94560590D01*
X161375389Y-94616271D01*
X161207378Y-95099078D01*
X157949103Y-95099078D01*
X158113334Y-94989343D01*
X158413564Y-94540017D01*
X158445197Y-94380984D01*
X161785590Y-94380984D01*
X162505000Y-95100395D01*
X163224410Y-94380984D01*
X163168729Y-94150389D01*
X162685922Y-93982378D01*
X162175572Y-94011917D01*
X161841271Y-94150389D01*
X161785590Y-94380984D01*
X158445197Y-94380984D01*
X158518991Y-94010000D01*
X158413564Y-93479983D01*
X158113334Y-93030657D01*
X157678335Y-92740000D01*
X158113334Y-92449343D01*
X158413564Y-92000017D01*
X158518991Y-91470000D01*
X158413564Y-90939983D01*
X158113334Y-90490657D01*
X157678335Y-90200000D01*
X158113334Y-89909343D01*
X158413564Y-89460017D01*
X158518991Y-88930000D01*
X158413564Y-88399983D01*
X158113334Y-87950657D01*
X157678335Y-87660000D01*
X158113334Y-87369343D01*
X158413564Y-86920017D01*
X158518991Y-86390000D01*
X158413564Y-85859983D01*
X158113334Y-85410657D01*
X157664008Y-85110427D01*
X157654339Y-85108504D01*
X157747349Y-85080972D01*
X158169145Y-84739540D01*
X158428173Y-84262684D01*
X158442318Y-84191185D01*
X158319656Y-83977000D01*
X156877000Y-83977000D01*
X156877000Y-83997000D01*
X156623000Y-83997000D01*
X156623000Y-83977000D01*
X155180344Y-83977000D01*
X155057682Y-84191185D01*
X155071827Y-84262684D01*
X155330855Y-84739540D01*
X155752651Y-85080972D01*
X155845661Y-85108504D01*
X155835992Y-85110427D01*
X155386666Y-85410657D01*
X155086436Y-85859983D01*
X154981009Y-86390000D01*
X155086436Y-86920017D01*
X155386666Y-87369343D01*
X155821665Y-87660000D01*
X155386666Y-87950657D01*
X155086436Y-88399983D01*
X154981009Y-88930000D01*
X155063249Y-89343447D01*
X154747401Y-89027599D01*
X154500839Y-88862852D01*
X154210000Y-88805000D01*
X150400000Y-88805000D01*
X150109160Y-88862852D01*
X149862599Y-89027599D01*
X148592599Y-90297599D01*
X148427852Y-90544161D01*
X148370000Y-90835000D01*
X148370000Y-93695198D01*
X147730413Y-94334785D01*
X147502564Y-94106539D01*
X147286021Y-94016623D01*
X147440923Y-93952460D01*
X147508912Y-93711517D01*
X146717000Y-92919605D01*
X145925088Y-93711517D01*
X145993077Y-93952460D01*
X146159621Y-94011732D01*
X145933485Y-94105169D01*
X145543539Y-94494436D01*
X145332241Y-95003298D01*
X145331760Y-95554285D01*
X125710000Y-95554285D01*
X125710000Y-92535171D01*
X145319799Y-92535171D01*
X145347770Y-93085448D01*
X145504540Y-93463923D01*
X145745483Y-93531912D01*
X146537395Y-92740000D01*
X146896605Y-92740000D01*
X147688517Y-93531912D01*
X147929460Y-93463923D01*
X148114201Y-92944829D01*
X148086230Y-92394552D01*
X147929460Y-92016077D01*
X147688517Y-91948088D01*
X146896605Y-92740000D01*
X146537395Y-92740000D01*
X145745483Y-91948088D01*
X145504540Y-92016077D01*
X145319799Y-92535171D01*
X125710000Y-92535171D01*
X125710000Y-91768483D01*
X145925088Y-91768483D01*
X146717000Y-92560395D01*
X147508912Y-91768483D01*
X147440923Y-91527540D01*
X146921829Y-91342799D01*
X146371552Y-91370770D01*
X145993077Y-91527540D01*
X145925088Y-91768483D01*
X125710000Y-91768483D01*
X125710000Y-82780159D01*
X125999446Y-82780159D01*
X126085852Y-83036643D01*
X126659336Y-83246458D01*
X127269460Y-83220839D01*
X127714148Y-83036643D01*
X127800554Y-82780159D01*
X126900000Y-81879605D01*
X125999446Y-82780159D01*
X125710000Y-82780159D01*
X125710000Y-82563550D01*
X125819841Y-82600554D01*
X126720395Y-81700000D01*
X127079605Y-81700000D01*
X127980159Y-82600554D01*
X128236643Y-82514148D01*
X128446458Y-81940664D01*
X128443918Y-81880159D01*
X129699446Y-81880159D01*
X129785852Y-82136643D01*
X130359336Y-82346458D01*
X130969460Y-82320839D01*
X131414148Y-82136643D01*
X131500554Y-81880159D01*
X130600000Y-80979605D01*
X129699446Y-81880159D01*
X128443918Y-81880159D01*
X128420839Y-81330540D01*
X128236643Y-80885852D01*
X127980159Y-80799446D01*
X127079605Y-81700000D01*
X126720395Y-81700000D01*
X125819841Y-80799446D01*
X125710000Y-80836450D01*
X125710000Y-80619841D01*
X125999446Y-80619841D01*
X126900000Y-81520395D01*
X127800554Y-80619841D01*
X127780171Y-80559336D01*
X129053542Y-80559336D01*
X129079161Y-81169460D01*
X129263357Y-81614148D01*
X129519841Y-81700554D01*
X130420395Y-80800000D01*
X130779605Y-80800000D01*
X131680159Y-81700554D01*
X131936643Y-81614148D01*
X132123289Y-81103991D01*
X137064735Y-81103991D01*
X137297932Y-81668371D01*
X137729357Y-82100551D01*
X138293330Y-82334733D01*
X138771017Y-82335149D01*
X143628434Y-87192566D01*
X143996654Y-87438603D01*
X144431000Y-87525000D01*
X150400000Y-87525000D01*
X150834346Y-87438603D01*
X151202566Y-87192566D01*
X155207402Y-83187730D01*
X155071827Y-83437316D01*
X155057682Y-83508815D01*
X155180344Y-83723000D01*
X156623000Y-83723000D01*
X156623000Y-83703000D01*
X156877000Y-83703000D01*
X156877000Y-83723000D01*
X158319656Y-83723000D01*
X158442318Y-83508815D01*
X158428173Y-83437316D01*
X158169145Y-82960460D01*
X157747349Y-82619028D01*
X157654339Y-82591496D01*
X157664008Y-82589573D01*
X157880377Y-82445000D01*
X163618420Y-82445000D01*
X164120000Y-82946579D01*
X164120000Y-94026778D01*
X164119683Y-94026838D01*
X163903559Y-94165910D01*
X163758569Y-94378110D01*
X163707560Y-94630000D01*
X163707560Y-94792385D01*
X163634611Y-94616271D01*
X163404016Y-94560590D01*
X162684605Y-95280000D01*
X163404016Y-95999410D01*
X163634611Y-95943729D01*
X163707560Y-95734098D01*
X163707560Y-95930000D01*
X163751838Y-96165317D01*
X163890910Y-96381441D01*
X164103110Y-96526431D01*
X164120000Y-96529851D01*
X164120000Y-100329526D01*
X164028935Y-100285019D01*
X163862000Y-100411932D01*
X163862000Y-101503000D01*
X163882000Y-101503000D01*
X163882000Y-101757000D01*
X163862000Y-101757000D01*
X163862000Y-102848068D01*
X164028935Y-102974981D01*
X164365762Y-102810359D01*
X164589949Y-102960156D01*
X165005000Y-103042715D01*
X165420051Y-102960156D01*
X165771914Y-102725049D01*
X166007021Y-102373186D01*
X166089580Y-101958135D01*
X166089580Y-101301865D01*
X166007021Y-100886814D01*
X165890000Y-100711679D01*
X165890000Y-96533222D01*
X165890317Y-96533162D01*
X166106441Y-96394090D01*
X166251431Y-96181890D01*
X166302440Y-95930000D01*
X166302440Y-94630000D01*
X166258162Y-94394683D01*
X166119090Y-94178559D01*
X165906890Y-94033569D01*
X165890000Y-94030149D01*
X165890000Y-83165132D01*
X166410000Y-83685132D01*
X166410000Y-104805000D01*
X166496397Y-105239346D01*
X166715329Y-105567000D01*
X166742434Y-105607566D01*
X168647434Y-107512566D01*
X169015654Y-107758603D01*
X169450000Y-107845000D01*
X170249868Y-107845000D01*
X170620000Y-108215132D01*
X170620000Y-113576778D01*
X170619683Y-113576838D01*
X170403559Y-113715910D01*
X170258569Y-113928110D01*
X170207560Y-114180000D01*
X170207560Y-115045000D01*
X167600000Y-115045000D01*
X167165654Y-115131397D01*
X166802142Y-115374288D01*
X166797434Y-115377434D01*
X161672260Y-120502608D01*
X161672260Y-119283000D01*
X161627982Y-119047683D01*
X161488910Y-118831559D01*
X161276710Y-118686569D01*
X161024820Y-118635560D01*
X158825180Y-118635560D01*
X158589863Y-118679838D01*
X158373739Y-118818910D01*
X158228749Y-119031110D01*
X158177740Y-119283000D01*
X158177740Y-120807000D01*
X158222018Y-121042317D01*
X158361090Y-121258441D01*
X158573290Y-121403431D01*
X158789724Y-121447260D01*
X158565365Y-121597172D01*
X158262533Y-122050391D01*
X158156193Y-122585000D01*
X158262533Y-123119609D01*
X158565365Y-123572828D01*
X159000606Y-123863647D01*
X158935239Y-123882941D01*
X158509550Y-124226974D01*
X158247920Y-124707723D01*
X158232960Y-124781930D01*
X158355460Y-124998000D01*
X159798000Y-124998000D01*
X159798000Y-124978000D01*
X160052000Y-124978000D01*
X160052000Y-124998000D01*
X161494540Y-124998000D01*
X161617040Y-124781930D01*
X161602080Y-124707723D01*
X161340450Y-124226974D01*
X160914761Y-123882941D01*
X160849394Y-123863647D01*
X161064377Y-123720000D01*
X161195000Y-123720000D01*
X161629346Y-123633603D01*
X161997566Y-123387566D01*
X162622740Y-122762392D01*
X162622740Y-123347000D01*
X162667018Y-123582317D01*
X162806090Y-123798441D01*
X163018290Y-123943431D01*
X163247867Y-123989921D01*
X162954550Y-124226974D01*
X162692920Y-124707723D01*
X162677960Y-124781930D01*
X162800460Y-124998000D01*
X164243000Y-124998000D01*
X164243000Y-124978000D01*
X164497000Y-124978000D01*
X164497000Y-124998000D01*
X165939540Y-124998000D01*
X166062040Y-124781930D01*
X166047080Y-124707723D01*
X165963254Y-124553691D01*
X170220000Y-124553691D01*
X170220000Y-124894250D01*
X170378750Y-125053000D01*
X171628000Y-125053000D01*
X171628000Y-124203750D01*
X171882000Y-124203750D01*
X171882000Y-125053000D01*
X173131250Y-125053000D01*
X173290000Y-124894250D01*
X173290000Y-124553691D01*
X173193327Y-124320302D01*
X173014699Y-124141673D01*
X172781310Y-124045000D01*
X172040750Y-124045000D01*
X171882000Y-124203750D01*
X171628000Y-124203750D01*
X171469250Y-124045000D01*
X170728690Y-124045000D01*
X170495301Y-124141673D01*
X170316673Y-124320302D01*
X170220000Y-124553691D01*
X165963254Y-124553691D01*
X165785450Y-124226974D01*
X165492454Y-123990181D01*
X165705137Y-123950162D01*
X165921261Y-123811090D01*
X166066251Y-123598890D01*
X166117260Y-123347000D01*
X166117260Y-121823000D01*
X166072982Y-121587683D01*
X165933910Y-121371559D01*
X165721710Y-121226569D01*
X165469820Y-121175560D01*
X164209572Y-121175560D01*
X168070132Y-117315000D01*
X170793569Y-117315000D01*
X170855000Y-117327440D01*
X172655000Y-117327440D01*
X172890317Y-117283162D01*
X173106441Y-117144090D01*
X173251431Y-116931890D01*
X173302440Y-116680000D01*
X173302440Y-115680000D01*
X173258162Y-115444683D01*
X173250658Y-115433021D01*
X173251431Y-115431890D01*
X173302440Y-115180000D01*
X173302440Y-114180000D01*
X173258162Y-113944683D01*
X173119090Y-113728559D01*
X172906890Y-113583569D01*
X172890000Y-113580149D01*
X172890000Y-107745000D01*
X172803603Y-107310654D01*
X172557566Y-106942434D01*
X171522566Y-105907434D01*
X171442002Y-105853603D01*
X171154346Y-105661397D01*
X170720000Y-105575000D01*
X169920132Y-105575000D01*
X168743253Y-104398121D01*
X170281484Y-104398121D01*
X170506154Y-104772168D01*
X171489388Y-105170880D01*
X172550357Y-105162975D01*
X173493846Y-104772168D01*
X173718516Y-104398121D01*
X172000000Y-102679605D01*
X170281484Y-104398121D01*
X168743253Y-104398121D01*
X168680000Y-104334868D01*
X168680000Y-101989388D01*
X169329120Y-101989388D01*
X169337025Y-103050357D01*
X169727832Y-103993846D01*
X170101879Y-104218516D01*
X171820395Y-102500000D01*
X170101879Y-100781484D01*
X169727832Y-101006154D01*
X169329120Y-101989388D01*
X168680000Y-101989388D01*
X168680000Y-100601879D01*
X170281484Y-100601879D01*
X172000000Y-102320395D01*
X173718516Y-100601879D01*
X173493846Y-100227832D01*
X172510612Y-99829120D01*
X171449643Y-99837025D01*
X170506154Y-100227832D01*
X170281484Y-100601879D01*
X168680000Y-100601879D01*
X168680000Y-83215000D01*
X168593603Y-82780654D01*
X168347566Y-82412434D01*
X168130132Y-82195000D01*
X169718420Y-82195000D01*
X169877255Y-82353835D01*
X169926883Y-82473943D01*
X170189673Y-82737192D01*
X170533201Y-82879838D01*
X170905167Y-82880162D01*
X171248943Y-82738117D01*
X171512192Y-82475327D01*
X171654838Y-82131799D01*
X171655162Y-81759833D01*
X171513117Y-81416057D01*
X171250327Y-81152808D01*
X171129013Y-81102434D01*
X170710790Y-80684210D01*
X170423675Y-80492367D01*
X170367484Y-80481190D01*
X170085000Y-80424999D01*
X170084995Y-80425000D01*
X166319195Y-80425000D01*
X166280955Y-80399449D01*
X166074346Y-80261397D01*
X165640000Y-80175000D01*
X157880377Y-80175000D01*
X157664008Y-80030427D01*
X157133991Y-79925000D01*
X156366009Y-79925000D01*
X155835992Y-80030427D01*
X155619623Y-80175000D01*
X155480000Y-80175000D01*
X155045654Y-80261397D01*
X154839045Y-80399449D01*
X154677434Y-80507434D01*
X149929868Y-85255000D01*
X144901132Y-85255000D01*
X143435000Y-83788868D01*
X143435000Y-82735905D01*
X143600551Y-82570643D01*
X143834733Y-82006670D01*
X143835265Y-81396009D01*
X143602068Y-80831629D01*
X143170643Y-80399449D01*
X142606670Y-80165267D01*
X141996009Y-80164735D01*
X141431629Y-80397932D01*
X140999449Y-80829357D01*
X140845717Y-81199585D01*
X140130423Y-80484291D01*
X139902068Y-79931629D01*
X139470643Y-79499449D01*
X138906670Y-79265267D01*
X138296009Y-79264735D01*
X137731629Y-79497932D01*
X137299449Y-79929357D01*
X137065267Y-80493330D01*
X137064735Y-81103991D01*
X132123289Y-81103991D01*
X132146458Y-81040664D01*
X132120839Y-80430540D01*
X131936643Y-79985852D01*
X131680159Y-79899446D01*
X130779605Y-80800000D01*
X130420395Y-80800000D01*
X129519841Y-79899446D01*
X129263357Y-79985852D01*
X129053542Y-80559336D01*
X127780171Y-80559336D01*
X127714148Y-80363357D01*
X127140664Y-80153542D01*
X126530540Y-80179161D01*
X126085852Y-80363357D01*
X125999446Y-80619841D01*
X125710000Y-80619841D01*
X125710000Y-79719841D01*
X129699446Y-79719841D01*
X130600000Y-80620395D01*
X131500554Y-79719841D01*
X131414148Y-79463357D01*
X130840664Y-79253542D01*
X130230540Y-79279161D01*
X129785852Y-79463357D01*
X129699446Y-79719841D01*
X125710000Y-79719841D01*
X125710000Y-79569931D01*
X125821046Y-79011662D01*
X126097669Y-78597667D01*
X126511660Y-78321047D01*
X127069931Y-78210000D01*
X146558300Y-78210000D01*
X146491239Y-78237709D01*
M02*
